<?xml version="1.0" encoding="utf-8" standalone="no"?>
<!DOCTYPE svg PUBLIC "-//W3C//DTD SVG 1.1//EN"
  "http://www.w3.org/Graphics/SVG/1.1/DTD/svg11.dtd">
<!-- Created with matplotlib (https://matplotlib.org/) -->
<svg height="1116pt" version="1.1" viewBox="0 0 828 1116" width="828pt" xmlns="http://www.w3.org/2000/svg" xmlns:xlink="http://www.w3.org/1999/xlink">
 <defs>
  <style type="text/css">
*{stroke-linecap:butt;stroke-linejoin:round;}
  </style>
 </defs>
 <g id="figure_1">
  <g id="patch_1">
   <path d="M 0 1116 
L 828 1116 
L 828 0 
L 0 0 
z
" style="fill:#ffffff;"/>
  </g>
  <g id="axes_1">
   <g id="patch_2">
    <path d="M 103.5 279.192414 
L 745.2 279.192414 
L 745.2 133.92 
L 103.5 133.92 
z
" style="fill:#ffffff;"/>
   </g>
   <g id="matplotlib.axis_1">
    <g id="xtick_1">
     <g id="line2d_1">
      <path clip-path="url(#p87ebe92e4a)" d="M 173.094966 279.192414 
L 173.094966 133.92 
" style="fill:none;stroke:#b0b0b0;stroke-linecap:square;stroke-width:0.8;"/>
     </g>
     <g id="line2d_2">
      <defs>
       <path d="M 0 0 
L 0 3.5 
" id="m7b33657305" style="stroke:#000000;stroke-width:0.8;"/>
      </defs>
      <g>
       <use style="stroke:#000000;stroke-width:0.8;" x="173.094966" xlink:href="#m7b33657305" y="279.192414"/>
      </g>
     </g>
     <g id="text_1">
      <!-- 51000 -->
      <defs>
       <path d="M 10.796875 72.90625 
L 49.515625 72.90625 
L 49.515625 64.59375 
L 19.828125 64.59375 
L 19.828125 46.734375 
Q 21.96875 47.46875 24.109375 47.828125 
Q 26.265625 48.1875 28.421875 48.1875 
Q 40.625 48.1875 47.75 41.5 
Q 54.890625 34.8125 54.890625 23.390625 
Q 54.890625 11.625 47.5625 5.09375 
Q 40.234375 -1.421875 26.90625 -1.421875 
Q 22.3125 -1.421875 17.546875 -0.640625 
Q 12.796875 0.140625 7.71875 1.703125 
L 7.71875 11.625 
Q 12.109375 9.234375 16.796875 8.0625 
Q 21.484375 6.890625 26.703125 6.890625 
Q 35.15625 6.890625 40.078125 11.328125 
Q 45.015625 15.765625 45.015625 23.390625 
Q 45.015625 31 40.078125 35.4375 
Q 35.15625 39.890625 26.703125 39.890625 
Q 22.75 39.890625 18.8125 39.015625 
Q 14.890625 38.140625 10.796875 36.28125 
z
" id="DejaVuSans-53"/>
       <path d="M 12.40625 8.296875 
L 28.515625 8.296875 
L 28.515625 63.921875 
L 10.984375 60.40625 
L 10.984375 69.390625 
L 28.421875 72.90625 
L 38.28125 72.90625 
L 38.28125 8.296875 
L 54.390625 8.296875 
L 54.390625 0 
L 12.40625 0 
z
" id="DejaVuSans-49"/>
       <path d="M 31.78125 66.40625 
Q 24.171875 66.40625 20.328125 58.90625 
Q 16.5 51.421875 16.5 36.375 
Q 16.5 21.390625 20.328125 13.890625 
Q 24.171875 6.390625 31.78125 6.390625 
Q 39.453125 6.390625 43.28125 13.890625 
Q 47.125 21.390625 47.125 36.375 
Q 47.125 51.421875 43.28125 58.90625 
Q 39.453125 66.40625 31.78125 66.40625 
z
M 31.78125 74.21875 
Q 44.046875 74.21875 50.515625 64.515625 
Q 56.984375 54.828125 56.984375 36.375 
Q 56.984375 17.96875 50.515625 8.265625 
Q 44.046875 -1.421875 31.78125 -1.421875 
Q 19.53125 -1.421875 13.0625 8.265625 
Q 6.59375 17.96875 6.59375 36.375 
Q 6.59375 54.828125 13.0625 64.515625 
Q 19.53125 74.21875 31.78125 74.21875 
z
" id="DejaVuSans-48"/>
      </defs>
      <g transform="translate(157.188716 293.790851)scale(0.1 -0.1)">
       <use xlink:href="#DejaVuSans-53"/>
       <use x="63.623047" xlink:href="#DejaVuSans-49"/>
       <use x="127.246094" xlink:href="#DejaVuSans-48"/>
       <use x="190.869141" xlink:href="#DejaVuSans-48"/>
       <use x="254.492188" xlink:href="#DejaVuSans-48"/>
      </g>
     </g>
    </g>
    <g id="xtick_2">
     <g id="line2d_3">
      <path clip-path="url(#p87ebe92e4a)" d="M 246.464811 279.192414 
L 246.464811 133.92 
" style="fill:none;stroke:#b0b0b0;stroke-linecap:square;stroke-width:0.8;"/>
     </g>
     <g id="line2d_4">
      <g>
       <use style="stroke:#000000;stroke-width:0.8;" x="246.464811" xlink:href="#m7b33657305" y="279.192414"/>
      </g>
     </g>
     <g id="text_2">
      <!-- 52000 -->
      <defs>
       <path d="M 19.1875 8.296875 
L 53.609375 8.296875 
L 53.609375 0 
L 7.328125 0 
L 7.328125 8.296875 
Q 12.9375 14.109375 22.625 23.890625 
Q 32.328125 33.6875 34.8125 36.53125 
Q 39.546875 41.84375 41.421875 45.53125 
Q 43.3125 49.21875 43.3125 52.78125 
Q 43.3125 58.59375 39.234375 62.25 
Q 35.15625 65.921875 28.609375 65.921875 
Q 23.96875 65.921875 18.8125 64.3125 
Q 13.671875 62.703125 7.8125 59.421875 
L 7.8125 69.390625 
Q 13.765625 71.78125 18.9375 73 
Q 24.125 74.21875 28.421875 74.21875 
Q 39.75 74.21875 46.484375 68.546875 
Q 53.21875 62.890625 53.21875 53.421875 
Q 53.21875 48.921875 51.53125 44.890625 
Q 49.859375 40.875 45.40625 35.40625 
Q 44.1875 33.984375 37.640625 27.21875 
Q 31.109375 20.453125 19.1875 8.296875 
z
" id="DejaVuSans-50"/>
      </defs>
      <g transform="translate(230.558561 293.790851)scale(0.1 -0.1)">
       <use xlink:href="#DejaVuSans-53"/>
       <use x="63.623047" xlink:href="#DejaVuSans-50"/>
       <use x="127.246094" xlink:href="#DejaVuSans-48"/>
       <use x="190.869141" xlink:href="#DejaVuSans-48"/>
       <use x="254.492188" xlink:href="#DejaVuSans-48"/>
      </g>
     </g>
    </g>
    <g id="xtick_3">
     <g id="line2d_5">
      <path clip-path="url(#p87ebe92e4a)" d="M 319.834656 279.192414 
L 319.834656 133.92 
" style="fill:none;stroke:#b0b0b0;stroke-linecap:square;stroke-width:0.8;"/>
     </g>
     <g id="line2d_6">
      <g>
       <use style="stroke:#000000;stroke-width:0.8;" x="319.834656" xlink:href="#m7b33657305" y="279.192414"/>
      </g>
     </g>
     <g id="text_3">
      <!-- 53000 -->
      <defs>
       <path d="M 40.578125 39.3125 
Q 47.65625 37.796875 51.625 33 
Q 55.609375 28.21875 55.609375 21.1875 
Q 55.609375 10.40625 48.1875 4.484375 
Q 40.765625 -1.421875 27.09375 -1.421875 
Q 22.515625 -1.421875 17.65625 -0.515625 
Q 12.796875 0.390625 7.625 2.203125 
L 7.625 11.71875 
Q 11.71875 9.328125 16.59375 8.109375 
Q 21.484375 6.890625 26.8125 6.890625 
Q 36.078125 6.890625 40.9375 10.546875 
Q 45.796875 14.203125 45.796875 21.1875 
Q 45.796875 27.640625 41.28125 31.265625 
Q 36.765625 34.90625 28.71875 34.90625 
L 20.21875 34.90625 
L 20.21875 43.015625 
L 29.109375 43.015625 
Q 36.375 43.015625 40.234375 45.921875 
Q 44.09375 48.828125 44.09375 54.296875 
Q 44.09375 59.90625 40.109375 62.90625 
Q 36.140625 65.921875 28.71875 65.921875 
Q 24.65625 65.921875 20.015625 65.03125 
Q 15.375 64.15625 9.8125 62.3125 
L 9.8125 71.09375 
Q 15.4375 72.65625 20.34375 73.4375 
Q 25.25 74.21875 29.59375 74.21875 
Q 40.828125 74.21875 47.359375 69.109375 
Q 53.90625 64.015625 53.90625 55.328125 
Q 53.90625 49.265625 50.4375 45.09375 
Q 46.96875 40.921875 40.578125 39.3125 
z
" id="DejaVuSans-51"/>
      </defs>
      <g transform="translate(303.928406 293.790851)scale(0.1 -0.1)">
       <use xlink:href="#DejaVuSans-53"/>
       <use x="63.623047" xlink:href="#DejaVuSans-51"/>
       <use x="127.246094" xlink:href="#DejaVuSans-48"/>
       <use x="190.869141" xlink:href="#DejaVuSans-48"/>
       <use x="254.492188" xlink:href="#DejaVuSans-48"/>
      </g>
     </g>
    </g>
    <g id="xtick_4">
     <g id="line2d_7">
      <path clip-path="url(#p87ebe92e4a)" d="M 393.204501 279.192414 
L 393.204501 133.92 
" style="fill:none;stroke:#b0b0b0;stroke-linecap:square;stroke-width:0.8;"/>
     </g>
     <g id="line2d_8">
      <g>
       <use style="stroke:#000000;stroke-width:0.8;" x="393.204501" xlink:href="#m7b33657305" y="279.192414"/>
      </g>
     </g>
     <g id="text_4">
      <!-- 54000 -->
      <defs>
       <path d="M 37.796875 64.3125 
L 12.890625 25.390625 
L 37.796875 25.390625 
z
M 35.203125 72.90625 
L 47.609375 72.90625 
L 47.609375 25.390625 
L 58.015625 25.390625 
L 58.015625 17.1875 
L 47.609375 17.1875 
L 47.609375 0 
L 37.796875 0 
L 37.796875 17.1875 
L 4.890625 17.1875 
L 4.890625 26.703125 
z
" id="DejaVuSans-52"/>
      </defs>
      <g transform="translate(377.298251 293.790851)scale(0.1 -0.1)">
       <use xlink:href="#DejaVuSans-53"/>
       <use x="63.623047" xlink:href="#DejaVuSans-52"/>
       <use x="127.246094" xlink:href="#DejaVuSans-48"/>
       <use x="190.869141" xlink:href="#DejaVuSans-48"/>
       <use x="254.492188" xlink:href="#DejaVuSans-48"/>
      </g>
     </g>
    </g>
    <g id="xtick_5">
     <g id="line2d_9">
      <path clip-path="url(#p87ebe92e4a)" d="M 466.574346 279.192414 
L 466.574346 133.92 
" style="fill:none;stroke:#b0b0b0;stroke-linecap:square;stroke-width:0.8;"/>
     </g>
     <g id="line2d_10">
      <g>
       <use style="stroke:#000000;stroke-width:0.8;" x="466.574346" xlink:href="#m7b33657305" y="279.192414"/>
      </g>
     </g>
     <g id="text_5">
      <!-- 55000 -->
      <g transform="translate(450.668096 293.790851)scale(0.1 -0.1)">
       <use xlink:href="#DejaVuSans-53"/>
       <use x="63.623047" xlink:href="#DejaVuSans-53"/>
       <use x="127.246094" xlink:href="#DejaVuSans-48"/>
       <use x="190.869141" xlink:href="#DejaVuSans-48"/>
       <use x="254.492188" xlink:href="#DejaVuSans-48"/>
      </g>
     </g>
    </g>
    <g id="xtick_6">
     <g id="line2d_11">
      <path clip-path="url(#p87ebe92e4a)" d="M 539.944191 279.192414 
L 539.944191 133.92 
" style="fill:none;stroke:#b0b0b0;stroke-linecap:square;stroke-width:0.8;"/>
     </g>
     <g id="line2d_12">
      <g>
       <use style="stroke:#000000;stroke-width:0.8;" x="539.944191" xlink:href="#m7b33657305" y="279.192414"/>
      </g>
     </g>
     <g id="text_6">
      <!-- 56000 -->
      <defs>
       <path d="M 33.015625 40.375 
Q 26.375 40.375 22.484375 35.828125 
Q 18.609375 31.296875 18.609375 23.390625 
Q 18.609375 15.53125 22.484375 10.953125 
Q 26.375 6.390625 33.015625 6.390625 
Q 39.65625 6.390625 43.53125 10.953125 
Q 47.40625 15.53125 47.40625 23.390625 
Q 47.40625 31.296875 43.53125 35.828125 
Q 39.65625 40.375 33.015625 40.375 
z
M 52.59375 71.296875 
L 52.59375 62.3125 
Q 48.875 64.0625 45.09375 64.984375 
Q 41.3125 65.921875 37.59375 65.921875 
Q 27.828125 65.921875 22.671875 59.328125 
Q 17.53125 52.734375 16.796875 39.40625 
Q 19.671875 43.65625 24.015625 45.921875 
Q 28.375 48.1875 33.59375 48.1875 
Q 44.578125 48.1875 50.953125 41.515625 
Q 57.328125 34.859375 57.328125 23.390625 
Q 57.328125 12.15625 50.6875 5.359375 
Q 44.046875 -1.421875 33.015625 -1.421875 
Q 20.359375 -1.421875 13.671875 8.265625 
Q 6.984375 17.96875 6.984375 36.375 
Q 6.984375 53.65625 15.1875 63.9375 
Q 23.390625 74.21875 37.203125 74.21875 
Q 40.921875 74.21875 44.703125 73.484375 
Q 48.484375 72.75 52.59375 71.296875 
z
" id="DejaVuSans-54"/>
      </defs>
      <g transform="translate(524.037941 293.790851)scale(0.1 -0.1)">
       <use xlink:href="#DejaVuSans-53"/>
       <use x="63.623047" xlink:href="#DejaVuSans-54"/>
       <use x="127.246094" xlink:href="#DejaVuSans-48"/>
       <use x="190.869141" xlink:href="#DejaVuSans-48"/>
       <use x="254.492188" xlink:href="#DejaVuSans-48"/>
      </g>
     </g>
    </g>
    <g id="xtick_7">
     <g id="line2d_13">
      <path clip-path="url(#p87ebe92e4a)" d="M 613.314035 279.192414 
L 613.314035 133.92 
" style="fill:none;stroke:#b0b0b0;stroke-linecap:square;stroke-width:0.8;"/>
     </g>
     <g id="line2d_14">
      <g>
       <use style="stroke:#000000;stroke-width:0.8;" x="613.314035" xlink:href="#m7b33657305" y="279.192414"/>
      </g>
     </g>
     <g id="text_7">
      <!-- 57000 -->
      <defs>
       <path d="M 8.203125 72.90625 
L 55.078125 72.90625 
L 55.078125 68.703125 
L 28.609375 0 
L 18.3125 0 
L 43.21875 64.59375 
L 8.203125 64.59375 
z
" id="DejaVuSans-55"/>
      </defs>
      <g transform="translate(597.407785 293.790851)scale(0.1 -0.1)">
       <use xlink:href="#DejaVuSans-53"/>
       <use x="63.623047" xlink:href="#DejaVuSans-55"/>
       <use x="127.246094" xlink:href="#DejaVuSans-48"/>
       <use x="190.869141" xlink:href="#DejaVuSans-48"/>
       <use x="254.492188" xlink:href="#DejaVuSans-48"/>
      </g>
     </g>
    </g>
    <g id="xtick_8">
     <g id="line2d_15">
      <path clip-path="url(#p87ebe92e4a)" d="M 686.68388 279.192414 
L 686.68388 133.92 
" style="fill:none;stroke:#b0b0b0;stroke-linecap:square;stroke-width:0.8;"/>
     </g>
     <g id="line2d_16">
      <g>
       <use style="stroke:#000000;stroke-width:0.8;" x="686.68388" xlink:href="#m7b33657305" y="279.192414"/>
      </g>
     </g>
     <g id="text_8">
      <!-- 58000 -->
      <defs>
       <path d="M 31.78125 34.625 
Q 24.75 34.625 20.71875 30.859375 
Q 16.703125 27.09375 16.703125 20.515625 
Q 16.703125 13.921875 20.71875 10.15625 
Q 24.75 6.390625 31.78125 6.390625 
Q 38.8125 6.390625 42.859375 10.171875 
Q 46.921875 13.96875 46.921875 20.515625 
Q 46.921875 27.09375 42.890625 30.859375 
Q 38.875 34.625 31.78125 34.625 
z
M 21.921875 38.8125 
Q 15.578125 40.375 12.03125 44.71875 
Q 8.5 49.078125 8.5 55.328125 
Q 8.5 64.0625 14.71875 69.140625 
Q 20.953125 74.21875 31.78125 74.21875 
Q 42.671875 74.21875 48.875 69.140625 
Q 55.078125 64.0625 55.078125 55.328125 
Q 55.078125 49.078125 51.53125 44.71875 
Q 48 40.375 41.703125 38.8125 
Q 48.828125 37.15625 52.796875 32.3125 
Q 56.78125 27.484375 56.78125 20.515625 
Q 56.78125 9.90625 50.3125 4.234375 
Q 43.84375 -1.421875 31.78125 -1.421875 
Q 19.734375 -1.421875 13.25 4.234375 
Q 6.78125 9.90625 6.78125 20.515625 
Q 6.78125 27.484375 10.78125 32.3125 
Q 14.796875 37.15625 21.921875 38.8125 
z
M 18.3125 54.390625 
Q 18.3125 48.734375 21.84375 45.5625 
Q 25.390625 42.390625 31.78125 42.390625 
Q 38.140625 42.390625 41.71875 45.5625 
Q 45.3125 48.734375 45.3125 54.390625 
Q 45.3125 60.0625 41.71875 63.234375 
Q 38.140625 66.40625 31.78125 66.40625 
Q 25.390625 66.40625 21.84375 63.234375 
Q 18.3125 60.0625 18.3125 54.390625 
z
" id="DejaVuSans-56"/>
      </defs>
      <g transform="translate(670.77763 293.790851)scale(0.1 -0.1)">
       <use xlink:href="#DejaVuSans-53"/>
       <use x="63.623047" xlink:href="#DejaVuSans-56"/>
       <use x="127.246094" xlink:href="#DejaVuSans-48"/>
       <use x="190.869141" xlink:href="#DejaVuSans-48"/>
       <use x="254.492188" xlink:href="#DejaVuSans-48"/>
      </g>
     </g>
    </g>
    <g id="text_9">
     <!-- $t$ -->
     <defs>
      <path d="M 42.28125 54.6875 
L 40.921875 47.703125 
L 23 47.703125 
L 17.1875 18.015625 
Q 16.890625 16.359375 16.75 15.234375 
Q 16.609375 14.109375 16.609375 13.484375 
Q 16.609375 10.359375 18.484375 8.9375 
Q 20.359375 7.515625 24.515625 7.515625 
L 33.59375 7.515625 
L 32.078125 0 
L 23.484375 0 
Q 15.484375 0 11.546875 3.125 
Q 7.625 6.25 7.625 12.59375 
Q 7.625 13.71875 7.765625 15.0625 
Q 7.90625 16.40625 8.203125 18.015625 
L 14.015625 47.703125 
L 6.390625 47.703125 
L 7.8125 54.6875 
L 15.28125 54.6875 
L 18.3125 70.21875 
L 27.296875 70.21875 
L 24.3125 54.6875 
z
" id="DejaVuSans-Oblique-116"/>
     </defs>
     <g transform="translate(422.35 307.468976)scale(0.1 -0.1)">
      <use transform="translate(0 0.78125)" xlink:href="#DejaVuSans-Oblique-116"/>
     </g>
    </g>
   </g>
   <g id="matplotlib.axis_2">
    <g id="ytick_1">
     <g id="line2d_17">
      <path clip-path="url(#p87ebe92e4a)" d="M 103.5 274.915927 
L 745.2 274.915927 
" style="fill:none;stroke:#b0b0b0;stroke-linecap:square;stroke-width:0.8;"/>
     </g>
     <g id="line2d_18">
      <defs>
       <path d="M 0 0 
L -3.5 0 
" id="m14784d9b78" style="stroke:#000000;stroke-width:0.8;"/>
      </defs>
      <g>
       <use style="stroke:#000000;stroke-width:0.8;" x="103.5" xlink:href="#m14784d9b78" y="274.915927"/>
      </g>
     </g>
     <g id="text_10">
      <!-- −200 -->
      <defs>
       <path d="M 10.59375 35.5 
L 73.1875 35.5 
L 73.1875 27.203125 
L 10.59375 27.203125 
z
" id="DejaVuSans-8722"/>
      </defs>
      <g transform="translate(69.032813 278.715146)scale(0.1 -0.1)">
       <use xlink:href="#DejaVuSans-8722"/>
       <use x="83.789062" xlink:href="#DejaVuSans-50"/>
       <use x="147.412109" xlink:href="#DejaVuSans-48"/>
       <use x="211.035156" xlink:href="#DejaVuSans-48"/>
      </g>
     </g>
    </g>
    <g id="ytick_2">
     <g id="line2d_19">
      <path clip-path="url(#p87ebe92e4a)" d="M 103.5 247.997777 
L 745.2 247.997777 
" style="fill:none;stroke:#b0b0b0;stroke-linecap:square;stroke-width:0.8;"/>
     </g>
     <g id="line2d_20">
      <g>
       <use style="stroke:#000000;stroke-width:0.8;" x="103.5" xlink:href="#m14784d9b78" y="247.997777"/>
      </g>
     </g>
     <g id="text_11">
      <!-- −100 -->
      <g transform="translate(69.032813 251.796995)scale(0.1 -0.1)">
       <use xlink:href="#DejaVuSans-8722"/>
       <use x="83.789062" xlink:href="#DejaVuSans-49"/>
       <use x="147.412109" xlink:href="#DejaVuSans-48"/>
       <use x="211.035156" xlink:href="#DejaVuSans-48"/>
      </g>
     </g>
    </g>
    <g id="ytick_3">
     <g id="line2d_21">
      <path clip-path="url(#p87ebe92e4a)" d="M 103.5 221.079626 
L 745.2 221.079626 
" style="fill:none;stroke:#b0b0b0;stroke-linecap:square;stroke-width:0.8;"/>
     </g>
     <g id="line2d_22">
      <g>
       <use style="stroke:#000000;stroke-width:0.8;" x="103.5" xlink:href="#m14784d9b78" y="221.079626"/>
      </g>
     </g>
     <g id="text_12">
      <!-- 0 -->
      <g transform="translate(90.1375 224.878845)scale(0.1 -0.1)">
       <use xlink:href="#DejaVuSans-48"/>
      </g>
     </g>
    </g>
    <g id="ytick_4">
     <g id="line2d_23">
      <path clip-path="url(#p87ebe92e4a)" d="M 103.5 194.161475 
L 745.2 194.161475 
" style="fill:none;stroke:#b0b0b0;stroke-linecap:square;stroke-width:0.8;"/>
     </g>
     <g id="line2d_24">
      <g>
       <use style="stroke:#000000;stroke-width:0.8;" x="103.5" xlink:href="#m14784d9b78" y="194.161475"/>
      </g>
     </g>
     <g id="text_13">
      <!-- 100 -->
      <g transform="translate(77.4125 197.960694)scale(0.1 -0.1)">
       <use xlink:href="#DejaVuSans-49"/>
       <use x="63.623047" xlink:href="#DejaVuSans-48"/>
       <use x="127.246094" xlink:href="#DejaVuSans-48"/>
      </g>
     </g>
    </g>
    <g id="ytick_5">
     <g id="line2d_25">
      <path clip-path="url(#p87ebe92e4a)" d="M 103.5 167.243325 
L 745.2 167.243325 
" style="fill:none;stroke:#b0b0b0;stroke-linecap:square;stroke-width:0.8;"/>
     </g>
     <g id="line2d_26">
      <g>
       <use style="stroke:#000000;stroke-width:0.8;" x="103.5" xlink:href="#m14784d9b78" y="167.243325"/>
      </g>
     </g>
     <g id="text_14">
      <!-- 200 -->
      <g transform="translate(77.4125 171.042543)scale(0.1 -0.1)">
       <use xlink:href="#DejaVuSans-50"/>
       <use x="63.623047" xlink:href="#DejaVuSans-48"/>
       <use x="127.246094" xlink:href="#DejaVuSans-48"/>
      </g>
     </g>
    </g>
    <g id="ytick_6">
     <g id="line2d_27">
      <path clip-path="url(#p87ebe92e4a)" d="M 103.5 140.325174 
L 745.2 140.325174 
" style="fill:none;stroke:#b0b0b0;stroke-linecap:square;stroke-width:0.8;"/>
     </g>
     <g id="line2d_28">
      <g>
       <use style="stroke:#000000;stroke-width:0.8;" x="103.5" xlink:href="#m14784d9b78" y="140.325174"/>
      </g>
     </g>
     <g id="text_15">
      <!-- 300 -->
      <g transform="translate(77.4125 144.124393)scale(0.1 -0.1)">
       <use xlink:href="#DejaVuSans-51"/>
       <use x="63.623047" xlink:href="#DejaVuSans-48"/>
       <use x="127.246094" xlink:href="#DejaVuSans-48"/>
      </g>
     </g>
    </g>
    <g id="text_16">
     <!-- $x(t)$ -->
     <defs>
      <path d="M 60.015625 54.6875 
L 34.90625 27.875 
L 50.296875 0 
L 39.984375 0 
L 28.421875 21.6875 
L 8.296875 0 
L -2.59375 0 
L 24.3125 28.8125 
L 10.015625 54.6875 
L 20.3125 54.6875 
L 30.8125 34.90625 
L 49.125 54.6875 
z
" id="DejaVuSans-Oblique-120"/>
      <path d="M 31 75.875 
Q 24.46875 64.65625 21.28125 53.65625 
Q 18.109375 42.671875 18.109375 31.390625 
Q 18.109375 20.125 21.3125 9.0625 
Q 24.515625 -2 31 -13.1875 
L 23.1875 -13.1875 
Q 15.875 -1.703125 12.234375 9.375 
Q 8.59375 20.453125 8.59375 31.390625 
Q 8.59375 42.28125 12.203125 53.3125 
Q 15.828125 64.359375 23.1875 75.875 
z
" id="DejaVuSans-40"/>
      <path d="M 8.015625 75.875 
L 15.828125 75.875 
Q 23.140625 64.359375 26.78125 53.3125 
Q 30.421875 42.28125 30.421875 31.390625 
Q 30.421875 20.453125 26.78125 9.375 
Q 23.140625 -1.703125 15.828125 -13.1875 
L 8.015625 -13.1875 
Q 14.5 -2 17.703125 9.0625 
Q 20.90625 20.125 20.90625 31.390625 
Q 20.90625 42.671875 17.703125 53.65625 
Q 14.5 64.65625 8.015625 75.875 
z
" id="DejaVuSans-41"/>
     </defs>
     <g transform="translate(62.953125 215.406207)rotate(-90)scale(0.1 -0.1)">
      <use transform="translate(0 0.125)" xlink:href="#DejaVuSans-Oblique-120"/>
      <use transform="translate(59.179688 0.125)" xlink:href="#DejaVuSans-40"/>
      <use transform="translate(98.193359 0.125)" xlink:href="#DejaVuSans-Oblique-116"/>
      <use transform="translate(137.402344 0.125)" xlink:href="#DejaVuSans-41"/>
     </g>
    </g>
   </g>
   <g id="line2d_29">
    <path clip-path="url(#p87ebe92e4a)" d="M 132.668182 227.351017 
L 133.47525 236.951913 
L 133.842099 239.879531 
L 134.208949 243.258836 
L 134.942647 250.999958 
L 135.382866 255.221262 
L 135.969825 259.409996 
L 136.997003 267.411416 
L 137.290482 268.568358 
L 137.437222 269.088955 
L 137.877441 271.337967 
L 138.09755 271.295167 
L 138.31766 271.878483 
L 138.684509 272.105134 
L 138.831249 272.088445 
L 139.198098 272.589122 
L 139.344838 272.360049 
L 140.885604 267.54816 
L 141.032344 267.059057 
L 141.399193 265.096455 
L 141.619303 263.8846 
L 144.407357 237.780185 
L 147.122041 199.840667 
L 147.48889 195.290692 
L 148.002479 190.154978 
L 149.323137 178.164826 
L 149.836726 174.198167 
L 150.350314 169.825852 
L 151.377492 162.68662 
L 151.524232 162.404249 
L 151.670972 162.386752 
L 151.817711 162.09792 
L 152.111191 161.419852 
L 152.184561 161.398856 
L 152.40467 161.600203 
L 152.62478 161.569517 
L 152.771519 161.461306 
L 153.211738 161.150401 
L 153.431848 161.255651 
L 153.872067 160.283637 
L 154.018807 160.240029 
L 154.238916 159.623335 
L 154.312286 159.653752 
L 154.605765 160.375966 
L 154.825875 161.602357 
L 155.045984 162.507076 
L 155.192724 162.7951 
L 155.706313 164.10413 
L 156.660121 169.339172 
L 157.760669 178.279766 
L 159.007956 189.34178 
L 160.915572 209.039406 
L 161.575901 216.420902 
L 162.603079 227.354247 
L 163.190037 232.138679 
L 163.630256 236.647738 
L 163.997106 238.200916 
L 166.198201 250.964964 
L 166.56505 251.795928 
L 166.85853 251.689063 
L 167.152009 252.020425 
L 167.518858 251.671566 
L 167.665598 251.700368 
L 167.885707 251.556356 
L 168.032447 251.399423 
L 168.252557 251.612884 
L 168.472666 251.766856 
L 168.766145 251.899293 
L 168.912885 251.766318 
L 169.353104 250.943161 
L 170.380282 249.75957 
L 170.673761 249.177061 
L 170.893871 249.251355 
L 171.18735 248.608011 
L 171.847679 245.780798 
L 173.168336 235.316367 
L 174.122144 227.134595 
L 174.782473 221.577881 
L 179.037924 189.002612 
L 180.065102 184.158152 
L 180.358581 182.829203 
L 180.578691 181.987472 
L 181.01891 180.217604 
L 181.385759 179.612215 
L 181.752608 178.191744 
L 182.046087 177.124709 
L 182.192827 177.163471 
L 182.486306 176.537085 
L 182.706416 176.217028 
L 183.146635 177.119056 
L 183.366745 178.530374 
L 183.733594 180.181803 
L 184.834142 184.106738 
L 184.980881 184.136618 
L 185.127621 183.964072 
L 185.64121 182.556253 
L 185.787949 182.601206 
L 186.668388 184.398531 
L 186.815127 184.506742 
L 186.961867 185.101902 
L 187.622196 189.712174 
L 187.768935 189.793467 
L 187.842305 189.729402 
L 187.989045 190.060226 
L 189.162962 195.578716 
L 189.529812 197.685869 
L 189.823291 199.33649 
L 190.0434 200.005137 
L 190.11677 200.015096 
L 190.26351 200.450901 
L 190.703729 202.728446 
L 190.997208 203.736261 
L 191.657537 206.820005 
L 191.951016 208.099424 
L 192.244496 209.172651 
L 193.418413 217.829528 
L 193.638523 218.302749 
L 193.932002 219.071532 
L 194.152112 220.223629 
L 194.739071 223.239807 
L 195.03255 223.532946 
L 195.692879 226.042525 
L 195.986358 226.22853 
L 196.133098 226.160696 
L 196.499947 226.580619 
L 196.720056 226.638224 
L 198.260823 229.58953 
L 198.407563 229.83933 
L 198.554302 229.936774 
L 199.214631 229.788724 
L 199.361371 229.837985 
L 199.65485 229.597067 
L 200.021699 228.612401 
L 200.315179 227.769325 
L 200.461918 227.669728 
L 200.902138 227.895302 
L 201.195617 227.357477 
L 201.415726 227.503912 
L 201.562466 227.394086 
L 201.929315 226.430147 
L 202.369534 224.804021 
L 202.589644 224.528379 
L 202.809753 224.214245 
L 202.883123 224.247892 
L 203.323342 223.275609 
L 203.470082 223.358247 
L 203.543452 223.450846 
L 203.616822 223.391895 
L 203.910301 223.047074 
L 204.130411 222.799696 
L 204.27715 222.657299 
L 205.157589 220.14745 
L 205.597808 219.597782 
L 205.744547 219.693072 
L 205.891287 219.712991 
L 206.404876 219.15094 
L 207.138574 217.236791 
L 207.211944 217.310546 
L 207.358684 217.444868 
L 208.97282 214.476604 
L 209.11956 214.381582 
L 209.486409 213.243483 
L 209.559779 213.298665 
L 209.633149 213.391802 
L 209.779889 212.921811 
L 209.999998 212.118574 
L 210.146738 212.216017 
L 210.440217 212.555724 
L 210.586957 212.288427 
L 210.880436 211.805246 
L 211.100546 211.765946 
L 211.247286 211.760024 
L 211.467395 211.041309 
L 211.687505 210.971053 
L 211.834244 210.730135 
L 212.127724 210.914794 
L 212.347833 211.270652 
L 212.641313 210.287332 
L 212.934792 209.53147 
L 213.154902 209.321509 
L 213.375011 209.497015 
L 213.595121 209.281131 
L 213.74186 209.319086 
L 213.8886 208.961344 
L 214.328819 207.071151 
L 214.695668 205.934398 
L 215.062518 205.6706 
L 215.209257 205.743817 
L 215.355997 205.686751 
L 215.576106 205.203301 
L 216.089695 203.205436 
L 216.163065 203.25658 
L 216.309805 203.320107 
L 216.750024 202.419156 
L 217.043503 202.786858 
L 217.336983 203.175826 
L 217.483722 203.179325 
L 217.850572 202.638001 
L 218.070681 202.195197 
L 218.364161 200.997609 
L 218.58427 200.972306 
L 218.80438 201.234219 
L 219.097859 201.134891 
L 219.464708 201.532203 
L 219.978297 200.301775 
L 220.125037 200.277817 
L 220.491886 199.456006 
L 220.638626 198.974171 
L 220.711996 198.993822 
L 221.372324 198.642001 
L 222.032653 196.824219 
L 222.106023 196.861366 
L 222.619612 197.567967 
L 223.50005 195.583292 
L 223.57342 195.563373 
L 223.793529 194.875883 
L 224.527228 191.195364 
L 224.747337 190.76925 
L 224.894077 190.752561 
L 225.114186 190.475573 
L 225.187556 190.433581 
L 225.407666 191.185135 
L 225.701145 192.071281 
L 225.847885 192.047324 
L 226.361474 191.405326 
L 226.508213 191.57168 
L 227.095172 192.964425 
L 227.682131 194.940756 
L 228.26909 196.775228 
L 228.415829 197.106321 
L 229.296267 199.522494 
L 229.736487 201.701518 
L 229.956596 202.451189 
L 231.057144 208.484354 
L 231.350623 210.577779 
L 232.524541 219.635467 
L 233.184869 223.002389 
L 233.845198 226.95182 
L 234.065307 228.12599 
L 234.799006 232.746222 
L 235.312595 234.833186 
L 236.266403 238.942241 
L 236.413142 239.682221 
L 236.706622 241.463665 
L 236.853361 241.490852 
L 237.000101 241.577259 
L 237.293581 242.197992 
L 237.58706 242.637834 
L 237.807169 242.856141 
L 238.027279 243.235956 
L 238.320758 243.648611 
L 238.394128 243.595582 
L 238.834347 242.002297 
L 238.907717 242.126928 
L 239.054457 242.281169 
L 239.641416 241.392062 
L 239.934895 240.635932 
L 240.155005 240.11695 
L 240.375114 239.977514 
L 240.521854 239.884915 
L 240.741963 239.239418 
L 241.328922 236.724993 
L 241.989251 232.83209 
L 243.530017 223.321369 
L 244.337086 216.109997 
L 244.997414 210.846422 
L 246.244702 198.44846 
L 247.712099 185.287369 
L 248.152318 180.882213 
L 248.812646 176.089436 
L 250.133303 165.369821 
L 250.573522 162.950418 
L 251.160481 159.512432 
L 251.74744 156.199615 
L 251.96755 155.171611 
L 252.261029 154.141184 
L 252.407769 154.234859 
L 252.627878 154.067697 
L 253.068097 152.967014 
L 253.214837 152.690834 
L 253.288207 152.765666 
L 253.434946 152.605234 
L 254.975713 155.655868 
L 255.195823 156.739055 
L 256.002891 162.625785 
L 257.103439 172.995733 
L 257.837137 179.642363 
L 260.478452 210.337669 
L 262.679547 238.184496 
L 263.559985 245.005017 
L 265.83445 266.64048 
L 266.201299 267.65691 
L 266.348039 268.088138 
L 266.934998 269.416011 
L 267.081738 269.694883 
L 267.301847 270.375374 
L 267.521957 270.151684 
L 268.035546 269.093531 
L 268.182285 268.920986 
L 268.842614 267.052866 
L 269.136093 265.651238 
L 270.310011 259.775813 
L 270.75023 256.343749 
L 272.731216 235.939522 
L 273.831763 222.10117 
L 274.125243 219.259151 
L 275.666009 200.403794 
L 276.399708 191.534264 
L 277.353516 182.551677 
L 278.600803 169.741867 
L 279.701351 160.651877 
L 279.99483 159.476631 
L 280.728529 157.331523 
L 281.242118 155.406606 
L 281.462227 154.996374 
L 281.682337 154.590986 
L 281.902446 154.557877 
L 282.049186 154.215747 
L 282.489405 152.433227 
L 282.709515 151.644256 
L 282.929624 150.950037 
L 283.369843 151.01168 
L 284.176911 152.566203 
L 284.250281 152.544668 
L 284.470391 153.024888 
L 285.130719 156.212536 
L 285.864418 161.217158 
L 286.304637 164.871028 
L 287.258445 172.614842 
L 287.845404 177.679492 
L 288.212253 182.536872 
L 289.166061 195.092574 
L 290.706828 214.873108 
L 291.220417 220.819597 
L 292.100855 231.856846 
L 292.541074 236.989599 
L 294.668799 255.022068 
L 295.329128 258.272435 
L 295.475868 258.593299 
L 295.549237 258.581186 
L 295.622607 258.703394 
L 296.576415 263.057674 
L 296.796525 263.16777 
L 297.090004 262.693741 
L 297.310114 262.926045 
L 297.530223 262.67759 
L 297.603593 262.720928 
L 297.897072 262.189295 
L 297.970442 262.270857 
L 298.484031 262.953501 
L 298.704141 263.465484 
L 298.99762 263.081901 
L 299.657949 260.331135 
L 300.685127 251.962282 
L 300.978606 249.920271 
L 301.712304 244.240003 
L 302.812852 232.422935 
L 303.473181 227.445769 
L 303.9134 222.964166 
L 305.087317 209.02164 
L 306.041125 195.267273 
L 307.141673 180.805227 
L 308.022111 170.923574 
L 308.60907 165.398624 
L 310.003097 155.20795 
L 311.323754 149.565098 
L 311.617233 149.700497 
L 312.571041 150.075736 
L 312.717781 150.437516 
L 312.791151 150.398753 
L 312.864521 150.382064 
L 313.30474 151.30105 
L 313.37811 151.319623 
L 313.598219 152.111017 
L 314.185178 155.265824 
L 314.845507 160.233838 
L 315.212356 162.242201 
L 315.359095 162.612057 
L 316.312903 169.187353 
L 317.413451 179.733346 
L 318.293889 191.098997 
L 319.687916 206.925793 
L 320.201505 212.686008 
L 321.742272 226.768777 
L 322.035751 228.923575 
L 322.255861 230.070827 
L 322.69608 234.873563 
L 323.136299 238.526356 
L 324.163477 247.988624 
L 324.530326 250.251902 
L 324.970545 253.129453 
L 325.410764 254.568228 
L 325.777613 255.868644 
L 326.071093 256.565286 
L 326.291202 256.607278 
L 326.511312 257.579292 
L 326.804791 258.633676 
L 327.024901 258.974729 
L 327.24501 258.997879 
L 327.46512 258.714162 
L 327.61186 258.40864 
L 327.685229 258.474321 
L 327.831969 258.548077 
L 327.978709 258.076201 
L 328.272188 256.797858 
L 328.492298 256.878882 
L 328.565668 256.847657 
L 328.712407 256.258688 
L 329.225996 252.955023 
L 330.399914 247.725903 
L 331.133612 244.853198 
L 331.353722 243.653456 
L 332.454269 235.871957 
L 333.701557 221.57492 
L 334.802104 211.463655 
L 335.682543 202.677301 
L 335.976022 200.012674 
L 337.370049 186.55306 
L 337.883638 182.409818 
L 338.397227 177.569666 
L 339.277665 171.652248 
L 340.158103 167.81722 
L 340.378213 167.515467 
L 340.818432 166.393788 
L 340.965171 166.319494 
L 341.111911 166.331068 
L 341.258651 166.215051 
L 341.55213 165.615046 
L 342.139089 165.824469 
L 342.432568 165.29472 
L 342.505938 165.381396 
L 342.799417 165.065915 
L 342.946157 165.131326 
L 343.533116 165.11706 
L 343.899965 165.446538 
L 344.340184 166.765258 
L 344.560294 167.384376 
L 344.707033 167.638214 
L 344.927143 168.868104 
L 345.954321 175.25632 
L 346.39454 177.193081 
L 347.128238 181.072255 
L 347.274978 181.124207 
L 347.348348 181.232149 
L 347.641827 182.886808 
L 349.255964 195.606172 
L 351.09021 212.908352 
L 351.310319 214.121015 
L 351.750539 217.664251 
L 352.484237 222.592964 
L 353.584785 228.317917 
L 353.951634 230.366657 
L 354.171743 230.923863 
L 354.685332 233.655248 
L 355.56577 236.941146 
L 355.85925 236.491344 
L 356.00599 236.986369 
L 356.226099 237.487046 
L 356.446209 237.409253 
L 356.592948 237.583413 
L 356.813058 238.482479 
L 357.253277 239.943866 
L 357.473386 240.262577 
L 357.620126 240.326911 
L 358.060345 238.463368 
L 358.353825 237.217596 
L 358.720674 236.621359 
L 359.307633 234.688366 
L 360.188071 231.799241 
L 360.33481 231.850655 
L 360.55492 231.173663 
L 362.315796 223.603203 
L 362.535906 222.300902 
L 363.049495 218.771933 
L 363.563084 214.953593 
L 364.150042 212.275776 
L 364.663631 209.92286 
L 364.883741 209.76162 
L 365.03048 209.710745 
L 365.17722 209.360271 
L 365.690809 207.474116 
L 365.910919 207.607091 
L 366.204398 206.903989 
L 366.351138 206.824042 
L 367.011466 205.224566 
L 367.084836 205.27598 
L 367.231576 205.249869 
L 367.818535 203.524146 
L 367.965274 203.396016 
L 368.185384 202.800856 
L 368.405493 201.965855 
L 368.919082 202.068682 
L 369.212562 202.42777 
L 369.652781 201.404342 
L 370.093 201.821573 
L 370.386479 202.526291 
L 370.533219 202.293179 
L 370.753328 202.757248 
L 370.973438 203.54595 
L 371.046808 203.522262 
L 371.487027 202.455227 
L 371.633766 202.629656 
L 371.927246 203.295342 
L 372.147355 203.30907 
L 372.440835 204.130074 
L 372.514205 204.045282 
L 372.734314 203.574483 
L 372.881054 203.612169 
L 373.247903 204.609217 
L 373.394643 205.071402 
L 373.908232 207.158635 
L 374.201711 207.784482 
L 374.49519 207.7293 
L 374.78867 208.004134 
L 375.155519 207.416511 
L 375.375629 207.594171 
L 375.815848 207.443429 
L 376.035957 207.185822 
L 376.182697 207.444506 
L 376.329437 207.615436 
L 376.402806 207.561331 
L 376.916395 205.899404 
L 377.283245 204.399794 
L 377.503354 203.085919 
L 377.650094 202.934908 
L 377.796833 202.794126 
L 378.310422 200.932467 
L 378.603902 199.344027 
L 378.750641 199.231778 
L 378.897381 199.453853 
L 379.044121 199.20809 
L 379.26423 198.085872 
L 379.55771 196.124616 
L 380.071299 194.363631 
L 380.658257 193.086095 
L 380.804997 192.959849 
L 381.025107 193.018531 
L 381.098476 192.946121 
L 381.538696 193.684755 
L 381.758805 193.598348 
L 382.272394 192.49578 
L 382.345764 192.439252 
L 382.785983 191.496848 
L 383.446311 192.169801 
L 383.593051 191.889045 
L 383.813161 191.192134 
L 384.03327 191.068041 
L 384.32675 190.52241 
L 385.207188 188.08901 
L 385.353927 188.06586 
L 385.574037 187.872319 
L 385.794147 187.601522 
L 386.014256 187.167871 
L 386.307735 187.107036 
L 386.454475 187.294386 
L 386.601215 187.501925 
L 387.041434 186.758984 
L 387.261543 186.384014 
L 387.628393 186.585362 
L 389.02242 189.754705 
L 389.169159 189.829806 
L 389.829488 191.928076 
L 389.976228 191.887968 
L 390.343077 192.964425 
L 390.709926 194.666729 
L 391.150145 196.717892 
L 391.370255 197.635263 
L 392.030583 200.401641 
L 392.177323 200.863556 
L 392.911021 204.866555 
L 393.204501 207.16025 
L 393.79146 211.649929 
L 394.158309 214.068794 
L 394.451788 215.063419 
L 395.185487 219.680151 
L 395.845815 221.877211 
L 396.286034 222.313554 
L 396.579514 223.040075 
L 397.166472 225.871057 
L 397.313212 226.384386 
L 398.19365 230.959395 
L 398.48713 231.491836 
L 398.633869 231.512832 
L 398.780609 231.915527 
L 399.147458 233.158877 
L 399.367568 233.996031 
L 399.587677 234.590653 
L 399.734417 234.84503 
L 399.954527 235.259031 
L 400.468116 234.400073 
L 400.614855 234.368309 
L 400.761595 234.832109 
L 401.055074 236.35783 
L 401.421923 237.034552 
L 401.495293 236.874389 
L 401.788773 236.411666 
L 402.155622 235.968863 
L 402.522471 235.551093 
L 403.03606 233.944887 
L 403.476279 231.24365 
L 404.430087 228.003513 
L 404.870306 225.008061 
L 405.237155 224.205092 
L 405.457265 223.743715 
L 406.044224 221.88071 
L 406.484443 219.220928 
L 406.631182 218.873683 
L 406.998032 216.854553 
L 407.87847 209.619762 
L 408.465429 205.912594 
L 410.373045 192.417717 
L 410.813264 188.534774 
L 411.106743 186.353866 
L 412.50077 174.947838 
L 413.968167 164.790274 
L 414.188276 164.07775 
L 414.555126 162.760914 
L 415.582304 159.126425 
L 415.802413 159.133155 
L 416.095892 159.809877 
L 416.609481 161.08822 
L 416.976331 162.696849 
L 417.12307 162.851898 
L 417.34318 163.826873 
L 417.563289 164.440338 
L 417.636659 164.461334 
L 417.783399 164.966318 
L 418.223618 167.219637 
L 418.517097 168.115742 
L 419.250796 172.337585 
L 419.617645 175.415406 
L 420.718193 185.929636 
L 422.919288 209.025947 
L 425.193753 229.324655 
L 425.340493 230.202187 
L 425.780712 233.899934 
L 426.58778 237.71612 
L 426.80789 238.627568 
L 428.201917 248.432505 
L 428.788876 252.09122 
L 428.862245 252.059995 
L 429.008985 252.107909 
L 429.669314 253.301729 
L 429.742684 253.236049 
L 430.036163 253.714653 
L 430.549752 255.050332 
L 430.769861 254.772806 
L 431.21008 255.367159 
L 431.35682 255.322744 
L 431.50356 255.094747 
L 431.723669 254.152881 
L 432.163888 252.218812 
L 432.457368 250.869136 
L 432.897587 248.251884 
L 435.392162 225.64306 
L 436.419339 214.501099 
L 437.226408 205.916632 
L 438.473695 189.491984 
L 438.987284 183.426786 
L 440.381311 167.373608 
L 443.022626 145.427779 
L 443.389475 143.39142 
L 443.609584 142.628829 
L 443.903064 142.208368 
L 444.123173 142.047128 
L 444.710132 140.690453 
L 444.856872 140.913066 
L 444.930241 140.842272 
L 445.5172 140.549671 
L 446.177529 141.805403 
L 447.791665 152.621385 
L 448.672104 160.672066 
L 450.43298 179.597948 
L 451.240048 189.58862 
L 451.460158 191.207477 
L 452.193856 200.640674 
L 452.634075 205.810843 
L 454.028102 222.498212 
L 454.468321 227.989246 
L 456.082458 246.165996 
L 456.302567 247.469912 
L 456.742786 250.424448 
L 456.889526 251.125666 
L 457.256375 253.535917 
L 457.476485 254.369303 
L 458.063444 257.205399 
L 458.210183 256.900147 
L 458.283553 256.966904 
L 458.723772 257.370946 
L 459.017252 256.921143 
L 459.457471 256.557748 
L 460.631388 252.84412 
L 460.851498 253.08773 
L 461.144977 251.577352 
L 461.511826 249.012591 
L 461.805306 247.072061 
L 462.465634 241.774838 
L 462.759114 240.46204 
L 463.346073 234.9667 
L 464.226511 225.563651 
L 465.106949 215.226543 
L 465.473798 210.447764 
L 466.060757 202.921987 
L 467.161304 190.01608 
L 467.601524 184.937971 
L 468.115112 178.761063 
L 468.628701 172.839339 
L 469.21566 166.405901 
L 470.756427 154.174562 
L 471.930344 148.708563 
L 472.150454 148.165893 
L 472.443933 147.639912 
L 472.517303 147.734395 
L 472.957522 147.887828 
L 473.177632 147.27544 
L 473.324371 146.873822 
L 473.397741 146.897779 
L 473.91133 148.335746 
L 474.351549 149.746527 
L 474.645029 150.25851 
L 474.865138 150.55784 
L 475.011878 150.78799 
L 475.231987 151.872253 
L 475.452097 153.052345 
L 476.185795 155.664482 
L 477.066234 159.936393 
L 477.653192 165.573053 
L 478.093411 169.549941 
L 478.460261 172.380923 
L 479.634178 183.842133 
L 481.541794 199.220472 
L 483.009191 216.011476 
L 483.155931 216.646476 
L 484.476588 227.161513 
L 485.210286 229.833139 
L 485.577136 231.386317 
L 485.797245 232.190362 
L 486.164094 234.011644 
L 486.384204 234.766698 
L 486.751053 235.734136 
L 487.044532 235.929024 
L 487.704861 237.655285 
L 487.851601 238.011681 
L 488.29182 239.515598 
L 488.511929 239.410348 
L 488.878779 239.718023 
L 489.098888 239.623002 
L 489.465737 240.225699 
L 489.612477 240.1331 
L 489.759217 240.232159 
L 489.905956 240.017083 
L 490.052696 239.502677 
L 491.960312 228.455738 
L 492.400531 225.772536 
L 494.234777 205.758622 
L 494.895106 197.847647 
L 497.68316 174.117413 
L 498.123379 170.188439 
L 498.563598 166.605903 
L 499.150557 164.142892 
L 499.517406 162.212053 
L 500.104365 159.355768 
L 500.324474 158.612827 
L 500.471214 158.330187 
L 500.691324 157.751177 
L 500.911433 157.783479 
L 501.278282 158.099767 
L 501.571762 157.847544 
L 501.865241 158.156295 
L 502.15872 158.063428 
L 502.892419 159.857792 
L 503.259268 160.95686 
L 503.626117 161.747177 
L 503.699487 161.782439 
L 503.846227 162.493348 
L 504.286446 164.286635 
L 504.800035 165.873191 
L 504.946775 166.089074 
L 506.414171 173.911489 
L 506.707651 176.708554 
L 506.854391 177.125785 
L 507.514719 182.143329 
L 508.468527 193.892563 
L 508.762006 195.400249 
L 510.082664 209.115585 
L 510.302773 209.881137 
L 511.77017 217.764117 
L 512.357129 221.794034 
L 512.577238 222.277753 
L 513.897896 228.40217 
L 513.971265 228.468389 
L 514.631594 231.156166 
L 514.925073 232.653623 
L 515.218553 232.901808 
L 515.438662 232.936264 
L 515.585402 232.933303 
L 516.245731 233.470858 
L 516.53921 233.119846 
L 516.979429 232.284575 
L 517.126169 232.314724 
L 517.199539 232.346487 
L 517.346278 231.831274 
L 517.859867 229.509314 
L 518.153347 228.649817 
L 519.327264 222.59781 
L 520.574552 212.260701 
L 520.794661 211.235389 
L 523.582715 191.004784 
L 524.096304 186.669346 
L 524.903372 181.922331 
L 525.343591 179.744383 
L 525.85718 176.583923 
L 526.297399 174.148369 
L 526.590879 172.706363 
L 526.884358 171.993571 
L 527.031098 172.106358 
L 527.324577 171.921161 
L 527.397947 171.928967 
L 527.764796 172.682406 
L 527.838166 172.638799 
L 527.984906 172.593576 
L 528.131646 172.142159 
L 528.498495 170.921959 
L 528.718604 171.04982 
L 529.085454 171.395449 
L 529.378933 170.757489 
L 529.525673 170.674581 
L 529.672412 170.554526 
L 529.892522 170.577138 
L 530.039261 170.666506 
L 530.186001 170.816171 
L 530.332741 170.700154 
L 530.479481 170.955607 
L 530.69959 171.370415 
L 530.77296 171.318463 
L 530.9197 171.753192 
L 531.286549 173.327903 
L 531.653398 174.470041 
L 532.313727 177.744364 
L 532.753946 178.619473 
L 533.047425 179.905084 
L 533.340905 181.131475 
L 533.707754 183.297848 
L 534.221343 186.718068 
L 535.028411 191.772759 
L 535.46863 194.881805 
L 535.835479 196.97173 
L 537.522986 209.739009 
L 537.743095 210.614387 
L 538.183314 212.847786 
L 538.330054 213.433525 
L 538.770273 215.668001 
L 539.357232 216.510001 
L 540.751259 222.425533 
L 541.705067 224.773335 
L 542.071916 223.745061 
L 542.658875 221.85433 
L 542.805615 221.496319 
L 543.245834 219.913262 
L 543.539313 218.60181 
L 544.126272 216.32938 
L 544.199642 216.324535 
L 544.346381 215.80986 
L 544.93334 212.404983 
L 545.226819 211.12664 
L 545.667038 208.622983 
L 545.887148 207.937646 
L 546.400737 204.948386 
L 546.767586 203.073537 
L 546.914326 202.618351 
L 547.354545 199.856279 
L 549.115421 188.04621 
L 550.362709 181.111017 
L 550.802928 179.718272 
L 551.756736 174.684847 
L 552.050215 173.918488 
L 552.490434 173.358859 
L 552.930653 173.73033 
L 553.297502 173.708795 
L 553.444242 173.511754 
L 553.664352 173.207848 
L 553.884461 173.393584 
L 554.47142 174.745682 
L 554.691529 175.623483 
L 555.058379 176.169922 
L 555.718707 179.065776 
L 556.232296 181.941173 
L 556.305666 182.07388 
L 556.379036 182.008738 
L 556.599145 181.740364 
L 556.672515 181.79097 
L 557.112734 182.990712 
L 558.726871 188.399107 
L 558.873611 188.749043 
L 559.16709 189.191577 
L 559.533939 190.365208 
L 561.001336 197.998658 
L 561.148076 198.746444 
L 561.661665 202.230729 
L 562.615473 206.16051 
L 562.982322 207.792288 
L 563.71602 209.691364 
L 563.78939 209.621915 
L 563.86276 209.624338 
L 564.08287 210.334708 
L 564.596458 211.817629 
L 564.743198 211.966755 
L 564.889938 212.019246 
L 565.183417 212.259086 
L 565.403527 212.58668 
L 565.623636 213.22464 
L 565.697006 213.128543 
L 565.917116 212.786144 
L 566.137225 212.471201 
L 566.504074 210.948172 
L 566.797554 210.056105 
L 566.944293 210.049914 
L 567.164403 209.350849 
L 567.531252 208.279507 
L 567.751362 207.746797 
L 567.971471 207.2262 
L 568.191581 207.375595 
L 568.925279 206.15728 
L 569.145389 206.041801 
L 569.292128 205.605189 
L 569.805717 203.887272 
L 570.392676 201.655219 
L 570.832895 199.524109 
L 571.493224 196.265667 
L 571.713333 195.06431 
L 572.080183 193.546665 
L 572.373662 192.876941 
L 572.960621 190.12456 
L 573.32747 189.01634 
L 574.281278 184.22787 
L 574.574757 183.354107 
L 575.822045 177.777204 
L 576.188894 176.787693 
L 576.335634 176.602496 
L 576.995962 174.892386 
L 577.069332 174.93384 
L 577.729661 174.249312 
L 577.94977 174.332489 
L 578.09651 174.341103 
L 578.316619 174.472194 
L 578.389989 174.488614 
L 578.976948 175.748653 
L 579.123688 175.947039 
L 579.343797 176.524165 
L 579.490537 176.71986 
L 580.004126 177.720138 
L 580.297605 178.741413 
L 580.444345 178.940876 
L 580.811194 180.897018 
L 581.104674 182.846431 
L 581.324783 184.022754 
L 581.691632 186.49707 
L 581.838372 186.956025 
L 582.425331 190.446232 
L 582.71881 191.909772 
L 583.232399 195.507652 
L 583.452509 196.369302 
L 583.672618 196.971192 
L 584.186207 199.249006 
L 585.066645 203.546219 
L 585.360125 204.682165 
L 585.800344 205.621878 
L 586.020453 205.510437 
L 586.167193 205.758353 
L 586.313932 205.717168 
L 586.827521 205.857143 
L 587.047631 206.757285 
L 587.63459 209.36054 
L 588.074809 210.425422 
L 589.248726 213.391802 
L 589.615576 214.698678 
L 589.688945 214.717252 
L 589.909055 214.484141 
L 590.129164 214.567587 
L 590.349274 214.468528 
L 590.642753 214.73744 
L 591.082972 214.513481 
L 591.303082 214.742286 
L 591.743301 215.756562 
L 591.963411 215.606089 
L 592.18352 215.564366 
L 592.40363 216.029242 
L 592.770479 215.55979 
L 593.357438 215.852121 
L 594.164506 213.163536 
L 595.118314 208.611946 
L 595.265054 208.25205 
L 595.778642 206.069258 
L 596.365601 203.918497 
L 597.906368 194.755559 
L 598.273217 192.846254 
L 598.493327 191.746648 
L 599.520505 185.30002 
L 599.960724 182.349252 
L 600.694422 178.052577 
L 602.088449 173.075411 
L 602.895517 170.892887 
L 603.115627 170.115491 
L 603.409106 169.696645 
L 603.849325 168.31359 
L 604.069435 167.642521 
L 604.656394 165.266456 
L 605.023243 164.455681 
L 605.096613 164.553932 
L 605.316722 164.645723 
L 605.830311 164.818538 
L 606.050421 164.660528 
L 606.123791 164.652183 
L 606.3439 164.812077 
L 606.49064 164.797272 
L 606.710749 165.343711 
L 607.004229 166.365255 
L 607.150968 166.521111 
L 608.104776 169.36932 
L 608.544995 171.837176 
L 609.498803 178.654198 
L 610.159132 182.720723 
L 612.433597 197.679947 
L 612.580337 198.16555 
L 614.414583 210.89299 
L 614.928172 212.40579 
L 615.148282 213.313201 
L 615.368391 213.558425 
L 615.73524 215.009852 
L 616.02872 216.463432 
L 616.468939 219.10491 
L 616.615678 219.413931 
L 616.982528 220.482581 
L 617.055897 220.500078 
L 617.349377 219.824971 
L 617.862966 220.544762 
L 618.449925 220.313805 
L 618.816774 220.442473 
L 618.963513 220.179214 
L 619.110253 220.244894 
L 619.256993 220.235204 
L 619.403733 220.156064 
L 619.770582 219.728604 
L 620.284171 220.367641 
L 620.50428 220.32511 
L 620.57765 220.355258 
L 620.72439 219.859964 
L 621.017869 218.573277 
L 621.237979 218.154161 
L 621.384718 218.000997 
L 621.604828 217.387532 
L 621.898307 215.940951 
L 622.265156 215.295992 
L 622.338526 215.382399 
L 622.485266 215.386975 
L 622.632006 215.19128 
L 623.072225 213.541198 
L 623.439074 212.062045 
L 623.805923 210.369163 
L 624.026033 210.119362 
L 624.319512 208.957306 
L 626.080388 196.578725 
L 626.447238 195.226357 
L 626.740717 194.425004 
L 626.960827 192.924586 
L 627.694525 186.88846 
L 628.428223 182.048038 
L 628.721703 179.948423 
L 629.82225 172.351044 
L 630.1891 170.678081 
L 631.142908 164.392423 
L 631.436387 163.56469 
L 631.803236 161.884998 
L 631.949976 162.01905 
L 632.096716 161.533985 
L 632.536935 160.217418 
L 632.903784 160.188346 
L 633.270633 159.686323 
L 633.344003 159.742313 
L 633.490743 160.076636 
L 633.710852 160.567354 
L 633.857592 160.617422 
L 634.004332 160.912445 
L 634.444551 162.324302 
L 634.73803 162.491194 
L 634.95814 163.991881 
L 635.104879 164.733745 
L 635.251619 164.819345 
L 635.545098 165.447076 
L 635.691838 166.092304 
L 636.352167 170.788445 
L 637.085865 174.088341 
L 637.599454 178.049616 
L 638.993481 187.96061 
L 639.213591 189.192923 
L 639.36033 189.739361 
L 640.020659 193.522977 
L 640.167399 194.372514 
L 640.680988 198.613199 
L 640.974467 200.692357 
L 642.001645 208.786914 
L 643.102192 215.346867 
L 643.762521 220.147181 
L 643.982631 221.435484 
L 644.27611 222.815577 
L 644.569589 223.673728 
L 644.716329 223.735909 
L 645.303288 225.3833 
L 645.670137 226.713595 
L 645.890247 227.013732 
L 645.963616 227.079412 
L 646.183726 227.801896 
L 646.257096 227.730024 
L 646.403835 227.450883 
L 646.697315 227.668112 
L 646.917424 227.833659 
L 647.064164 227.891533 
L 647.210904 227.545904 
L 647.357643 226.702828 
L 647.651123 224.770104 
L 647.797862 224.762567 
L 647.871232 224.769028 
L 648.091342 224.278579 
L 648.75167 222.381388 
L 649.11852 220.190519 
L 649.632109 217.415258 
L 650.292437 213.53393 
L 650.585917 212.444283 
L 651.026136 209.397418 
L 651.466355 206.475991 
L 652.126683 202.116058 
L 652.273423 201.612689 
L 652.933752 196.108196 
L 653.300601 193.760126 
L 653.74082 191.619056 
L 654.694628 183.223285 
L 655.795176 174.958067 
L 656.455504 169.350208 
L 657.115833 164.889602 
L 657.409312 163.70601 
L 657.482682 163.677477 
L 658.58323 160.064792 
L 658.950079 159.754695 
L 659.096819 159.386993 
L 659.683777 157.447002 
L 659.757147 157.31618 
L 659.830517 157.375669 
L 660.197366 157.97702 
L 660.344106 157.916455 
L 660.417476 157.935836 
L 660.931065 157.133136 
L 661.151174 157.302721 
L 661.591393 158.056429 
L 661.664763 158.201249 
L 661.738133 158.126416 
L 661.811503 158.057775 
L 661.958243 158.454818 
L 662.178352 159.86479 
L 662.471831 161.634659 
L 662.691941 161.73614 
L 662.838681 162.109226 
L 664.672927 173.596547 
L 665.113146 177.05849 
L 665.920214 183.062314 
L 666.140324 184.193684 
L 666.653913 188.133694 
L 666.874022 189.159544 
L 667.240871 189.745283 
L 668.194679 196.547231 
L 668.634898 199.435818 
L 668.855008 199.522225 
L 669.001748 200.444441 
L 669.808816 205.845029 
L 670.249035 210.091368 
L 670.909364 212.683586 
L 671.202843 213.199068 
L 671.422953 214.752784 
L 671.863172 217.41795 
L 672.303391 219.106525 
L 672.5235 219.380283 
L 672.67024 219.370054 
L 672.963719 219.948794 
L 673.037089 219.885806 
L 673.257199 219.723489 
L 673.550678 220.133184 
L 673.770788 219.8352 
L 674.064267 220.020666 
L 674.211007 219.882576 
L 674.577856 219.475573 
L 674.871335 219.763328 
L 675.311554 219.538293 
L 675.458294 219.154171 
L 675.751773 218.238415 
L 675.898513 218.131012 
L 676.045253 217.754427 
L 676.778951 213.571346 
L 677.072431 212.599601 
L 677.29254 211.758409 
L 678.172978 205.954317 
L 678.833307 201.049292 
L 680.007224 193.436031 
L 680.594183 190.237347 
L 681.181142 185.963014 
L 682.942018 169.62262 
L 685.143114 160.396962 
L 685.216483 160.378119 
L 685.289853 160.48633 
L 685.363223 160.422265 
L 686.096921 158.157641 
L 686.90399 156.489793 
L 687.050729 156.083059 
L 687.197469 156.166775 
L 687.270839 156.284407 
L 687.711058 157.840276 
L 687.931168 158.530458 
L 688.884976 161.375975 
L 689.031715 161.403701 
L 689.471934 164.484214 
L 690.058893 167.258399 
L 690.425742 169.194891 
L 690.939331 172.547277 
L 691.45292 175.158338 
L 692.113249 179.078966 
L 692.700208 184.249943 
L 692.993687 186.409855 
L 694.901303 202.694798 
L 695.194782 203.615668 
L 695.928481 207.829705 
L 696.29533 209.934973 
L 696.588809 211.074418 
L 696.808919 212.264739 
L 697.249138 215.058574 
L 698.129576 219.413931 
L 698.863274 220.804253 
L 698.936644 220.906542 
L 699.010014 220.835478 
L 699.083384 220.766837 
L 699.303494 220.39429 
L 699.450233 220.554722 
L 699.670343 221.218524 
L 699.743713 221.168725 
L 700.257302 219.023887 
L 700.404041 218.824423 
L 700.84426 217.101392 
L 700.991 217.036789 
L 701.21111 216.328572 
L 702.091548 212.17564 
L 702.311657 211.842663 
L 702.531767 211.708341 
L 702.971986 210.339015 
L 704.145903 202.882687 
L 705.173081 198.164204 
L 705.68667 194.667267 
L 705.90678 193.475601 
L 706.346999 190.892266 
L 706.787218 188.685785 
L 708.254615 180.64991 
L 708.914943 175.455245 
L 709.208423 173.213232 
L 710.088861 169.814546 
L 710.52908 168.378463 
L 711.262778 167.180874 
L 711.629627 166.924075 
L 711.996477 166.10684 
L 712.289956 165.706298 
L 712.510066 165.09741 
L 712.950285 164.240067 
L 713.023655 164.244104 
L 713.243764 164.104937 
L 713.537243 164.110052 
L 714.050832 163.450288 
L 714.124202 163.482321 
L 714.491051 163.998611 
L 714.784531 164.06133 
L 714.931271 164.047602 
L 715.00464 164.023914 
L 715.22475 164.444644 
L 715.518229 164.383809 
L 715.664969 164.631187 
L 715.885078 165.247882 
L 716.031818 165.53133 
L 716.031818 165.53133 
" style="fill:none;stroke:#000000;stroke-linecap:square;stroke-width:1.5;"/>
   </g>
   <g id="patch_3">
    <path d="M 103.5 279.192414 
L 103.5 133.92 
" style="fill:none;stroke:#000000;stroke-linecap:square;stroke-linejoin:miter;stroke-width:0.8;"/>
   </g>
   <g id="patch_4">
    <path d="M 745.2 279.192414 
L 745.2 133.92 
" style="fill:none;stroke:#000000;stroke-linecap:square;stroke-linejoin:miter;stroke-width:0.8;"/>
   </g>
   <g id="patch_5">
    <path d="M 103.5 279.192414 
L 745.2 279.192414 
" style="fill:none;stroke:#000000;stroke-linecap:square;stroke-linejoin:miter;stroke-width:0.8;"/>
   </g>
   <g id="patch_6">
    <path d="M 103.5 133.92 
L 745.2 133.92 
" style="fill:none;stroke:#000000;stroke-linecap:square;stroke-linejoin:miter;stroke-width:0.8;"/>
   </g>
   <g id="legend_1">
    <g id="patch_7">
     <path d="M 110.5 156.598125 
L 160.2 156.598125 
Q 162.2 156.598125 162.2 154.598125 
L 162.2 140.92 
Q 162.2 138.92 160.2 138.92 
L 110.5 138.92 
Q 108.5 138.92 108.5 140.92 
L 108.5 154.598125 
Q 108.5 156.598125 110.5 156.598125 
z
" style="fill:#ffffff;opacity:0.8;stroke:#cccccc;stroke-linejoin:miter;"/>
    </g>
    <g id="line2d_30">
     <path d="M 112.5 147.018438 
L 132.5 147.018438 
" style="fill:none;stroke:#000000;stroke-linecap:square;stroke-width:1.5;"/>
    </g>
    <g id="line2d_31"/>
    <g id="text_17">
     <!-- $x(t)$ -->
     <g transform="translate(140.5 150.518438)scale(0.1 -0.1)">
      <use transform="translate(0 0.125)" xlink:href="#DejaVuSans-Oblique-120"/>
      <use transform="translate(59.179688 0.125)" xlink:href="#DejaVuSans-40"/>
      <use transform="translate(98.193359 0.125)" xlink:href="#DejaVuSans-Oblique-116"/>
      <use transform="translate(137.402344 0.125)" xlink:href="#DejaVuSans-41"/>
     </g>
    </g>
   </g>
  </g>
  <g id="axes_2">
   <g id="patch_8">
    <path d="M 103.5 453.51931 
L 745.2 453.51931 
L 745.2 308.246897 
L 103.5 308.246897 
z
" style="fill:#ffffff;"/>
   </g>
   <g id="matplotlib.axis_3">
    <g id="xtick_9">
     <g id="line2d_32">
      <path clip-path="url(#p38ab172471)" d="M 173.094966 453.51931 
L 173.094966 308.246897 
" style="fill:none;stroke:#b0b0b0;stroke-linecap:square;stroke-width:0.8;"/>
     </g>
     <g id="line2d_33">
      <g>
       <use style="stroke:#000000;stroke-width:0.8;" x="173.094966" xlink:href="#m7b33657305" y="453.51931"/>
      </g>
     </g>
     <g id="text_18">
      <!-- 51000 -->
      <g transform="translate(157.188716 468.117748)scale(0.1 -0.1)">
       <use xlink:href="#DejaVuSans-53"/>
       <use x="63.623047" xlink:href="#DejaVuSans-49"/>
       <use x="127.246094" xlink:href="#DejaVuSans-48"/>
       <use x="190.869141" xlink:href="#DejaVuSans-48"/>
       <use x="254.492188" xlink:href="#DejaVuSans-48"/>
      </g>
     </g>
    </g>
    <g id="xtick_10">
     <g id="line2d_34">
      <path clip-path="url(#p38ab172471)" d="M 246.464811 453.51931 
L 246.464811 308.246897 
" style="fill:none;stroke:#b0b0b0;stroke-linecap:square;stroke-width:0.8;"/>
     </g>
     <g id="line2d_35">
      <g>
       <use style="stroke:#000000;stroke-width:0.8;" x="246.464811" xlink:href="#m7b33657305" y="453.51931"/>
      </g>
     </g>
     <g id="text_19">
      <!-- 52000 -->
      <g transform="translate(230.558561 468.117748)scale(0.1 -0.1)">
       <use xlink:href="#DejaVuSans-53"/>
       <use x="63.623047" xlink:href="#DejaVuSans-50"/>
       <use x="127.246094" xlink:href="#DejaVuSans-48"/>
       <use x="190.869141" xlink:href="#DejaVuSans-48"/>
       <use x="254.492188" xlink:href="#DejaVuSans-48"/>
      </g>
     </g>
    </g>
    <g id="xtick_11">
     <g id="line2d_36">
      <path clip-path="url(#p38ab172471)" d="M 319.834656 453.51931 
L 319.834656 308.246897 
" style="fill:none;stroke:#b0b0b0;stroke-linecap:square;stroke-width:0.8;"/>
     </g>
     <g id="line2d_37">
      <g>
       <use style="stroke:#000000;stroke-width:0.8;" x="319.834656" xlink:href="#m7b33657305" y="453.51931"/>
      </g>
     </g>
     <g id="text_20">
      <!-- 53000 -->
      <g transform="translate(303.928406 468.117748)scale(0.1 -0.1)">
       <use xlink:href="#DejaVuSans-53"/>
       <use x="63.623047" xlink:href="#DejaVuSans-51"/>
       <use x="127.246094" xlink:href="#DejaVuSans-48"/>
       <use x="190.869141" xlink:href="#DejaVuSans-48"/>
       <use x="254.492188" xlink:href="#DejaVuSans-48"/>
      </g>
     </g>
    </g>
    <g id="xtick_12">
     <g id="line2d_38">
      <path clip-path="url(#p38ab172471)" d="M 393.204501 453.51931 
L 393.204501 308.246897 
" style="fill:none;stroke:#b0b0b0;stroke-linecap:square;stroke-width:0.8;"/>
     </g>
     <g id="line2d_39">
      <g>
       <use style="stroke:#000000;stroke-width:0.8;" x="393.204501" xlink:href="#m7b33657305" y="453.51931"/>
      </g>
     </g>
     <g id="text_21">
      <!-- 54000 -->
      <g transform="translate(377.298251 468.117748)scale(0.1 -0.1)">
       <use xlink:href="#DejaVuSans-53"/>
       <use x="63.623047" xlink:href="#DejaVuSans-52"/>
       <use x="127.246094" xlink:href="#DejaVuSans-48"/>
       <use x="190.869141" xlink:href="#DejaVuSans-48"/>
       <use x="254.492188" xlink:href="#DejaVuSans-48"/>
      </g>
     </g>
    </g>
    <g id="xtick_13">
     <g id="line2d_40">
      <path clip-path="url(#p38ab172471)" d="M 466.574346 453.51931 
L 466.574346 308.246897 
" style="fill:none;stroke:#b0b0b0;stroke-linecap:square;stroke-width:0.8;"/>
     </g>
     <g id="line2d_41">
      <g>
       <use style="stroke:#000000;stroke-width:0.8;" x="466.574346" xlink:href="#m7b33657305" y="453.51931"/>
      </g>
     </g>
     <g id="text_22">
      <!-- 55000 -->
      <g transform="translate(450.668096 468.117748)scale(0.1 -0.1)">
       <use xlink:href="#DejaVuSans-53"/>
       <use x="63.623047" xlink:href="#DejaVuSans-53"/>
       <use x="127.246094" xlink:href="#DejaVuSans-48"/>
       <use x="190.869141" xlink:href="#DejaVuSans-48"/>
       <use x="254.492188" xlink:href="#DejaVuSans-48"/>
      </g>
     </g>
    </g>
    <g id="xtick_14">
     <g id="line2d_42">
      <path clip-path="url(#p38ab172471)" d="M 539.944191 453.51931 
L 539.944191 308.246897 
" style="fill:none;stroke:#b0b0b0;stroke-linecap:square;stroke-width:0.8;"/>
     </g>
     <g id="line2d_43">
      <g>
       <use style="stroke:#000000;stroke-width:0.8;" x="539.944191" xlink:href="#m7b33657305" y="453.51931"/>
      </g>
     </g>
     <g id="text_23">
      <!-- 56000 -->
      <g transform="translate(524.037941 468.117748)scale(0.1 -0.1)">
       <use xlink:href="#DejaVuSans-53"/>
       <use x="63.623047" xlink:href="#DejaVuSans-54"/>
       <use x="127.246094" xlink:href="#DejaVuSans-48"/>
       <use x="190.869141" xlink:href="#DejaVuSans-48"/>
       <use x="254.492188" xlink:href="#DejaVuSans-48"/>
      </g>
     </g>
    </g>
    <g id="xtick_15">
     <g id="line2d_44">
      <path clip-path="url(#p38ab172471)" d="M 613.314035 453.51931 
L 613.314035 308.246897 
" style="fill:none;stroke:#b0b0b0;stroke-linecap:square;stroke-width:0.8;"/>
     </g>
     <g id="line2d_45">
      <g>
       <use style="stroke:#000000;stroke-width:0.8;" x="613.314035" xlink:href="#m7b33657305" y="453.51931"/>
      </g>
     </g>
     <g id="text_24">
      <!-- 57000 -->
      <g transform="translate(597.407785 468.117748)scale(0.1 -0.1)">
       <use xlink:href="#DejaVuSans-53"/>
       <use x="63.623047" xlink:href="#DejaVuSans-55"/>
       <use x="127.246094" xlink:href="#DejaVuSans-48"/>
       <use x="190.869141" xlink:href="#DejaVuSans-48"/>
       <use x="254.492188" xlink:href="#DejaVuSans-48"/>
      </g>
     </g>
    </g>
    <g id="xtick_16">
     <g id="line2d_46">
      <path clip-path="url(#p38ab172471)" d="M 686.68388 453.51931 
L 686.68388 308.246897 
" style="fill:none;stroke:#b0b0b0;stroke-linecap:square;stroke-width:0.8;"/>
     </g>
     <g id="line2d_47">
      <g>
       <use style="stroke:#000000;stroke-width:0.8;" x="686.68388" xlink:href="#m7b33657305" y="453.51931"/>
      </g>
     </g>
     <g id="text_25">
      <!-- 58000 -->
      <g transform="translate(670.77763 468.117748)scale(0.1 -0.1)">
       <use xlink:href="#DejaVuSans-53"/>
       <use x="63.623047" xlink:href="#DejaVuSans-56"/>
       <use x="127.246094" xlink:href="#DejaVuSans-48"/>
       <use x="190.869141" xlink:href="#DejaVuSans-48"/>
       <use x="254.492188" xlink:href="#DejaVuSans-48"/>
      </g>
     </g>
    </g>
    <g id="text_26">
     <!-- $t$ -->
     <g transform="translate(422.35 481.795873)scale(0.1 -0.1)">
      <use transform="translate(0 0.78125)" xlink:href="#DejaVuSans-Oblique-116"/>
     </g>
    </g>
   </g>
   <g id="matplotlib.axis_4">
    <g id="ytick_7">
     <g id="line2d_48">
      <path clip-path="url(#p38ab172471)" d="M 103.5 445.568095 
L 745.2 445.568095 
" style="fill:none;stroke:#b0b0b0;stroke-linecap:square;stroke-width:0.8;"/>
     </g>
     <g id="line2d_49">
      <g>
       <use style="stroke:#000000;stroke-width:0.8;" x="103.5" xlink:href="#m14784d9b78" y="445.568095"/>
      </g>
     </g>
     <g id="text_27">
      <!-- 100 -->
      <g transform="translate(77.4125 449.367314)scale(0.1 -0.1)">
       <use xlink:href="#DejaVuSans-49"/>
       <use x="63.623047" xlink:href="#DejaVuSans-48"/>
       <use x="127.246094" xlink:href="#DejaVuSans-48"/>
      </g>
     </g>
    </g>
    <g id="ytick_8">
     <g id="line2d_50">
      <path clip-path="url(#p38ab172471)" d="M 103.5 416.852201 
L 745.2 416.852201 
" style="fill:none;stroke:#b0b0b0;stroke-linecap:square;stroke-width:0.8;"/>
     </g>
     <g id="line2d_51">
      <g>
       <use style="stroke:#000000;stroke-width:0.8;" x="103.5" xlink:href="#m14784d9b78" y="416.852201"/>
      </g>
     </g>
     <g id="text_28">
      <!-- 200 -->
      <g transform="translate(77.4125 420.65142)scale(0.1 -0.1)">
       <use xlink:href="#DejaVuSans-50"/>
       <use x="63.623047" xlink:href="#DejaVuSans-48"/>
       <use x="127.246094" xlink:href="#DejaVuSans-48"/>
      </g>
     </g>
    </g>
    <g id="ytick_9">
     <g id="line2d_52">
      <path clip-path="url(#p38ab172471)" d="M 103.5 388.136307 
L 745.2 388.136307 
" style="fill:none;stroke:#b0b0b0;stroke-linecap:square;stroke-width:0.8;"/>
     </g>
     <g id="line2d_53">
      <g>
       <use style="stroke:#000000;stroke-width:0.8;" x="103.5" xlink:href="#m14784d9b78" y="388.136307"/>
      </g>
     </g>
     <g id="text_29">
      <!-- 300 -->
      <g transform="translate(77.4125 391.935526)scale(0.1 -0.1)">
       <use xlink:href="#DejaVuSans-51"/>
       <use x="63.623047" xlink:href="#DejaVuSans-48"/>
       <use x="127.246094" xlink:href="#DejaVuSans-48"/>
      </g>
     </g>
    </g>
    <g id="ytick_10">
     <g id="line2d_54">
      <path clip-path="url(#p38ab172471)" d="M 103.5 359.420414 
L 745.2 359.420414 
" style="fill:none;stroke:#b0b0b0;stroke-linecap:square;stroke-width:0.8;"/>
     </g>
     <g id="line2d_55">
      <g>
       <use style="stroke:#000000;stroke-width:0.8;" x="103.5" xlink:href="#m14784d9b78" y="359.420414"/>
      </g>
     </g>
     <g id="text_30">
      <!-- 400 -->
      <g transform="translate(77.4125 363.219633)scale(0.1 -0.1)">
       <use xlink:href="#DejaVuSans-52"/>
       <use x="63.623047" xlink:href="#DejaVuSans-48"/>
       <use x="127.246094" xlink:href="#DejaVuSans-48"/>
      </g>
     </g>
    </g>
    <g id="ytick_11">
     <g id="line2d_56">
      <path clip-path="url(#p38ab172471)" d="M 103.5 330.70452 
L 745.2 330.70452 
" style="fill:none;stroke:#b0b0b0;stroke-linecap:square;stroke-width:0.8;"/>
     </g>
     <g id="line2d_57">
      <g>
       <use style="stroke:#000000;stroke-width:0.8;" x="103.5" xlink:href="#m14784d9b78" y="330.70452"/>
      </g>
     </g>
     <g id="text_31">
      <!-- 500 -->
      <g transform="translate(77.4125 334.503739)scale(0.1 -0.1)">
       <use xlink:href="#DejaVuSans-53"/>
       <use x="63.623047" xlink:href="#DejaVuSans-48"/>
       <use x="127.246094" xlink:href="#DejaVuSans-48"/>
      </g>
     </g>
    </g>
    <g id="text_32">
     <!-- $y(t)$ -->
     <defs>
      <path d="M 24.8125 -5.078125 
Q 18.5625 -15.578125 14.625 -18.1875 
Q 10.6875 -20.796875 4.59375 -20.796875 
L -2.484375 -20.796875 
L -0.984375 -13.28125 
L 4.203125 -13.28125 
Q 7.953125 -13.28125 10.59375 -11.234375 
Q 13.234375 -9.1875 16.5 -3.21875 
L 19.28125 2 
L 7.171875 54.6875 
L 16.703125 54.6875 
L 25.78125 12.796875 
L 50.875 54.6875 
L 60.296875 54.6875 
z
" id="DejaVuSans-Oblique-121"/>
     </defs>
     <g transform="translate(71.3125 389.733103)rotate(-90)scale(0.1 -0.1)">
      <use transform="translate(0 0.125)" xlink:href="#DejaVuSans-Oblique-121"/>
      <use transform="translate(59.179688 0.125)" xlink:href="#DejaVuSans-40"/>
      <use transform="translate(98.193359 0.125)" xlink:href="#DejaVuSans-Oblique-116"/>
      <use transform="translate(137.402344 0.125)" xlink:href="#DejaVuSans-41"/>
     </g>
    </g>
   </g>
   <g id="line2d_58">
    <path clip-path="url(#p38ab172471)" d="M 132.668182 446.916019 
L 132.814922 446.537256 
L 133.768729 441.431857 
L 134.795907 433.710154 
L 135.456236 427.940556 
L 138.02418 397.934458 
L 139.051358 382.594714 
L 140.298646 364.809813 
L 142.719851 337.049584 
L 143.673659 328.482771 
L 144.113878 325.551166 
L 145.507905 320.955474 
L 145.948124 320.235567 
L 146.168233 320.062123 
L 146.388343 320.466155 
L 147.415521 323.323961 
L 148.662808 329.075467 
L 149.323137 334.144684 
L 151.817711 355.34046 
L 152.3313 360.944653 
L 153.211738 370.972531 
L 154.018807 379.343214 
L 155.339464 393.758592 
L 157.540559 412.848631 
L 158.494367 419.407054 
L 158.641107 419.841526 
L 159.521545 424.392133 
L 160.108504 425.767912 
L 160.401983 426.113651 
L 160.695463 426.195779 
L 160.915572 425.93188 
L 161.282421 426.406553 
L 161.355791 426.387314 
L 161.94275 424.908445 
L 162.382969 423.893913 
L 162.529709 423.836768 
L 162.896558 422.617491 
L 163.410147 420.370472 
L 163.776996 418.788514 
L 164.657434 412.067272 
L 165.171023 408.441029 
L 166.71179 395.644652 
L 168.032447 382.008336 
L 168.839515 375.082062 
L 169.940063 365.920831 
L 170.453652 361.869018 
L 170.967241 358.287572 
L 171.847679 353.065012 
L 172.508008 349.523194 
L 172.801487 347.725005 
L 174.195514 340.488599 
L 175.296062 336.947068 
L 175.516171 336.77506 
L 175.662911 336.862644 
L 176.02976 336.878437 
L 176.763459 337.415999 
L 176.983568 337.43811 
L 177.203678 337.521673 
L 177.350417 337.881771 
L 177.790636 339.749165 
L 178.597705 341.387407 
L 180.285211 351.174932 
L 180.431951 351.896562 
L 182.559676 366.033397 
L 184.247183 378.19946 
L 184.540662 379.495408 
L 185.200991 383.909328 
L 186.228169 389.301311 
L 186.595018 391.601454 
L 187.108607 393.289375 
L 187.768935 397.411828 
L 188.869483 401.805934 
L 189.016223 401.787269 
L 189.162962 401.879447 
L 189.749921 403.366069 
L 189.896661 403.596945 
L 190.19014 403.962211 
L 190.33688 404.198543 
L 190.703729 404.896052 
L 191.143948 404.610041 
L 191.804277 405.699522 
L 191.951016 405.496214 
L 192.244496 404.928788 
L 192.537975 404.971 
L 192.684715 405.087299 
L 192.831455 405.037334 
L 193.198304 405.48243 
L 193.271674 405.365556 
L 193.638523 404.728638 
L 194.225482 402.75442 
L 194.372221 402.773947 
L 194.518961 402.442279 
L 195.619509 398.805123 
L 195.839618 397.960589 
L 196.573317 394.339228 
L 197.673864 390.952762 
L 197.967344 389.811018 
L 198.187453 389.346395 
L 198.627672 387.999333 
L 198.994522 386.818248 
L 200.021699 382.81554 
L 200.755398 379.924998 
L 201.562466 377.881 
L 202.589644 374.35354 
L 202.809753 373.850725 
L 203.763561 370.065683 
L 204.35052 369.17147 
L 205.671177 366.326012 
L 206.038027 366.069866 
L 206.698355 364.335139 
L 206.771725 364.410662 
L 206.845095 364.464073 
L 207.065204 364.321643 
L 207.652163 364.360983 
L 208.092382 364.020987 
L 208.605971 364.561133 
L 209.04619 365.380398 
L 209.33967 366.219476 
L 209.486409 365.872875 
L 209.633149 365.591459 
L 210.146738 365.513926 
L 210.440217 365.989462 
L 210.586957 366.016455 
L 210.733697 365.830088 
L 211.027176 365.256058 
L 211.320655 365.362019 
L 211.687505 364.829627 
L 211.980984 364.532991 
L 212.127724 364.541032 
L 212.347833 365.183694 
L 212.567943 365.852774 
L 212.861422 365.582557 
L 213.668491 366.435707 
L 213.8886 366.636431 
L 214.475559 366.281789 
L 214.842408 365.874885 
L 215.135887 366.222922 
L 215.282627 366.379998 
L 215.869586 367.43301 
L 216.016326 367.635457 
L 216.603284 368.45386 
L 216.750024 368.531393 
L 217.630462 370.787887 
L 217.703832 370.753141 
L 218.144051 371.247055 
L 218.217421 371.206278 
L 218.43753 371.648216 
L 218.87775 373.010785 
L 218.951119 373.068791 
L 219.684818 374.90948 
L 220.051667 374.663097 
L 220.565256 375.670451 
L 220.932105 375.444457 
L 221.005475 375.509068 
L 221.592434 376.941129 
L 221.812543 377.219386 
L 222.179393 378.08115 
L 222.619612 379.582991 
L 222.986461 379.683497 
L 224.967447 386.357932 
L 225.627775 389.714533 
L 226.141364 392.702709 
L 228.342459 401.102682 
L 229.222898 403.07288 
L 229.369637 403.227371 
L 229.736487 404.132783 
L 230.176706 404.264302 
L 230.837034 404.838046 
L 231.203883 404.717439 
L 231.350623 404.743857 
L 231.864212 405.427008 
L 232.157691 405.214798 
L 232.451171 404.271768 
L 232.524541 404.312258 
L 232.74465 404.299335 
L 232.89139 404.021078 
L 233.258239 402.929013 
L 233.845198 401.591139 
L 234.285417 399.281233 
L 234.725636 397.632653 
L 235.899554 389.316818 
L 236.339773 386.568132 
L 238.687608 369.864384 
L 240.155005 357.888995 
L 240.741963 354.179476 
L 241.255552 350.983684 
L 241.622401 349.068908 
L 242.13599 345.830617 
L 242.50284 344.542422 
L 244.337086 335.495193 
L 244.703935 334.812042 
L 244.924044 334.84248 
L 245.144154 334.664729 
L 246.171332 333.198208 
L 246.318071 333.266265 
L 247.638729 336.611667 
L 248.372427 338.957468 
L 249.252865 345.002164 
L 250.573522 357.256097 
L 255.489302 412.916401 
L 256.076261 418.502504 
L 257.103439 427.672637 
L 257.763767 431.768385 
L 258.644205 436.613618 
L 259.084424 438.064345 
L 259.377904 438.832782 
L 259.744753 440.195351 
L 260.038232 440.496294 
L 260.184972 440.525584 
L 260.405082 440.422494 
L 260.551821 440.462122 
L 260.698561 440.583303 
L 261.13878 439.832382 
L 261.43226 438.999047 
L 262.239328 435.528157 
L 262.606177 433.779933 
L 262.973026 430.427927 
L 263.413245 427.01131 
L 264.000204 421.641151 
L 265.100752 410.323643 
L 266.05456 398.868873 
L 267.155107 383.636527 
L 267.962176 373.948359 
L 272.217627 324.838437 
L 272.877955 320.353015 
L 273.171435 319.087793 
L 273.464914 318.331703 
L 273.905133 316.484984 
L 274.051873 316.198686 
L 274.418722 315.229525 
L 274.712201 314.850188 
L 274.932311 314.966775 
L 275.152421 315.162043 
L 275.37253 315.539944 
L 275.51927 315.643034 
L 275.739379 315.796951 
L 275.886119 315.931629 
L 276.326338 316.961381 
L 276.546448 317.981369 
L 276.766557 319.03553 
L 277.060036 319.742802 
L 277.646995 322.43664 
L 278.454064 327.799333 
L 279.554611 337.437249 
L 282.782884 375.209274 
L 283.736692 385.577434 
L 285.204089 402.996495 
L 286.964966 419.276397 
L 287.918774 426.047605 
L 288.358993 428.263897 
L 288.799212 430.552554 
L 289.38617 432.019649 
L 289.67965 432.715435 
L 289.973129 432.964402 
L 290.119869 432.947459 
L 290.486718 433.58926 
L 290.780197 433.418974 
L 291.293786 433.596439 
L 291.513896 432.801583 
L 292.761183 425.803232 
L 295.402498 401.840393 
L 296.723155 387.46091 
L 297.090004 383.047564 
L 297.530223 377.621122 
L 301.492195 334.144684 
L 303.473181 320.438588 
L 303.98677 318.800634 
L 304.133509 318.584403 
L 304.793838 316.887006 
L 305.307427 316.92405 
L 305.894385 317.846117 
L 306.041125 317.983954 
L 306.701454 319.343077 
L 306.848193 319.846466 
L 307.802001 325.431995 
L 308.168851 328.166322 
L 310.076467 346.487924 
L 314.111808 394.032829 
L 315.725945 410.068646 
L 316.019424 412.740947 
L 316.679753 419.271515 
L 317.119972 422.408727 
L 318.14715 427.015043 
L 319.100958 428.808063 
L 319.834656 429.868254 
L 319.981396 429.766313 
L 320.274875 430.115785 
L 320.421615 429.935449 
L 321.302053 427.502926 
L 321.742272 425.381109 
L 322.47597 420.832224 
L 323.209669 417.033686 
L 323.943367 411.175356 
L 325.337394 398.978855 
L 326.144463 391.568144 
L 327.171641 379.173503 
L 327.46512 375.870313 
L 328.565668 363.000424 
L 328.932517 359.952232 
L 329.959695 348.670619 
L 330.253174 346.243265 
L 330.840133 343.093992 
L 331.793941 337.254903 
L 332.601009 332.556695 
L 332.967858 330.360504 
L 333.848296 326.893921 
L 334.728735 324.695719 
L 334.875474 324.667865 
L 335.755912 325.761079 
L 335.976022 326.251259 
L 336.269501 326.377035 
L 336.562981 326.975187 
L 336.70972 326.857739 
L 336.85646 326.690038 
L 337.0032 326.883009 
L 337.443419 328.340628 
L 337.883638 330.642494 
L 338.250487 332.922249 
L 346.39454 402.400066 
L 347.128238 406.227608 
L 347.421718 407.666848 
L 347.861937 410.147901 
L 348.595635 412.98417 
L 349.035854 414.220389 
L 349.182594 414.281267 
L 350.209772 415.947363 
L 350.429881 415.898259 
L 350.576621 415.892803 
L 350.94347 415.031039 
L 351.01684 415.04109 
L 351.16358 414.640503 
L 352.190758 410.704128 
L 352.484237 410.101956 
L 352.630977 409.903242 
L 352.924456 408.703779 
L 353.438045 405.549338 
L 354.171743 402.412414 
L 354.611962 399.465589 
L 355.272291 393.597783 
L 356.00599 387.496517 
L 357.033167 380.917993 
L 357.693496 376.852397 
L 358.353825 371.891439 
L 359.821221 362.725613 
L 361.508728 355.252876 
L 362.756015 353.169538 
L 363.122864 352.67103 
L 363.783193 350.93659 
L 364.370152 351.241266 
L 364.516892 351.634961 
L 364.737001 352.141796 
L 364.883741 352.184296 
L 364.957111 352.053064 
L 365.03048 352.102455 
L 365.39733 352.844187 
L 365.690809 352.739087 
L 365.910919 353.351023 
L 365.984288 353.312543 
L 366.204398 353.134792 
L 366.791357 354.526651 
L 366.938096 354.540435 
L 367.084836 354.454574 
L 367.231576 354.688322 
L 367.451685 355.016544 
L 367.598425 354.880718 
L 367.965274 355.88118 
L 368.332123 357.110507 
L 368.625603 357.56106 
L 369.87289 360.804233 
L 370.01963 360.924552 
L 370.386479 361.655372 
L 370.459849 361.696436 
L 370.606589 361.466421 
L 370.973438 362.453674 
L 371.120178 362.854548 
L 371.266917 362.811187 
L 371.340287 362.840477 
L 371.853876 362.004557 
L 372.073986 362.005419 
L 372.294095 362.514264 
L 372.514205 362.965391 
L 372.660944 362.782758 
L 372.881054 362.438454 
L 372.954424 362.448218 
L 373.247903 363.0524 
L 373.468013 363.059005 
L 374.201711 364.561995 
L 374.56856 364.747212 
L 374.935409 365.188001 
L 375.375629 364.663936 
L 375.595738 364.984693 
L 376.109327 364.200749 
L 376.329437 363.770585 
L 376.549546 363.781784 
L 376.696286 363.857307 
L 376.916395 363.798152 
L 377.209875 364.059466 
L 377.429984 363.64366 
L 377.503354 363.691616 
L 377.796833 364.062051 
L 378.016943 364.292065 
L 378.310422 364.150783 
L 378.383792 364.230326 
L 378.530532 364.083013 
L 378.677272 364.289194 
L 378.824011 364.449715 
L 378.970751 364.405206 
L 379.3376 365.347661 
L 379.48434 365.494974 
L 379.924559 365.986303 
L 380.144668 366.248479 
L 381.098476 367.833022 
L 381.538696 369.019563 
L 381.832175 369.516635 
L 382.859353 371.375415 
L 383.372942 373.191982 
L 383.446311 373.25085 
L 385.060448 378.350792 
L 387.334913 389.132175 
L 388.435461 393.806261 
L 388.87568 395.404874 
L 389.09579 396.035763 
L 389.242529 396.017672 
L 389.756118 397.752973 
L 390.122967 399.110948 
L 390.416447 399.928776 
L 390.563186 400.166831 
L 390.930036 400.978917 
L 391.296885 401.300535 
L 391.516994 401.298237 
L 391.810474 401.234201 
L 392.103953 401.11101 
L 392.177323 401.014811 
L 392.250693 401.080858 
L 392.544172 401.509012 
L 392.764282 401.876288 
L 392.984391 401.717202 
L 393.204501 401.532846 
L 393.64472 401.871119 
L 394.084939 401.51734 
L 394.671898 400.109112 
L 394.745268 400.190665 
L 394.818637 400.30639 
L 394.892007 400.231442 
L 396.579514 394.077339 
L 396.799623 392.932436 
L 397.239842 391.515307 
L 397.533322 390.569118 
L 397.753431 389.697878 
L 398.26702 387.228885 
L 398.48713 386.197697 
L 399.074088 382.464631 
L 399.294198 381.303073 
L 399.881157 378.509878 
L 400.027896 378.044107 
L 400.834965 373.405915 
L 401.275184 370.542367 
L 402.96269 358.776316 
L 403.10943 358.203434 
L 403.402909 355.781536 
L 403.843128 352.654088 
L 404.430087 349.49735 
L 405.677374 343.080783 
L 405.970854 341.914056 
L 406.264333 340.327216 
L 406.484443 338.826811 
L 407.218141 336.790567 
L 407.511621 335.544871 
L 407.87847 334.339665 
L 408.465429 333.467276 
L 408.758908 333.477327 
L 409.125757 333.299575 
L 409.272497 333.226637 
L 409.565976 333.42449 
L 410.006195 334.768393 
L 411.546962 340.556943 
L 412.133921 344.163947 
L 414.041537 357.353157 
L 414.848605 365.032648 
L 417.19644 388.422605 
L 417.41655 390.203565 
L 418.076878 396.678137 
L 419.397535 406.422301 
L 420.057864 411.23767 
L 421.085042 417.071016 
L 421.525261 418.507672 
L 421.81874 419.136838 
L 422.11222 419.593707 
L 422.258959 419.702828 
L 422.405699 419.619552 
L 422.552439 419.699095 
L 422.699178 419.624433 
L 423.139398 419.133966 
L 423.432877 418.814645 
L 423.946466 418.175429 
L 424.313315 417.054074 
L 424.680164 415.474125 
L 424.753534 415.414396 
L 424.973644 414.526501 
L 426.73452 404.618943 
L 428.348657 392.244116 
L 428.715506 388.992615 
L 429.302465 383.413692 
L 430.769861 368.200585 
L 431.063341 365.29023 
L 432.017149 354.855735 
L 433.557916 337.644003 
L 434.071504 333.647899 
L 435.172052 326.538993 
L 435.318792 325.750741 
L 435.832381 322.336134 
L 436.12586 321.186924 
L 436.419339 319.878054 
L 437.006298 318.702425 
L 437.226408 318.458627 
L 437.739997 318.544201 
L 437.960106 318.800921 
L 438.106846 318.860075 
L 438.253586 318.798623 
L 438.400325 319.026341 
L 438.840544 320.343539 
L 439.720982 324.78962 
L 440.82153 332.058475 
L 441.922078 341.753535 
L 442.362297 346.75412 
L 442.949256 353.287848 
L 445.297091 382.813529 
L 446.104159 393.649472 
L 448.378624 419.987977 
L 449.479172 429.310592 
L 449.625912 429.956412 
L 450.21287 432.740131 
L 450.726459 434.688217 
L 450.946569 435.307044 
L 451.166678 435.490252 
L 451.606897 434.888367 
L 451.900377 435.354713 
L 452.193856 435.523849 
L 452.340596 435.414442 
L 452.487335 435.651635 
L 452.560705 435.736921 
L 452.707445 435.506046 
L 452.927555 435.736634 
L 453.221034 435.393479 
L 453.954732 433.589547 
L 454.688431 429.43608 
L 455.348759 425.388288 
L 455.568869 424.084873 
L 456.229198 417.586754 
L 456.816156 410.912893 
L 457.843334 397.339464 
L 458.283553 392.263356 
L 459.237361 378.680451 
L 460.117799 367.00141 
L 461.731936 348.079933 
L 462.979223 335.201429 
L 464.226511 325.862159 
L 464.7401 323.177223 
L 465.253689 321.024392 
L 465.400428 321.038463 
L 465.620538 320.218337 
L 465.914017 319.196339 
L 465.987387 319.074583 
L 466.060757 319.121677 
L 466.207496 318.91923 
L 466.427606 318.691226 
L 466.500976 318.71908 
L 467.087935 319.807987 
L 467.381414 320.38891 
L 467.821633 321.98379 
L 468.481962 324.301163 
L 469.28903 328.189008 
L 469.802619 332.730426 
L 471.196646 345.897812 
L 472.443933 358.398128 
L 474.718398 383.690513 
L 475.378727 390.1424 
L 476.626014 401.540025 
L 477.139603 405.772748 
L 477.726562 410.047396 
L 478.460261 413.428979 
L 479.047219 415.92238 
L 479.560808 417.801836 
L 480.001027 418.590374 
L 480.294507 418.8 
L 480.734726 419.205756 
L 480.954835 419.07596 
L 481.101575 418.795693 
L 481.174945 418.831588 
L 481.615164 418.428417 
L 481.835273 418.482115 
L 482.055383 418.219652 
L 482.568972 417.678932 
L 482.715712 417.61748 
L 483.009191 416.773232 
L 483.816259 412.548837 
L 484.183108 410.381362 
L 485.210286 402.197332 
L 485.870615 396.902408 
L 486.310834 393.855078 
L 486.751053 390.304932 
L 487.044532 387.907729 
L 487.631491 382.624866 
L 488.14508 378.127096 
L 491.593463 348.047484 
L 492.180422 344.018931 
L 492.91412 339.526904 
L 493.354339 337.471708 
L 493.574449 336.789131 
L 493.794558 336.719926 
L 494.454887 335.332374 
L 494.821736 335.220956 
L 495.115215 335.380042 
L 495.408695 335.467625 
L 495.555434 335.949478 
L 496.362503 339.186621 
L 496.949461 341.815274 
L 498.930447 352.784458 
L 500.838063 367.248079 
L 502.30546 379.831958 
L 503.406008 388.926569 
L 503.919597 393.696853 
L 505.753843 406.684765 
L 506.340802 409.454125 
L 506.487541 409.950623 
L 506.92776 412.057221 
L 507.954938 416.439554 
L 508.541897 417.992796 
L 508.982116 418.132068 
L 509.128856 418.337674 
L 509.495705 418.310681 
L 510.596253 415.204483 
L 510.963102 413.517424 
L 511.183211 412.709072 
L 511.476691 411.088634 
L 511.99028 409.483128 
L 512.650608 405.657884 
L 513.897896 397.597046 
L 514.704964 392.310737 
L 514.998443 390.021506 
L 516.172361 380.233119 
L 516.46584 377.751779 
L 518.006607 364.215968 
L 520.134332 352.121982 
L 520.574552 350.749363 
L 521.08814 349.199566 
L 521.968579 346.665962 
L 522.262058 346.108587 
L 522.482167 345.664065 
L 522.628907 345.440081 
L 522.775647 345.110997 
L 522.922387 345.148327 
L 523.362606 346.292369 
L 524.022934 347.778703 
L 524.316414 348.340099 
L 524.683263 349.467772 
L 524.976742 350.663215 
L 525.563701 353.19567 
L 525.78381 354.04968 
L 526.444139 357.443612 
L 527.104468 360.865398 
L 528.205015 368.622996 
L 528.865344 372.316434 
L 529.378933 375.532615 
L 529.819152 378.086606 
L 530.259371 381.285557 
L 530.479481 382.279701 
L 531.213179 387.202179 
L 531.800138 389.711087 
L 532.166987 391.600306 
L 532.607206 393.425201 
L 532.827316 393.899587 
L 533.267535 395.000842 
L 533.487644 395.384486 
L 533.634384 395.45082 
L 534.221343 397.661657 
L 534.441452 398.196634 
L 535.61537 401.227596 
L 535.835479 401.087175 
L 535.982219 401.298524 
L 536.275698 400.859171 
L 536.642548 400.688886 
L 537.302876 401.273542 
L 537.522986 400.819543 
L 539.724081 392.423878 
L 541.484957 382.761554 
L 541.925176 379.489665 
L 542.805615 372.041911 
L 543.392573 368.373168 
L 544.7866 362.587203 
L 544.93334 362.493589 
L 545.226819 361.735202 
L 546.547477 358.689881 
L 546.767586 357.909096 
L 547.061066 357.626532 
L 547.427915 356.966641 
L 547.648024 356.929597 
L 547.868134 356.703316 
L 548.455093 357.229678 
L 548.601832 357.161334 
L 548.895312 357.364643 
L 549.042051 357.308073 
L 549.408901 357.734791 
L 550.069229 359.197866 
L 550.802928 360.766615 
L 551.096407 361.605406 
L 551.389886 362.273051 
L 552.050215 365.157849 
L 552.783913 368.921642 
L 553.517612 372.644657 
L 553.957831 374.805815 
L 554.25131 376.194803 
L 554.47142 376.648514 
L 554.691529 378.227601 
L 555.058379 379.936484 
L 555.571968 381.969856 
L 556.525775 384.812443 
L 556.672515 384.819909 
L 556.745885 384.765923 
L 556.892625 384.86327 
L 557.112734 384.913523 
L 557.552953 386.205164 
L 557.626323 386.132512 
L 558.506761 387.255017 
L 558.873611 388.025464 
L 559.02035 387.945634 
L 559.16709 388.05217 
L 559.387199 388.355697 
L 559.533939 388.26639 
L 559.680679 388.368619 
L 560.267638 389.868737 
L 560.927966 390.934671 
L 561.148076 390.845939 
L 561.368185 391.013353 
L 561.808404 391.101511 
L 562.028514 390.612766 
L 563.495911 385.943562 
L 563.64265 385.482097 
L 564.523089 381.458426 
L 565.917116 376.271762 
L 566.210595 375.001945 
L 566.430705 374.200771 
L 567.237773 370.276457 
L 567.751362 367.76554 
L 568.191581 366.085373 
L 568.6318 364.808951 
L 568.998649 363.523341 
L 569.292128 362.996691 
L 569.805717 361.164904 
L 570.245936 360.517361 
L 570.686156 359.543031 
L 570.832895 359.364992 
L 571.126375 358.787228 
L 571.346484 358.08053 
L 571.786703 357.750585 
L 572.006813 357.334204 
L 572.447032 357.4215 
L 572.813881 357.847357 
L 573.40084 359.397441 
L 573.767689 360.029478 
L 573.914429 360.05044 
L 574.721497 362.045621 
L 575.014976 362.973144 
L 575.455195 364.945926 
L 575.528565 364.963156 
L 575.748675 365.653773 
L 577.509551 372.811496 
L 577.656291 373.167574 
L 577.94977 374.403218 
L 579.490537 382.244955 
L 580.077496 384.823642 
L 580.444345 386.544585 
L 580.517715 386.573014 
L 580.811194 387.43765 
L 582.131851 391.929677 
L 582.57207 392.781103 
L 582.79218 392.959429 
L 583.012289 393.204376 
L 583.159029 393.134883 
L 583.305769 393.144072 
L 583.379139 393.199207 
L 583.672618 392.652169 
L 583.819358 392.61972 
L 584.332947 391.947481 
L 584.626426 392.449722 
L 584.773166 392.394874 
L 584.919905 392.159117 
L 585.286755 391.229296 
L 585.506864 390.793389 
L 585.873713 389.915831 
L 586.093823 389.38028 
L 586.313932 388.512198 
L 586.680782 386.630446 
L 586.974261 385.615052 
L 587.26774 385.784189 
L 587.63459 384.916969 
L 588.221548 382.700676 
L 588.808507 380.961929 
L 589.248726 379.008099 
L 589.542206 377.671087 
L 589.982425 376.246779 
L 590.129164 375.915685 
L 590.642753 373.742753 
L 590.862863 372.702089 
L 592.33026 364.110294 
L 592.476999 363.658305 
L 593.284068 359.982958 
L 593.944396 357.560773 
L 594.091136 357.002536 
L 595.044944 352.235984 
L 595.705273 350.559838 
L 595.778642 350.472541 
L 596.659081 347.637421 
L 596.87919 347.161312 
L 597.02593 347.023475 
L 597.686258 345.944619 
L 597.759628 345.995159 
L 597.832998 346.020716 
L 598.199847 345.609505 
L 598.566697 345.610941 
L 598.713436 345.59285 
L 598.933546 346.11433 
L 599.960724 349.280832 
L 600.254203 350.01682 
L 600.547682 350.941759 
L 600.841162 351.869282 
L 603.996065 366.262837 
L 604.362914 367.990672 
L 605.243352 372.003718 
L 607.958037 389.80585 
L 608.251516 391.330089 
L 609.205324 396.283006 
L 610.525981 400.914593 
L 610.819461 401.616122 
L 610.892831 401.601764 
L 611.33305 402.196758 
L 611.406419 402.138464 
L 611.773269 401.648571 
L 611.993378 401.316903 
L 612.140118 401.231904 
L 612.360227 401.347341 
L 612.506967 400.972886 
L 613.754254 396.919351 
L 614.047734 396.016523 
L 614.267843 395.600717 
L 614.414583 395.334521 
L 614.854802 393.999806 
L 615.148282 393.420319 
L 615.368391 392.867825 
L 617.129267 385.709814 
L 617.716226 381.117569 
L 618.963513 374.189859 
L 619.770582 369.129257 
L 620.65102 365.630226 
L 620.871129 364.200174 
L 621.311348 361.675186 
L 621.751568 359.495362 
L 622.118417 357.408578 
L 622.705376 355.017406 
L 622.998855 353.761085 
L 624.612992 346.466387 
L 625.34669 345.199442 
L 625.42006 345.119037 
L 625.860279 343.937378 
L 626.227128 343.07906 
L 626.373868 343.072456 
L 626.520607 343.13362 
L 626.814087 343.55919 
L 627.034196 343.710236 
L 627.694525 344.379316 
L 628.134744 345.147753 
L 628.721703 346.832515 
L 628.868443 346.915216 
L 629.088552 347.761474 
L 629.89562 350.925678 
L 630.1891 352.108773 
L 631.803236 361.122692 
L 634.8114 381.373714 
L 635.545098 387.194139 
L 635.985317 389.843754 
L 636.498906 392.943922 
L 636.865756 394.514969 
L 637.599454 397.462943 
L 637.746194 397.852043 
L 638.259783 399.606297 
L 638.773372 400.889897 
L 638.993481 401.137428 
L 639.140221 401.320636 
L 639.36033 401.222715 
L 639.65381 401.561562 
L 639.800549 401.596595 
L 640.020659 401.867099 
L 640.314138 402.34809 
L 640.607618 402.394036 
L 640.680988 402.529001 
L 640.754357 402.456349 
L 640.974467 402.084191 
L 641.194576 401.884616 
L 641.488056 401.229606 
L 642.001645 400.055413 
L 643.469042 391.180192 
L 643.615781 390.849098 
L 643.982631 388.835252 
L 645.376658 378.830348 
L 645.963616 374.227477 
L 646.990794 365.459941 
L 647.504383 361.006393 
L 648.238082 354.715602 
L 649.04515 348.752459 
L 649.925588 342.86484 
L 650.145698 341.644988 
L 651.026136 336.701835 
L 651.759834 333.821918 
L 651.979944 333.237549 
L 652.273423 332.472845 
L 652.493533 332.004776 
L 652.713642 331.641233 
L 652.933752 331.6688 
L 653.227231 331.421556 
L 653.52071 331.344885 
L 653.74082 332.031194 
L 653.88756 332.427187 
L 654.034299 332.177071 
L 654.181039 332.416275 
L 655.428326 336.566008 
L 657.482682 345.611228 
L 657.849531 347.758315 
L 658.28975 350.857334 
L 659.610407 361.995368 
L 661.518023 376.021933 
L 662.104982 380.625091 
L 662.545201 383.5432 
L 662.912051 385.466591 
L 663.20553 387.523797 
L 663.865858 391.938005 
L 664.379447 394.053792 
L 664.893036 394.898039 
L 665.406625 396.62329 
L 665.626735 396.876277 
L 665.846844 397.207945 
L 666.213694 397.211391 
L 666.653913 397.805523 
L 666.947392 398.010555 
L 667.387611 397.488213 
L 667.460981 397.533584 
L 667.68109 397.94537 
L 667.82783 397.911772 
L 667.97457 398.135756 
L 668.121309 398.334183 
L 668.341419 398.259521 
L 668.634898 398.729601 
L 669.001748 398.164185 
L 669.075117 398.187157 
L 669.515337 397.43997 
L 669.882186 396.444103 
L 670.249035 395.447948 
L 670.909364 392.817572 
L 671.422953 390.435015 
L 672.37676 386.169843 
L 673.403938 378.50471 
L 674.284376 372.869215 
L 674.944705 367.457992 
L 676.265362 359.11459 
L 676.925691 353.728349 
L 677.659389 349.315578 
L 678.539827 345.117601 
L 678.759937 344.557067 
L 679.053416 343.600828 
L 679.420266 343.225224 
L 679.493635 343.190478 
L 679.713745 342.907052 
L 680.080594 342.642291 
L 680.300704 342.819469 
L 680.520813 343.059533 
L 680.740923 342.963909 
L 680.887663 343.144245 
L 681.401251 343.881382 
L 681.474621 343.913831 
L 681.694731 344.586357 
L 682.13495 345.730399 
L 682.501799 346.578379 
L 682.795278 347.768366 
L 683.382237 351.107737 
L 683.749086 353.701356 
L 684.849634 360.403646 
L 687.490949 378.293361 
L 687.784428 380.02378 
L 688.591496 386.51989 
L 689.031715 389.908078 
L 689.251825 390.76094 
L 690.499112 398.45881 
L 690.939331 400.525493 
L 692.406728 405.389965 
L 692.700208 405.966867 
L 692.920317 406.300546 
L 693.067057 406.175632 
L 693.433906 407.119523 
L 693.507276 407.297275 
L 693.580646 407.230367 
L 693.654016 407.263964 
L 694.534454 405.518038 
L 694.681193 405.855737 
L 694.754563 405.806345 
L 695.048043 404.898923 
L 695.488262 402.90604 
L 696.662179 398.190029 
L 697.836097 390.522311 
L 699.083384 381.899503 
L 700.183932 371.855544 
L 700.550781 369.773068 
L 703.485575 351.951123 
L 703.999164 349.440205 
L 704.512753 347.836422 
L 705.026341 346.406371 
L 705.246451 346.43681 
L 705.466561 346.146492 
L 705.68667 345.708862 
L 705.90678 345.686463 
L 706.053519 345.638508 
L 706.493738 345.938589 
L 706.713848 345.948352 
L 707.080697 345.967592 
L 707.374176 346.408668 
L 707.447546 346.436522 
L 707.594286 346.95427 
L 707.961135 348.487986 
L 708.327984 349.688885 
L 708.621464 350.697961 
L 708.768204 351.192736 
L 708.988313 352.135766 
L 709.135053 352.198079 
L 709.281792 352.296862 
L 709.942121 354.383646 
L 710.895929 357.536938 
L 712.436696 365.095823 
L 712.656805 365.963904 
L 713.904093 371.381445 
L 714.344312 372.9456 
L 714.931271 376.39524 
L 715.591599 379.916383 
L 716.031818 381.844655 
L 716.031818 381.844655 
" style="fill:none;stroke:#000000;stroke-linecap:square;stroke-width:1.5;"/>
   </g>
   <g id="patch_9">
    <path d="M 103.5 453.51931 
L 103.5 308.246897 
" style="fill:none;stroke:#000000;stroke-linecap:square;stroke-linejoin:miter;stroke-width:0.8;"/>
   </g>
   <g id="patch_10">
    <path d="M 745.2 453.51931 
L 745.2 308.246897 
" style="fill:none;stroke:#000000;stroke-linecap:square;stroke-linejoin:miter;stroke-width:0.8;"/>
   </g>
   <g id="patch_11">
    <path d="M 103.5 453.51931 
L 745.2 453.51931 
" style="fill:none;stroke:#000000;stroke-linecap:square;stroke-linejoin:miter;stroke-width:0.8;"/>
   </g>
   <g id="patch_12">
    <path d="M 103.5 308.246897 
L 745.2 308.246897 
" style="fill:none;stroke:#000000;stroke-linecap:square;stroke-linejoin:miter;stroke-width:0.8;"/>
   </g>
   <g id="legend_2">
    <g id="patch_13">
     <path d="M 688.5 330.946897 
L 738.2 330.946897 
Q 740.2 330.946897 740.2 328.946897 
L 740.2 315.246897 
Q 740.2 313.246897 738.2 313.246897 
L 688.5 313.246897 
Q 686.5 313.246897 686.5 315.246897 
L 686.5 328.946897 
Q 686.5 330.946897 688.5 330.946897 
z
" style="fill:#ffffff;opacity:0.8;stroke:#cccccc;stroke-linejoin:miter;"/>
    </g>
    <g id="line2d_59">
     <path d="M 690.5 321.346897 
L 710.5 321.346897 
" style="fill:none;stroke:#000000;stroke-linecap:square;stroke-width:1.5;"/>
    </g>
    <g id="line2d_60"/>
    <g id="text_33">
     <!-- $y(t)$ -->
     <g transform="translate(718.5 324.846897)scale(0.1 -0.1)">
      <use transform="translate(0 0.125)" xlink:href="#DejaVuSans-Oblique-121"/>
      <use transform="translate(59.179688 0.125)" xlink:href="#DejaVuSans-40"/>
      <use transform="translate(98.193359 0.125)" xlink:href="#DejaVuSans-Oblique-116"/>
      <use transform="translate(137.402344 0.125)" xlink:href="#DejaVuSans-41"/>
     </g>
    </g>
   </g>
  </g>
 </g>
 <defs>
  <clipPath id="p87ebe92e4a">
   <rect height="145.272414" width="641.7" x="103.5" y="133.92"/>
  </clipPath>
  <clipPath id="p38ab172471">
   <rect height="145.272414" width="641.7" x="103.5" y="308.246897"/>
  </clipPath>
 </defs>
</svg>
