<?xml version="1.0" encoding="utf-8" standalone="no"?>
<!DOCTYPE svg PUBLIC "-//W3C//DTD SVG 1.1//EN"
  "http://www.w3.org/Graphics/SVG/1.1/DTD/svg11.dtd">
<!-- Created with matplotlib (https://matplotlib.org/) -->
<svg height="540pt" version="1.1" viewBox="0 0 828 540" width="828pt" xmlns="http://www.w3.org/2000/svg" xmlns:xlink="http://www.w3.org/1999/xlink">
 <defs>
  <style type="text/css">
*{stroke-linecap:butt;stroke-linejoin:round;}
  </style>
 </defs>
 <g id="figure_1">
  <g id="patch_1">
   <path d="M 0 540 
L 828 540 
L 828 0 
L 0 0 
z
" style="fill:#ffffff;"/>
  </g>
  <g id="axes_1">
   <g id="patch_2">
    <path d="M 103.5 472.5 
L 745.2 472.5 
L 745.2 64.8 
L 103.5 64.8 
z
" style="fill:#ffffff;"/>
   </g>
   <g id="matplotlib.axis_1">
    <g id="xtick_1">
     <g id="line2d_1">
      <path clip-path="url(#p8dc179bd6d)" d="M 179.942037 472.5 
L 179.942037 64.8 
" style="fill:none;stroke:#b0b0b0;stroke-linecap:square;stroke-width:0.8;"/>
     </g>
     <g id="line2d_2">
      <defs>
       <path d="M 0 0 
L 0 3.5 
" id="m9c03527135" style="stroke:#000000;stroke-width:0.8;"/>
      </defs>
      <g>
       <use style="stroke:#000000;stroke-width:0.8;" x="179.942037" xlink:href="#m9c03527135" y="472.5"/>
      </g>
     </g>
     <g id="text_1">
      <!-- 52000 -->
      <defs>
       <path d="M 10.796875 72.90625 
L 49.515625 72.90625 
L 49.515625 64.59375 
L 19.828125 64.59375 
L 19.828125 46.734375 
Q 21.96875 47.46875 24.109375 47.828125 
Q 26.265625 48.1875 28.421875 48.1875 
Q 40.625 48.1875 47.75 41.5 
Q 54.890625 34.8125 54.890625 23.390625 
Q 54.890625 11.625 47.5625 5.09375 
Q 40.234375 -1.421875 26.90625 -1.421875 
Q 22.3125 -1.421875 17.546875 -0.640625 
Q 12.796875 0.140625 7.71875 1.703125 
L 7.71875 11.625 
Q 12.109375 9.234375 16.796875 8.0625 
Q 21.484375 6.890625 26.703125 6.890625 
Q 35.15625 6.890625 40.078125 11.328125 
Q 45.015625 15.765625 45.015625 23.390625 
Q 45.015625 31 40.078125 35.4375 
Q 35.15625 39.890625 26.703125 39.890625 
Q 22.75 39.890625 18.8125 39.015625 
Q 14.890625 38.140625 10.796875 36.28125 
z
" id="DejaVuSans-53"/>
       <path d="M 19.1875 8.296875 
L 53.609375 8.296875 
L 53.609375 0 
L 7.328125 0 
L 7.328125 8.296875 
Q 12.9375 14.109375 22.625 23.890625 
Q 32.328125 33.6875 34.8125 36.53125 
Q 39.546875 41.84375 41.421875 45.53125 
Q 43.3125 49.21875 43.3125 52.78125 
Q 43.3125 58.59375 39.234375 62.25 
Q 35.15625 65.921875 28.609375 65.921875 
Q 23.96875 65.921875 18.8125 64.3125 
Q 13.671875 62.703125 7.8125 59.421875 
L 7.8125 69.390625 
Q 13.765625 71.78125 18.9375 73 
Q 24.125 74.21875 28.421875 74.21875 
Q 39.75 74.21875 46.484375 68.546875 
Q 53.21875 62.890625 53.21875 53.421875 
Q 53.21875 48.921875 51.53125 44.890625 
Q 49.859375 40.875 45.40625 35.40625 
Q 44.1875 33.984375 37.640625 27.21875 
Q 31.109375 20.453125 19.1875 8.296875 
z
" id="DejaVuSans-50"/>
       <path d="M 31.78125 66.40625 
Q 24.171875 66.40625 20.328125 58.90625 
Q 16.5 51.421875 16.5 36.375 
Q 16.5 21.390625 20.328125 13.890625 
Q 24.171875 6.390625 31.78125 6.390625 
Q 39.453125 6.390625 43.28125 13.890625 
Q 47.125 21.390625 47.125 36.375 
Q 47.125 51.421875 43.28125 58.90625 
Q 39.453125 66.40625 31.78125 66.40625 
z
M 31.78125 74.21875 
Q 44.046875 74.21875 50.515625 64.515625 
Q 56.984375 54.828125 56.984375 36.375 
Q 56.984375 17.96875 50.515625 8.265625 
Q 44.046875 -1.421875 31.78125 -1.421875 
Q 19.53125 -1.421875 13.0625 8.265625 
Q 6.59375 17.96875 6.59375 36.375 
Q 6.59375 54.828125 13.0625 64.515625 
Q 19.53125 74.21875 31.78125 74.21875 
z
" id="DejaVuSans-48"/>
      </defs>
      <g transform="translate(164.035787 487.098437)scale(0.1 -0.1)">
       <use xlink:href="#DejaVuSans-53"/>
       <use x="63.623047" xlink:href="#DejaVuSans-50"/>
       <use x="127.246094" xlink:href="#DejaVuSans-48"/>
       <use x="190.869141" xlink:href="#DejaVuSans-48"/>
       <use x="254.492188" xlink:href="#DejaVuSans-48"/>
      </g>
     </g>
    </g>
    <g id="xtick_2">
     <g id="line2d_3">
      <path clip-path="url(#p8dc179bd6d)" d="M 286.414685 472.5 
L 286.414685 64.8 
" style="fill:none;stroke:#b0b0b0;stroke-linecap:square;stroke-width:0.8;"/>
     </g>
     <g id="line2d_4">
      <g>
       <use style="stroke:#000000;stroke-width:0.8;" x="286.414685" xlink:href="#m9c03527135" y="472.5"/>
      </g>
     </g>
     <g id="text_2">
      <!-- 53000 -->
      <defs>
       <path d="M 40.578125 39.3125 
Q 47.65625 37.796875 51.625 33 
Q 55.609375 28.21875 55.609375 21.1875 
Q 55.609375 10.40625 48.1875 4.484375 
Q 40.765625 -1.421875 27.09375 -1.421875 
Q 22.515625 -1.421875 17.65625 -0.515625 
Q 12.796875 0.390625 7.625 2.203125 
L 7.625 11.71875 
Q 11.71875 9.328125 16.59375 8.109375 
Q 21.484375 6.890625 26.8125 6.890625 
Q 36.078125 6.890625 40.9375 10.546875 
Q 45.796875 14.203125 45.796875 21.1875 
Q 45.796875 27.640625 41.28125 31.265625 
Q 36.765625 34.90625 28.71875 34.90625 
L 20.21875 34.90625 
L 20.21875 43.015625 
L 29.109375 43.015625 
Q 36.375 43.015625 40.234375 45.921875 
Q 44.09375 48.828125 44.09375 54.296875 
Q 44.09375 59.90625 40.109375 62.90625 
Q 36.140625 65.921875 28.71875 65.921875 
Q 24.65625 65.921875 20.015625 65.03125 
Q 15.375 64.15625 9.8125 62.3125 
L 9.8125 71.09375 
Q 15.4375 72.65625 20.34375 73.4375 
Q 25.25 74.21875 29.59375 74.21875 
Q 40.828125 74.21875 47.359375 69.109375 
Q 53.90625 64.015625 53.90625 55.328125 
Q 53.90625 49.265625 50.4375 45.09375 
Q 46.96875 40.921875 40.578125 39.3125 
z
" id="DejaVuSans-51"/>
      </defs>
      <g transform="translate(270.508435 487.098437)scale(0.1 -0.1)">
       <use xlink:href="#DejaVuSans-53"/>
       <use x="63.623047" xlink:href="#DejaVuSans-51"/>
       <use x="127.246094" xlink:href="#DejaVuSans-48"/>
       <use x="190.869141" xlink:href="#DejaVuSans-48"/>
       <use x="254.492188" xlink:href="#DejaVuSans-48"/>
      </g>
     </g>
    </g>
    <g id="xtick_3">
     <g id="line2d_5">
      <path clip-path="url(#p8dc179bd6d)" d="M 392.887333 472.5 
L 392.887333 64.8 
" style="fill:none;stroke:#b0b0b0;stroke-linecap:square;stroke-width:0.8;"/>
     </g>
     <g id="line2d_6">
      <g>
       <use style="stroke:#000000;stroke-width:0.8;" x="392.887333" xlink:href="#m9c03527135" y="472.5"/>
      </g>
     </g>
     <g id="text_3">
      <!-- 54000 -->
      <defs>
       <path d="M 37.796875 64.3125 
L 12.890625 25.390625 
L 37.796875 25.390625 
z
M 35.203125 72.90625 
L 47.609375 72.90625 
L 47.609375 25.390625 
L 58.015625 25.390625 
L 58.015625 17.1875 
L 47.609375 17.1875 
L 47.609375 0 
L 37.796875 0 
L 37.796875 17.1875 
L 4.890625 17.1875 
L 4.890625 26.703125 
z
" id="DejaVuSans-52"/>
      </defs>
      <g transform="translate(376.981083 487.098437)scale(0.1 -0.1)">
       <use xlink:href="#DejaVuSans-53"/>
       <use x="63.623047" xlink:href="#DejaVuSans-52"/>
       <use x="127.246094" xlink:href="#DejaVuSans-48"/>
       <use x="190.869141" xlink:href="#DejaVuSans-48"/>
       <use x="254.492188" xlink:href="#DejaVuSans-48"/>
      </g>
     </g>
    </g>
    <g id="xtick_4">
     <g id="line2d_7">
      <path clip-path="url(#p8dc179bd6d)" d="M 499.35998 472.5 
L 499.35998 64.8 
" style="fill:none;stroke:#b0b0b0;stroke-linecap:square;stroke-width:0.8;"/>
     </g>
     <g id="line2d_8">
      <g>
       <use style="stroke:#000000;stroke-width:0.8;" x="499.35998" xlink:href="#m9c03527135" y="472.5"/>
      </g>
     </g>
     <g id="text_4">
      <!-- 55000 -->
      <g transform="translate(483.45373 487.098437)scale(0.1 -0.1)">
       <use xlink:href="#DejaVuSans-53"/>
       <use x="63.623047" xlink:href="#DejaVuSans-53"/>
       <use x="127.246094" xlink:href="#DejaVuSans-48"/>
       <use x="190.869141" xlink:href="#DejaVuSans-48"/>
       <use x="254.492188" xlink:href="#DejaVuSans-48"/>
      </g>
     </g>
    </g>
    <g id="xtick_5">
     <g id="line2d_9">
      <path clip-path="url(#p8dc179bd6d)" d="M 605.832628 472.5 
L 605.832628 64.8 
" style="fill:none;stroke:#b0b0b0;stroke-linecap:square;stroke-width:0.8;"/>
     </g>
     <g id="line2d_10">
      <g>
       <use style="stroke:#000000;stroke-width:0.8;" x="605.832628" xlink:href="#m9c03527135" y="472.5"/>
      </g>
     </g>
     <g id="text_5">
      <!-- 56000 -->
      <defs>
       <path d="M 33.015625 40.375 
Q 26.375 40.375 22.484375 35.828125 
Q 18.609375 31.296875 18.609375 23.390625 
Q 18.609375 15.53125 22.484375 10.953125 
Q 26.375 6.390625 33.015625 6.390625 
Q 39.65625 6.390625 43.53125 10.953125 
Q 47.40625 15.53125 47.40625 23.390625 
Q 47.40625 31.296875 43.53125 35.828125 
Q 39.65625 40.375 33.015625 40.375 
z
M 52.59375 71.296875 
L 52.59375 62.3125 
Q 48.875 64.0625 45.09375 64.984375 
Q 41.3125 65.921875 37.59375 65.921875 
Q 27.828125 65.921875 22.671875 59.328125 
Q 17.53125 52.734375 16.796875 39.40625 
Q 19.671875 43.65625 24.015625 45.921875 
Q 28.375 48.1875 33.59375 48.1875 
Q 44.578125 48.1875 50.953125 41.515625 
Q 57.328125 34.859375 57.328125 23.390625 
Q 57.328125 12.15625 50.6875 5.359375 
Q 44.046875 -1.421875 33.015625 -1.421875 
Q 20.359375 -1.421875 13.671875 8.265625 
Q 6.984375 17.96875 6.984375 36.375 
Q 6.984375 53.65625 15.1875 63.9375 
Q 23.390625 74.21875 37.203125 74.21875 
Q 40.921875 74.21875 44.703125 73.484375 
Q 48.484375 72.75 52.59375 71.296875 
z
" id="DejaVuSans-54"/>
      </defs>
      <g transform="translate(589.926378 487.098437)scale(0.1 -0.1)">
       <use xlink:href="#DejaVuSans-53"/>
       <use x="63.623047" xlink:href="#DejaVuSans-54"/>
       <use x="127.246094" xlink:href="#DejaVuSans-48"/>
       <use x="190.869141" xlink:href="#DejaVuSans-48"/>
       <use x="254.492188" xlink:href="#DejaVuSans-48"/>
      </g>
     </g>
    </g>
    <g id="xtick_6">
     <g id="line2d_11">
      <path clip-path="url(#p8dc179bd6d)" d="M 712.305276 472.5 
L 712.305276 64.8 
" style="fill:none;stroke:#b0b0b0;stroke-linecap:square;stroke-width:0.8;"/>
     </g>
     <g id="line2d_12">
      <g>
       <use style="stroke:#000000;stroke-width:0.8;" x="712.305276" xlink:href="#m9c03527135" y="472.5"/>
      </g>
     </g>
     <g id="text_6">
      <!-- 57000 -->
      <defs>
       <path d="M 8.203125 72.90625 
L 55.078125 72.90625 
L 55.078125 68.703125 
L 28.609375 0 
L 18.3125 0 
L 43.21875 64.59375 
L 8.203125 64.59375 
z
" id="DejaVuSans-55"/>
      </defs>
      <g transform="translate(696.399026 487.098437)scale(0.1 -0.1)">
       <use xlink:href="#DejaVuSans-53"/>
       <use x="63.623047" xlink:href="#DejaVuSans-55"/>
       <use x="127.246094" xlink:href="#DejaVuSans-48"/>
       <use x="190.869141" xlink:href="#DejaVuSans-48"/>
       <use x="254.492188" xlink:href="#DejaVuSans-48"/>
      </g>
     </g>
    </g>
    <g id="text_7">
     <!-- $t$ -->
     <defs>
      <path d="M 42.28125 54.6875 
L 40.921875 47.703125 
L 23 47.703125 
L 17.1875 18.015625 
Q 16.890625 16.359375 16.75 15.234375 
Q 16.609375 14.109375 16.609375 13.484375 
Q 16.609375 10.359375 18.484375 8.9375 
Q 20.359375 7.515625 24.515625 7.515625 
L 33.59375 7.515625 
L 32.078125 0 
L 23.484375 0 
Q 15.484375 0 11.546875 3.125 
Q 7.625 6.25 7.625 12.59375 
Q 7.625 13.71875 7.765625 15.0625 
Q 7.90625 16.40625 8.203125 18.015625 
L 14.015625 47.703125 
L 6.390625 47.703125 
L 7.8125 54.6875 
L 15.28125 54.6875 
L 18.3125 70.21875 
L 27.296875 70.21875 
L 24.3125 54.6875 
z
" id="DejaVuSans-Oblique-116"/>
     </defs>
     <g transform="translate(422.35 500.776563)scale(0.1 -0.1)">
      <use transform="translate(0 0.78125)" xlink:href="#DejaVuSans-Oblique-116"/>
     </g>
    </g>
   </g>
   <g id="matplotlib.axis_2">
    <g id="ytick_1">
     <g id="line2d_13">
      <path clip-path="url(#p8dc179bd6d)" d="M 103.5 466.928269 
L 745.2 466.928269 
" style="fill:none;stroke:#b0b0b0;stroke-linecap:square;stroke-width:0.8;"/>
     </g>
     <g id="line2d_14">
      <defs>
       <path d="M 0 0 
L -3.5 0 
" id="m915ef4bbae" style="stroke:#000000;stroke-width:0.8;"/>
      </defs>
      <g>
       <use style="stroke:#000000;stroke-width:0.8;" x="103.5" xlink:href="#m915ef4bbae" y="466.928269"/>
      </g>
     </g>
     <g id="text_8">
      <!-- −200 -->
      <defs>
       <path d="M 10.59375 35.5 
L 73.1875 35.5 
L 73.1875 27.203125 
L 10.59375 27.203125 
z
" id="DejaVuSans-8722"/>
      </defs>
      <g transform="translate(69.032813 470.727488)scale(0.1 -0.1)">
       <use xlink:href="#DejaVuSans-8722"/>
       <use x="83.789062" xlink:href="#DejaVuSans-50"/>
       <use x="147.412109" xlink:href="#DejaVuSans-48"/>
       <use x="211.035156" xlink:href="#DejaVuSans-48"/>
      </g>
     </g>
    </g>
    <g id="ytick_2">
     <g id="line2d_15">
      <path clip-path="url(#p8dc179bd6d)" d="M 103.5 390.095882 
L 745.2 390.095882 
" style="fill:none;stroke:#b0b0b0;stroke-linecap:square;stroke-width:0.8;"/>
     </g>
     <g id="line2d_16">
      <g>
       <use style="stroke:#000000;stroke-width:0.8;" x="103.5" xlink:href="#m915ef4bbae" y="390.095882"/>
      </g>
     </g>
     <g id="text_9">
      <!-- −100 -->
      <defs>
       <path d="M 12.40625 8.296875 
L 28.515625 8.296875 
L 28.515625 63.921875 
L 10.984375 60.40625 
L 10.984375 69.390625 
L 28.421875 72.90625 
L 38.28125 72.90625 
L 38.28125 8.296875 
L 54.390625 8.296875 
L 54.390625 0 
L 12.40625 0 
z
" id="DejaVuSans-49"/>
      </defs>
      <g transform="translate(69.032813 393.8951)scale(0.1 -0.1)">
       <use xlink:href="#DejaVuSans-8722"/>
       <use x="83.789062" xlink:href="#DejaVuSans-49"/>
       <use x="147.412109" xlink:href="#DejaVuSans-48"/>
       <use x="211.035156" xlink:href="#DejaVuSans-48"/>
      </g>
     </g>
    </g>
    <g id="ytick_3">
     <g id="line2d_17">
      <path clip-path="url(#p8dc179bd6d)" d="M 103.5 313.263494 
L 745.2 313.263494 
" style="fill:none;stroke:#b0b0b0;stroke-linecap:square;stroke-width:0.8;"/>
     </g>
     <g id="line2d_18">
      <g>
       <use style="stroke:#000000;stroke-width:0.8;" x="103.5" xlink:href="#m915ef4bbae" y="313.263494"/>
      </g>
     </g>
     <g id="text_10">
      <!-- 0 -->
      <g transform="translate(90.1375 317.062713)scale(0.1 -0.1)">
       <use xlink:href="#DejaVuSans-48"/>
      </g>
     </g>
    </g>
    <g id="ytick_4">
     <g id="line2d_19">
      <path clip-path="url(#p8dc179bd6d)" d="M 103.5 236.431107 
L 745.2 236.431107 
" style="fill:none;stroke:#b0b0b0;stroke-linecap:square;stroke-width:0.8;"/>
     </g>
     <g id="line2d_20">
      <g>
       <use style="stroke:#000000;stroke-width:0.8;" x="103.5" xlink:href="#m915ef4bbae" y="236.431107"/>
      </g>
     </g>
     <g id="text_11">
      <!-- 100 -->
      <g transform="translate(77.4125 240.230325)scale(0.1 -0.1)">
       <use xlink:href="#DejaVuSans-49"/>
       <use x="63.623047" xlink:href="#DejaVuSans-48"/>
       <use x="127.246094" xlink:href="#DejaVuSans-48"/>
      </g>
     </g>
    </g>
    <g id="ytick_5">
     <g id="line2d_21">
      <path clip-path="url(#p8dc179bd6d)" d="M 103.5 159.598719 
L 745.2 159.598719 
" style="fill:none;stroke:#b0b0b0;stroke-linecap:square;stroke-width:0.8;"/>
     </g>
     <g id="line2d_22">
      <g>
       <use style="stroke:#000000;stroke-width:0.8;" x="103.5" xlink:href="#m915ef4bbae" y="159.598719"/>
      </g>
     </g>
     <g id="text_12">
      <!-- 200 -->
      <g transform="translate(77.4125 163.397938)scale(0.1 -0.1)">
       <use xlink:href="#DejaVuSans-50"/>
       <use x="63.623047" xlink:href="#DejaVuSans-48"/>
       <use x="127.246094" xlink:href="#DejaVuSans-48"/>
      </g>
     </g>
    </g>
    <g id="ytick_6">
     <g id="line2d_23">
      <path clip-path="url(#p8dc179bd6d)" d="M 103.5 82.766332 
L 745.2 82.766332 
" style="fill:none;stroke:#b0b0b0;stroke-linecap:square;stroke-width:0.8;"/>
     </g>
     <g id="line2d_24">
      <g>
       <use style="stroke:#000000;stroke-width:0.8;" x="103.5" xlink:href="#m915ef4bbae" y="82.766332"/>
      </g>
     </g>
     <g id="text_13">
      <!-- 300 -->
      <g transform="translate(77.4125 86.565551)scale(0.1 -0.1)">
       <use xlink:href="#DejaVuSans-51"/>
       <use x="63.623047" xlink:href="#DejaVuSans-48"/>
       <use x="127.246094" xlink:href="#DejaVuSans-48"/>
      </g>
     </g>
    </g>
    <g id="text_14">
     <!-- $x$ -->
     <defs>
      <path d="M 60.015625 54.6875 
L 34.90625 27.875 
L 50.296875 0 
L 39.984375 0 
L 28.421875 21.6875 
L 8.296875 0 
L -2.59375 0 
L 24.3125 28.8125 
L 10.015625 54.6875 
L 20.3125 54.6875 
L 30.8125 34.90625 
L 49.125 54.6875 
z
" id="DejaVuSans-Oblique-120"/>
     </defs>
     <g transform="translate(62.953125 271.65)rotate(-90)scale(0.1 -0.1)">
      <use transform="translate(0 0.3125)" xlink:href="#DejaVuSans-Oblique-120"/>
     </g>
    </g>
   </g>
   <g id="line2d_25">
    <path clip-path="url(#p8dc179bd6d)" d="M 132.668182 278.674322 
L 132.9876 275.960602 
L 133.307018 273.279151 
L 133.732908 270.357216 
L 133.945854 269.823999 
L 134.052326 269.776363 
L 134.265272 269.137117 
L 134.371744 269.281562 
L 134.584689 269.490546 
L 134.691162 269.476716 
L 134.797635 269.327662 
L 135.117053 267.947752 
L 135.862361 262.245252 
L 135.968834 262.391234 
L 136.181779 262.572558 
L 136.820615 260.000978 
L 137.140033 260.620247 
L 137.565924 262.106186 
L 137.885342 262.170725 
L 138.204759 261.022081 
L 138.311232 260.959078 
L 138.737123 259.361733 
L 139.056541 256.383709 
L 139.269486 255.816686 
L 139.375959 255.704511 
L 139.588904 256.207763 
L 139.801849 256.618816 
L 140.014795 256.31917 
L 140.334212 256.514324 
L 140.760103 257.469351 
L 141.398939 253.928915 
L 141.505412 253.957343 
L 141.611884 254.084116 
L 142.037775 253.275839 
L 142.463665 250.167969 
L 142.570138 250.224057 
L 142.889556 249.852188 
L 142.996029 250.008926 
L 143.102501 249.987413 
L 143.208974 249.779197 
L 143.315447 249.838358 
L 143.421919 249.66318 
L 143.741337 247.977478 
L 144.486646 244.031366 
L 144.593118 244.137395 
L 145.231954 246.188052 
L 145.338427 246.154245 
L 146.509626 240.537029 
L 146.722571 240.432537 
L 146.935517 239.40913 
L 147.254935 235.829509 
L 147.787298 230.43818 
L 148.319661 226.722566 
L 148.639079 226.701053 
L 148.852024 226.041831 
L 149.06497 225.790589 
L 149.277915 227.023749 
L 149.703805 230.16312 
L 149.916751 230.605675 
L 150.236169 229.831205 
L 150.662059 228.495089 
L 150.875005 228.666426 
L 151.194423 230.083983 
L 151.407368 231.075889 
L 151.51384 231.067438 
L 151.726786 232.158458 
L 152.152676 234.70622 
L 152.897985 240.360315 
L 153.217403 243.151636 
L 153.536821 243.891531 
L 153.643293 244.152762 
L 154.175657 246.917959 
L 154.495075 248.217963 
L 154.920965 250.829496 
L 155.240383 254.417569 
L 155.559801 257.51084 
L 155.879219 259.139687 
L 156.198637 262.581778 
L 156.837473 270.540077 
L 157.263363 274.775078 
L 157.582781 277.312852 
L 157.902199 281.398798 
L 159.179871 302.748982 
L 159.499289 306.45384 
L 159.818707 310.068035 
L 160.35107 314.999906 
L 161.096379 324.519439 
L 162.161105 336.600563 
L 162.906414 345.538475 
L 163.651722 351.719641 
L 164.077613 355.647312 
L 165.035867 364.178012 
L 165.142339 364.248698 
L 165.355285 366.36082 
L 165.781175 371.445588 
L 165.887648 371.603094 
L 166.100593 371.518579 
L 166.420011 372.496655 
L 166.952374 374.39672 
L 167.271792 375.379406 
L 167.378265 375.420127 
L 167.59121 376.082422 
L 168.017101 377.613692 
L 168.123573 377.682073 
L 168.230046 377.530713 
L 168.868882 372.983004 
L 169.1883 373.778987 
L 169.614191 372.488203 
L 169.827136 371.885837 
L 169.933608 371.726026 
L 170.465972 369.082992 
L 170.678917 367.832929 
L 170.998335 367.098411 
L 171.21128 367.215197 
L 171.424226 366.531388 
L 171.850116 363.516485 
L 173.979569 341.001523 
L 174.724878 331.177734 
L 174.937823 329.303023 
L 175.683131 319.662095 
L 176.747858 299.991467 
L 176.960803 297.619652 
L 179.090256 259.294889 
L 179.729092 246.898751 
L 181.6456 213.671817 
L 182.284436 199.983359 
L 183.775053 178.318162 
L 184.626834 163.461083 
L 187.28865 130.370911 
L 188.353377 122.201323 
L 188.566322 122.4687 
L 188.88574 121.991571 
L 189.098685 120.780692 
L 189.524576 118.849894 
L 189.737521 118.061594 
L 189.843994 118.275188 
L 190.056939 117.817267 
L 190.376357 119.091916 
L 190.482829 119.950134 
L 190.589302 119.894815 
L 190.695775 119.662013 
L 191.015193 120.869049 
L 191.334611 122.788322 
L 191.547556 122.785249 
L 191.760501 123.374554 
L 192.50581 128.303351 
L 193.570536 142.806233 
L 193.996427 150.955076 
L 194.848208 166.535915 
L 196.12588 187.744728 
L 199.533005 265.843313 
L 200.065368 277.920596 
L 200.491258 288.758572 
L 201.023622 303.453535 
L 201.555985 316.704817 
L 202.407766 338.951634 
L 203.79191 367.019274 
L 204.111328 371.133648 
L 206.98609 425.960472 
L 207.518453 436.197619 
L 208.157289 444.091378 
L 208.476707 445.893866 
L 208.689652 446.548478 
L 209.00907 448.467751 
L 209.647906 451.229876 
L 209.860851 452.025859 
L 210.180269 453.968182 
L 210.393215 453.664694 
L 210.819105 452.041994 
L 211.138523 450.573727 
L 211.564414 449.276028 
L 211.777359 448.335599 
L 212.416195 444.48476 
L 212.735613 441.114123 
L 213.055031 438.66778 
L 213.374449 436.08237 
L 213.800339 430.974553 
L 214.013285 429.684537 
L 214.758593 420.998636 
L 215.078011 416.331837 
L 215.716847 404.237651 
L 216.036265 399.246619 
L 216.781573 384.557035 
L 217.633355 366.508339 
L 219.762808 314.674137 
L 220.188698 305.659393 
L 221.572843 272.927259 
L 223.06346 235.526021 
L 227.748256 145.544539 
L 228.174147 140.784773 
L 228.493565 137.99883 
L 228.919455 136.28931 
L 229.132401 135.4042 
L 229.664764 131.307498 
L 230.090654 127.96452 
L 231.048908 123.485192 
L 231.261854 123.658065 
L 231.474799 123.048016 
L 231.687744 121.353862 
L 232.007162 118.941325 
L 232.858943 113.092843 
L 232.965416 113.092075 
L 233.178361 112.816247 
L 233.391306 113.040597 
L 233.604252 113.695209 
L 234.668978 117.70586 
L 234.775451 117.644394 
L 235.094869 119.015084 
L 235.94665 126.702933 
L 236.691959 135.163715 
L 236.904904 138.0311 
L 237.863158 154.351067 
L 239.034357 173.036704 
L 240.205556 194.479086 
L 240.844392 211.014953 
L 244.357989 299.565048 
L 245.422716 326.092198 
L 245.848606 336.337028 
L 246.274497 347.208811 
L 246.700387 357.028759 
L 247.339223 368.263959 
L 249.255731 403.37636 
L 250.00104 411.374611 
L 250.639875 417.073269 
L 250.959293 420.108917 
L 251.065766 420.338646 
L 251.172239 420.304071 
L 251.278711 420.65289 
L 252.662856 433.081297 
L 252.875801 433.392468 
L 252.982274 433.395542 
L 253.301692 432.274557 
L 253.408164 432.042523 
L 253.62111 432.729405 
L 253.727582 432.705587 
L 254.047 431.996424 
L 254.153473 432.120124 
L 254.366418 431.469354 
L 254.579363 430.602684 
L 255.324672 432.193115 
L 255.750562 434.245308 
L 256.06998 433.667528 
L 256.282926 432.311437 
L 256.708816 429.675318 
L 256.921762 427.82673 
L 257.24118 423.433454 
L 257.880015 412.42491 
L 260.328886 374.715574 
L 260.86125 364.721986 
L 261.500085 349.530686 
L 262.138921 339.768363 
L 262.777757 329.692563 
L 263.736011 308.732688 
L 266.610773 233.707399 
L 268.52728 184.481656 
L 269.485534 165.691528 
L 271.72146 130.624458 
L 272.466768 121.827149 
L 273.212077 114.829255 
L 273.957385 109.379534 
L 274.063858 109.139817 
L 274.276803 109.354948 
L 274.809166 109.875103 
L 274.915639 110.083319 
L 275.022112 109.851285 
L 275.34153 110.223922 
L 275.554475 110.286156 
L 275.873893 110.597328 
L 276.086838 111.629955 
L 276.299783 111.47168 
L 276.832147 113.932621 
L 277.045092 114.147752 
L 277.258037 115.496929 
L 278.003346 122.689977 
L 278.216291 125.41138 
L 278.9616 136.691143 
L 279.706908 145.32403 
L 279.813381 145.606005 
L 280.026326 147.687394 
L 281.410471 167.023033 
L 281.942834 176.983584 
L 282.688142 190.764241 
L 283.00756 198.313023 
L 283.752869 218.700497 
L 288.22472 312.604272 
L 288.757083 321.028175 
L 289.395919 333.519585 
L 290.141228 343.152829 
L 290.886536 358.499331 
L 291.205954 363.061638 
L 292.057735 377.897972 
L 292.377153 384.776775 
L 292.803044 391.070885 
L 293.122462 394.676628 
L 293.548352 400.802475 
L 294.293661 407.788844 
L 294.932497 411.685782 
L 295.358387 414.540106 
L 295.784278 414.669952 
L 295.997223 416.235028 
L 296.423114 419.893018 
L 296.742532 421.440422 
L 296.849004 421.427361 
L 297.06195 421.800766 
L 297.700786 419.811576 
L 298.020204 420.209567 
L 298.126676 419.843845 
L 298.659039 415.213926 
L 298.871985 415.612686 
L 299.08493 415.356066 
L 299.191403 414.832837 
L 299.723766 408.173774 
L 300.149657 403.21578 
L 301.001438 394.758839 
L 301.320856 391.01326 
L 301.853219 388.355628 
L 302.385582 383.818675 
L 303.024418 379.045079 
L 304.621508 357.800156 
L 307.709215 293.082699 
L 308.135105 285.81666 
L 309.306304 262.207604 
L 309.732195 255.254273 
L 311.861648 214.714432 
L 312.500484 204.926755 
L 313.56521 186.232666 
L 314.629937 172.183096 
L 315.1623 166.002699 
L 315.481718 163.003162 
L 315.694663 162.525265 
L 316.014081 161.063913 
L 316.227026 160.375495 
L 316.75939 157.591089 
L 316.972335 156.877316 
L 317.291753 156.99487 
L 317.504698 156.663722 
L 317.930589 154.951128 
L 318.143534 155.080975 
L 318.356479 154.974178 
L 318.462952 155.012594 
L 318.675897 155.760941 
L 318.888843 155.110171 
L 319.101788 154.076007 
L 319.20826 154.036823 
L 319.314733 154.284223 
L 319.421206 154.01992 
L 319.634151 153.260816 
L 319.847096 153.664954 
L 319.953569 153.57045 
L 320.37946 153.434457 
L 320.592405 153.609635 
L 320.698878 153.4237 
L 321.018295 153.869328 
L 321.337713 154.470157 
L 321.870077 157.213074 
L 322.189495 159.733944 
L 322.508913 160.72585 
L 322.721858 162.718114 
L 323.254221 169.299576 
L 323.467166 171.659099 
L 324.212475 181.294649 
L 324.531893 183.658013 
L 324.957783 187.998275 
L 326.02251 199.07059 
L 326.128983 199.034479 
L 326.341928 199.526974 
L 326.661346 203.080472 
L 326.980764 207.792603 
L 327.513127 214.458581 
L 327.832545 217.950613 
L 330.068471 259.497726 
L 330.494361 267.748756 
L 330.813779 273.48583 
L 331.452615 286.031791 
L 331.772033 289.940255 
L 331.984978 291.987838 
L 332.623814 301.632607 
L 333.369123 312.933115 
L 333.795013 317.583011 
L 334.220904 320.827643 
L 334.433849 322.26825 
L 335.392103 333.923723 
L 335.924466 339.771436 
L 336.243884 341.361866 
L 336.88272 348.717031 
L 337.095665 350.026255 
L 337.840974 356.93656 
L 338.160392 358.481659 
L 338.266864 358.536978 
L 338.47981 357.72025 
L 338.586282 357.227754 
L 338.692755 357.253109 
L 338.799228 357.676456 
L 339.118646 359.892302 
L 339.225118 360.095139 
L 339.438064 359.862337 
L 339.544536 359.873094 
L 339.757481 360.370199 
L 339.970427 361.726291 
L 340.289845 364.632092 
L 341.035153 368.017327 
L 341.248099 368.200956 
L 341.780462 364.018969 
L 342.312825 359.326047 
L 342.845188 357.62421 
L 343.484024 353.260898 
L 343.696969 352.106876 
L 344.548751 346.862297 
L 344.761696 345.163533 
L 344.974641 343.860456 
L 345.187586 344.007206 
L 345.507004 342.074871 
L 345.932895 337.300506 
L 346.358786 333.855342 
L 346.784676 329.933049 
L 346.997621 328.427902 
L 347.210567 327.462119 
L 347.74293 322.563286 
L 348.168821 319.604471 
L 349.233547 304.853421 
L 349.659438 297.882418 
L 350.085328 294.149901 
L 350.724164 288.134693 
L 351.469473 281.418774 
L 351.682418 281.119896 
L 352.108309 280.452223 
L 352.427727 277.991282 
L 352.853617 274.76048 
L 352.96009 274.429332 
L 353.279508 274.808884 
L 353.705398 272.802022 
L 353.811871 272.827377 
L 354.024816 272.095164 
L 354.876597 268.00845 
L 355.089543 268.235105 
L 355.196015 268.080672 
L 355.941324 263.229475 
L 356.154269 263.079652 
L 356.367214 262.338219 
L 356.58016 261.090461 
L 356.899578 258.707121 
L 357.538414 258.78549 
L 358.070777 260.025565 
L 358.60314 257.068286 
L 358.709613 257.104397 
L 359.241976 257.7859 
L 359.774339 260.306771 
L 359.987285 259.641403 
L 360.306702 260.965993 
L 360.62612 263.217182 
L 360.732593 263.149569 
L 361.264956 260.272965 
L 361.371429 260.103934 
L 361.584374 260.601807 
L 362.010265 262.501872 
L 362.22321 262.381246 
L 362.329683 262.541057 
L 362.755573 264.884445 
L 362.862046 264.642423 
L 363.181464 263.298624 
L 363.287937 263.216414 
L 363.394409 263.40619 
L 363.713827 265.353122 
L 364.033245 266.670029 
L 365.097972 274.782761 
L 365.310917 275.31521 
L 365.523862 275.256817 
L 365.630335 275.272183 
L 365.736807 275.157703 
L 366.056225 276.028982 
L 366.162698 275.942162 
L 366.588589 274.395526 
L 366.695061 274.264911 
L 367.014479 274.772005 
L 367.227425 274.612962 
L 367.44037 274.812726 
L 367.653315 274.341743 
L 367.972733 273.606457 
L 368.079206 273.821588 
L 368.292151 274.765858 
L 368.398624 274.832702 
L 368.505096 274.678269 
L 368.718042 273.96757 
L 368.824514 273.792392 
L 370.208659 261.444659 
L 370.315131 261.473087 
L 370.528077 261.071253 
L 371.273385 255.757525 
L 371.699276 251.223646 
L 371.805748 250.811825 
L 371.912221 250.903255 
L 372.125166 251.537122 
L 372.231639 251.348115 
L 372.444584 250.064245 
L 372.65753 247.6325 
L 372.976948 243.123208 
L 373.509311 238.530167 
L 374.467565 233.900248 
L 374.68051 233.361653 
L 374.893455 233.001309 
L 375.1064 233.370873 
L 375.319346 232.962124 
L 375.638764 233.865673 
L 375.745236 233.959409 
L 375.958182 235.070405 
L 376.2776 234.823773 
L 376.916435 231.828078 
L 377.129381 231.515371 
L 377.661744 228.883093 
L 377.768217 228.825469 
L 377.981162 229.386345 
L 378.194107 229.834278 
L 378.619998 230.76395 
L 378.72647 230.746278 
L 378.832943 230.541904 
L 379.365306 227.895797 
L 379.684724 227.336457 
L 379.89767 226.570438 
L 380.32356 224.255478 
L 380.749451 221.072312 
L 381.281814 219.098488 
L 381.388287 219.149198 
L 381.494759 219.032413 
L 381.707705 218.481524 
L 381.814177 218.479988 
L 382.027123 218.063556 
L 382.665958 216.245702 
L 382.772431 216.144283 
L 382.985376 216.457759 
L 383.304794 217.422774 
L 383.94363 215.3022 
L 384.156576 214.316441 
L 384.263048 214.231925 
L 384.688939 214.615319 
L 384.795411 214.806631 
L 386.818392 223.852877 
L 387.031337 224.067239 
L 387.883118 229.918793 
L 387.989591 230.056323 
L 388.202536 229.941843 
L 388.521954 231.828847 
L 388.947845 234.795345 
L 389.799626 242.94803 
L 390.651407 249.904434 
L 392.248497 264.586335 
L 392.78086 271.608047 
L 393.419696 281.25128 
L 393.739114 286.34834 
L 394.165004 292.600192 
L 394.697368 296.091455 
L 395.655621 308.540607 
L 396.720348 315.540038 
L 397.039766 316.237676 
L 397.572129 317.709016 
L 397.785074 318.859197 
L 398.530383 326.192848 
L 399.062746 330.711361 
L 400.233945 342.039528 
L 400.446891 342.930016 
L 400.766309 343.042959 
L 400.979254 344.192372 
L 401.405144 347.244922 
L 401.724562 349.096583 
L 402.04398 351.386188 
L 402.682816 353.735722 
L 403.215179 351.910185 
L 403.534597 351.253268 
L 403.64107 351.193339 
L 403.747543 351.602087 
L 404.066961 355.169415 
L 404.279906 356.872021 
L 404.599324 357.892355 
L 404.812269 358.803587 
L 405.23816 357.313807 
L 405.983468 355.589688 
L 406.409359 354.569354 
L 407.154667 349.984765 
L 407.687031 342.858561 
L 408.112921 340.190941 
L 408.538812 336.958602 
L 408.751757 335.92367 
L 409.177648 333.026321 
L 409.816484 324.476413 
L 410.135902 323.097271 
L 410.561792 321.439228 
L 411.413573 316.780881 
L 411.839464 310.640436 
L 412.158882 307.958218 
L 412.371827 306.96708 
L 412.90419 301.203883 
L 414.07539 281.397261 
L 414.50128 277.193761 
L 416.843678 246.110451 
L 422.699674 154.379495 
L 423.019092 152.596984 
L 423.232037 151.396862 
L 425.148545 137.226665 
L 425.467963 136.338482 
L 425.574435 136.320811 
L 425.680908 136.449889 
L 426.000326 137.969634 
L 426.745635 141.01988 
L 427.38447 146.621729 
L 427.597416 147.064284 
L 427.810361 148.690825 
L 428.129779 151.25549 
L 428.449197 152.129843 
L 428.768615 155.959937 
L 429.088033 158.862665 
L 429.833341 164.149502 
L 430.152759 168.475165 
L 431.00454 178.62165 
L 432.282212 202.594123 
L 433.027521 217.557231 
L 435.156974 262.206068 
L 435.902282 276.533771 
L 436.328173 283.848215 
L 437.605845 307.160698 
L 438.244681 320.49419 
L 439.309407 336.797254 
L 439.522352 339.30199 
L 440.054716 348.839963 
L 441.971223 368.068036 
L 442.716532 377.244128 
L 443.781258 392.692048 
L 444.526567 401.779783 
L 444.633039 401.690657 
L 444.739512 401.624581 
L 444.952457 402.25307 
L 445.271875 403.807389 
L 445.378348 403.88038 
L 445.804238 405.234935 
L 445.910711 405.047464 
L 446.017184 405.301011 
L 446.230129 406.092385 
L 446.443074 407.013605 
L 447.08191 410.225967 
L 447.401328 409.433825 
L 447.933691 411.126443 
L 448.146637 411.223251 
L 448.466055 410.35274 
L 448.785473 407.664375 
L 449.211363 404.037118 
L 450.063144 396.2709 
L 450.489035 390.821179 
L 454.002632 328.935764 
L 454.641468 315.669116 
L 457.729175 245.528061 
L 458.580956 223.102992 
L 459.113319 211.215485 
L 460.284519 182.995718 
L 461.988081 149.174101 
L 464.75637 100.597592 
L 465.075788 97.980681 
L 465.288733 96.420215 
L 466.034042 89.341648 
L 466.459932 88.141526 
L 466.566405 88.08467 
L 466.672877 88.239871 
L 466.992295 86.995955 
L 467.205241 86.344416 
L 467.631131 83.808947 
L 467.844077 84.444351 
L 468.163494 84.067872 
L 468.589385 83.583828 
L 468.695858 83.331818 
L 468.80233 83.407114 
L 469.334694 84.855404 
L 469.654112 85.949498 
L 470.505893 94.924289 
L 471.570619 108.513633 
L 471.890037 113.60762 
L 472.4224 123.326917 
L 473.913017 150.859803 
L 475.935998 194.86248 
L 477.000724 222.244006 
L 477.320142 226.110212 
L 477.746033 235.469933 
L 478.278396 248.200292 
L 479.023705 267.897043 
L 479.343123 274.496176 
L 480.194904 292.161479 
L 480.83374 308.101894 
L 482.750247 359.045609 
L 484.027919 383.654254 
L 484.560282 390.271828 
L 484.986173 396.604353 
L 485.199118 397.782962 
L 486.796208 415.770192 
L 487.009153 416.377168 
L 487.222098 415.505889 
L 487.328571 415.696433 
L 487.754462 416.515466 
L 487.967407 416.849687 
L 488.286825 415.770192 
L 489.032133 414.528581 
L 489.670969 411.05883 
L 489.777442 410.751501 
L 490.09686 408.130748 
L 490.522751 404.826187 
L 490.735696 403.928785 
L 490.948641 404.672522 
L 491.055114 404.624118 
L 491.374532 401.76288 
L 492.865149 380.003947 
L 493.503985 371.590801 
L 493.71693 369.966564 
L 494.142821 363.38587 
L 496.591691 310.51059 
L 499.679398 236.183706 
L 500.744125 213.112477 
L 501.489433 194.30314 
L 502.021796 183.427516 
L 504.044777 142.870772 
L 505.428921 122.296595 
L 506.813066 109.389522 
L 507.451901 105.14607 
L 507.664847 104.177213 
L 507.877792 103.644765 
L 508.19721 104.17875 
L 508.410155 104.689685 
L 508.516628 104.626683 
L 508.729573 103.939801 
L 509.155464 101.458115 
L 509.261936 101.526496 
L 510.007245 105.630882 
L 510.539608 109.162099 
L 511.178444 111.684506 
L 511.284917 112.048691 
L 511.391389 111.973396 
L 511.497862 112.121682 
L 511.710807 113.384807 
L 511.923753 115.725121 
L 512.243171 119.093453 
L 512.988479 124.190513 
L 513.946733 133.131498 
L 514.053206 133.208331 
L 514.266151 133.935934 
L 514.479096 136.728791 
L 516.289131 168.963819 
L 516.715022 176.503381 
L 517.886221 200.150085 
L 518.631529 213.022583 
L 519.05742 219.723136 
L 520.015674 232.731627 
L 520.867455 245.908382 
L 523.103381 297.477512 
L 523.742217 306.572161 
L 524.381052 316.982182 
L 524.70047 321.483791 
L 525.126361 328.306507 
L 525.445779 331.301434 
L 525.765197 333.523426 
L 526.616978 340.206307 
L 527.149341 343.928068 
L 528.107595 352.330458 
L 528.533486 354.721482 
L 528.746431 355.156353 
L 528.852904 355.109486 
L 528.959376 355.25854 
L 529.172322 356.304229 
L 529.49174 358.023738 
L 529.704685 359.294546 
L 529.91763 360.217303 
L 530.237048 361.592602 
L 530.769411 365.690842 
L 530.875884 365.885228 
L 531.195302 365.584813 
L 531.51472 366.199472 
L 531.727665 366.463007 
L 531.94061 366.144921 
L 532.047083 366.191789 
L 532.579446 367.912066 
L 532.792392 367.647763 
L 533.005337 367.930506 
L 533.218282 367.316615 
L 533.431227 365.848348 
L 534.495954 354.284306 
L 535.13479 346.694802 
L 535.880098 337.431122 
L 536.093044 335.555643 
L 536.944825 324.481023 
L 538.541915 292.108465 
L 539.500168 269.532804 
L 540.245477 251.030029 
L 541.097258 236.123009 
L 541.523149 229.207326 
L 542.37493 214.264963 
L 543.226711 201.175029 
L 543.865547 191.556382 
L 545.675582 158.722062 
L 548.01798 137.085293 
L 548.337398 134.964719 
L 548.443871 134.764187 
L 548.869761 132.505314 
L 549.189179 132.597513 
L 549.61507 133.488769 
L 549.721543 133.500294 
L 549.828015 133.332031 
L 550.040961 132.675114 
L 550.147433 132.780374 
L 550.466851 133.5341 
L 550.573324 133.661642 
L 550.679796 133.591724 
L 550.892742 133.196806 
L 550.999214 133.39657 
L 551.318632 134.310107 
L 551.850996 136.456036 
L 552.596304 141.655283 
L 553.022195 143.781236 
L 553.23514 144.011733 
L 553.341613 144.603342 
L 553.767503 149.025814 
L 554.512812 154.139778 
L 554.938702 155.870043 
L 555.045175 156.304146 
L 556.642265 172.055554 
L 556.85521 173.509991 
L 557.174628 178.631638 
L 557.600519 186.615292 
L 557.813464 187.806194 
L 558.665245 200.003335 
L 559.197608 212.644568 
L 560.262335 236.45723 
L 560.47528 238.192873 
L 560.794698 244.971795 
L 561.540006 263.455362 
L 562.285315 277.878338 
L 563.350041 285.381789 
L 563.988877 293.196411 
L 564.308295 296.517107 
L 565.266549 309.482572 
L 565.585967 313.8382 
L 565.905385 315.601504 
L 566.011858 315.848136 
L 566.757166 322.284385 
L 567.396002 329.124772 
L 567.71542 332.044403 
L 568.034838 334.164208 
L 568.141311 334.353216 
L 568.886619 339.948919 
L 569.525455 346.299116 
L 569.631928 346.583396 
L 569.7384 346.534223 
L 570.164291 347.217263 
L 570.377236 346.942203 
L 571.122545 348.009405 
L 571.33549 348.76313 
L 571.548435 348.425068 
L 572.613162 345.131263 
L 572.826107 345.422458 
L 572.93258 344.972989 
L 573.784361 337.324325 
L 574.103779 335.55718 
L 574.423197 332.845765 
L 574.95556 327.040309 
L 575.168505 325.957741 
L 575.700869 320.864522 
L 576.339704 309.423411 
L 576.765595 301.588044 
L 578.57563 278.516815 
L 578.895048 274.563789 
L 583.79279 203.207246 
L 584.21868 199.833536 
L 584.538098 196.573537 
L 585.602825 184.630711 
L 585.81577 182.591579 
L 586.348133 176.01319 
L 586.774024 173.297934 
L 586.880497 173.157331 
L 587.093442 173.479258 
L 587.306387 173.150416 
L 587.41286 173.170392 
L 587.625805 172.972933 
L 588.158168 175.123471 
L 588.477586 174.869925 
L 588.690532 173.581445 
L 589.116422 170.446684 
L 589.222895 170.098633 
L 589.43584 170.262286 
L 589.755258 171.065185 
L 589.968203 171.616073 
L 590.074676 171.450115 
L 590.500567 169.629187 
L 590.607039 169.600759 
L 590.926457 169.049871 
L 591.139403 169.231964 
L 591.352348 169.124399 
L 591.671766 169.796682 
L 591.884711 169.465534 
L 591.991184 169.686043 
L 592.417074 171.378661 
L 592.523547 171.230374 
L 592.63002 171.592255 
L 593.481801 178.013906 
L 593.694746 179.234772 
L 594.972418 190.252537 
L 595.291836 191.146098 
L 596.67598 203.606774 
L 597.208343 211.307684 
L 597.527761 215.185415 
L 598.592488 227.572332 
L 599.231324 237.727269 
L 599.657214 241.309195 
L 600.508996 254.432935 
L 601.999613 278.188741 
L 602.425503 281.551694 
L 602.638448 283.392598 
L 603.170812 288.999058 
L 603.596702 292.735417 
L 604.022593 297.481353 
L 604.448483 298.864336 
L 604.554956 298.70683 
L 604.661429 298.994951 
L 604.874374 299.900037 
L 604.980847 300.220428 
L 606.897354 316.790101 
L 607.1103 317.686735 
L 607.642663 320.60867 
L 607.855608 322.003178 
L 608.175026 323.540594 
L 608.281499 323.840241 
L 608.387971 323.806434 
L 608.813862 321.662042 
L 609.665643 315.885783 
L 609.985061 314.452859 
L 610.304479 312.237013 
L 610.73037 309.229794 
L 611.049788 306.191073 
L 611.795096 299.76558 
L 612.008041 299.691053 
L 612.114514 299.26617 
L 612.433932 295.106464 
L 612.75335 290.791557 
L 613.605131 283.279655 
L 614.031022 278.181826 
L 614.35044 276.632117 
L 614.77633 272.32643 
L 616.692838 251.186767 
L 617.331674 241.964575 
L 617.651092 238.567047 
L 618.076982 232.592561 
L 618.502873 226.130188 
L 619.248181 217.719347 
L 620.099963 207.841775 
L 620.738799 201.171956 
L 621.058216 198.610364 
L 621.484107 196.150959 
L 621.909998 191.490307 
L 622.548834 184.897319 
L 623.081197 180.027683 
L 623.61356 178.035419 
L 624.039451 177.054269 
L 624.571814 178.020821 
L 624.997704 178.367335 
L 625.104177 178.31432 
L 625.423595 177.490677 
L 625.63654 176.642448 
L 625.849486 176.69162 
L 626.062431 177.153383 
L 626.381849 178.116861 
L 626.488322 178.322004 
L 626.807739 180.232825 
L 627.340103 183.784018 
L 627.446575 184.01221 
L 627.553048 183.969184 
L 627.765993 185.077876 
L 628.724247 193.343504 
L 629.363083 200.680228 
L 629.576028 201.929523 
L 629.788974 201.397075 
L 630.001919 200.97757 
L 630.108392 201.122015 
L 630.427809 202.640991 
L 630.747227 204.546434 
L 631.279591 207.487578 
L 631.386063 207.603595 
L 632.131372 213.171638 
L 632.344317 213.629559 
L 632.557262 215.104741 
L 633.196098 220.87178 
L 633.409044 221.229819 
L 633.941407 223.651576 
L 634.367297 226.770971 
L 634.686715 229.748226 
L 635.219079 235.601317 
L 635.964387 245.255306 
L 636.283805 246.897983 
L 636.49675 248.090421 
L 637.561477 260.890697 
L 638.200313 265.634329 
L 638.945621 272.575367 
L 639.477985 276.503807 
L 640.329766 280.758016 
L 640.542711 280.566703 
L 640.755656 281.772203 
L 641.394492 286.24769 
L 641.500965 286.40827 
L 641.71391 287.3341 
L 641.820383 287.252658 
L 641.926855 287.183508 
L 642.778637 289.022108 
L 643.098055 290.843035 
L 643.843363 288.692497 
L 644.162781 285.956495 
L 644.801617 281.799095 
L 645.014562 281.781423 
L 645.227508 280.665049 
L 645.546925 278.575208 
L 645.759871 277.541044 
L 646.079289 275.931405 
L 646.505179 273.721706 
L 646.824597 274.148126 
L 647.782851 270.620751 
L 647.995796 270.654557 
L 648.102269 270.573883 
L 648.315214 269.9016 
L 649.273468 263.473802 
L 649.912304 259.075916 
L 650.55114 252.777197 
L 650.870558 248.607503 
L 651.189976 244.476226 
L 651.402921 243.263043 
L 651.615866 242.437094 
L 651.828812 240.443294 
L 652.254702 235.914793 
L 653.000011 231.629082 
L 653.532374 225.504005 
L 653.851792 224.418363 
L 654.17121 222.439929 
L 654.384155 220.571365 
L 655.448882 208.685395 
L 655.661827 208.077651 
L 655.981245 206.720791 
L 656.726553 199.838145 
L 658.004225 188.944081 
L 658.536588 186.697502 
L 659.068952 184.467058 
L 659.494842 181.726447 
L 659.601315 181.43141 
L 659.707788 181.549732 
L 660.666041 179.595885 
L 660.878987 179.885543 
L 661.091932 179.782587 
L 661.198405 179.857883 
L 661.41135 180.170591 
L 661.624295 180.278925 
L 662.369604 183.837801 
L 662.476076 183.875449 
L 662.689022 184.441703 
L 662.901967 185.904592 
L 663.221385 186.647561 
L 663.43433 187.026345 
L 663.753748 188.080485 
L 665.03142 196.887013 
L 665.563783 204.134613 
L 665.883201 207.492188 
L 666.415564 214.554621 
L 666.522037 214.947234 
L 666.734982 217.380516 
L 667.586764 226.58811 
L 667.799709 228.565775 
L 668.864435 242.324151 
L 669.183853 243.758611 
L 669.396799 245.609504 
L 670.780943 257.545415 
L 670.887416 258.029459 
L 671.632724 266.118373 
L 671.845669 267.062643 
L 672.378033 269.142496 
L 672.484505 269.051833 
L 672.590978 268.766785 
L 672.697451 268.82441 
L 672.910396 269.532036 
L 673.016869 269.361468 
L 673.336286 269.516669 
L 673.442759 269.30077 
L 673.86865 269.814011 
L 674.081595 271.307632 
L 674.933376 279.247491 
L 675.785157 283.343426 
L 676.104575 284.217778 
L 676.743411 287.214241 
L 676.849884 287.465483 
L 677.062829 288.965252 
L 677.48872 292.207578 
L 678.021083 295.103391 
L 678.340501 294.438023 
L 678.659919 294.676203 
L 678.979337 294.39346 
L 679.405227 295.161015 
L 679.618173 294.928213 
L 679.831118 294.419583 
L 680.044063 294.52177 
L 680.257009 294.792988 
L 680.576427 296.315038 
L 681.002317 298.069889 
L 681.215262 297.826331 
L 681.53468 297.349202 
L 681.641153 297.521306 
L 681.854098 298.885849 
L 681.960571 298.848202 
L 682.386462 297.566637 
L 682.492934 297.508245 
L 682.705879 297.571247 
L 682.918825 297.793293 
L 683.238243 298.513981 
L 683.344715 298.342644 
L 683.664133 295.973134 
L 683.983551 294.164499 
L 684.196497 293.194106 
L 685.15475 283.719136 
L 685.580641 278.890221 
L 685.900059 277.677037 
L 686.113004 276.649788 
L 686.75184 271.069452 
L 687.603621 265.510629 
L 691.330164 223.618538 
L 691.543109 221.043116 
L 691.969 213.817798 
L 692.501363 208.542487 
L 693.140199 199.971066 
L 694.098453 189.638646 
L 694.311398 187.884563 
L 694.630816 185.096315 
L 695.056707 182.960375 
L 695.376125 180.184421 
L 695.695542 177.784177 
L 696.227906 174.965965 
L 696.547324 172.883039 
L 696.973214 171.642964 
L 697.61205 167.586214 
L 697.931468 166.601223 
L 698.463831 163.089215 
L 698.783249 161.497248 
L 699.528558 155.423647 
L 699.954448 152.862056 
L 700.167394 151.774109 
L 700.273866 151.641957 
L 700.593284 152.285813 
L 700.699757 152.184394 
L 700.912702 152.282739 
L 701.019175 152.311936 
L 701.338593 152.751417 
L 701.445065 152.677658 
L 701.658011 152.265068 
L 701.870956 152.202834 
L 702.083901 152.718379 
L 702.403319 152.61696 
L 702.722737 154.176658 
L 703.042155 156.775129 
L 703.468046 158.102024 
L 704.213354 162.170299 
L 704.4263 163.089215 
L 705.171608 170.080962 
L 705.916917 181.03265 
L 706.342807 187.930662 
L 707.514006 200.103217 
L 708.04637 207.968549 
L 708.791678 218.164207 
L 709.217569 224.078764 
L 709.536987 228.781674 
L 709.749932 230.762413 
L 710.708186 244.54768 
L 711.347022 249.39273 
L 711.985858 257.934187 
L 712.305276 261.309434 
L 713.476475 280.897851 
L 713.902365 284.187814 
L 714.541201 287.472398 
L 714.967092 291.095814 
L 715.180037 291.415436 
L 715.392982 292.437307 
L 716.031818 297.582772 
L 716.031818 297.582772 
" style="fill:none;stroke:#000000;stroke-linecap:square;stroke-width:1.5;"/>
   </g>
   <g id="line2d_26">
    <path clip-path="url(#p8dc179bd6d)" d="M 132.668182 316.106358 
L 133.200545 316.008963 
L 133.732908 315.628889 
L 134.265272 314.957928 
L 134.904107 313.760932 
L 135.649416 311.81848 
L 136.501197 308.881564 
L 137.459451 304.687829 
L 138.524177 298.989313 
L 139.801849 290.870045 
L 141.398939 279.167712 
L 144.2737 255.981456 
L 146.509626 238.813724 
L 147.89377 229.805712 
L 148.958497 224.164322 
L 149.916751 220.259615 
L 150.662059 218.090162 
L 151.300895 216.884676 
L 151.833258 216.365194 
L 152.259149 216.277804 
L 152.68504 216.488717 
L 153.11093 217.002567 
L 153.643293 218.075692 
L 154.282129 219.999051 
L 155.027438 223.116955 
L 155.879219 227.813225 
L 156.837473 234.485709 
L 157.902199 243.505458 
L 159.179871 256.296517 
L 160.776961 274.674158 
L 163.438777 308.457623 
L 165.994121 339.983679 
L 167.484738 355.815233 
L 168.655937 366.114402 
L 169.614191 372.813147 
L 170.465972 377.287546 
L 171.104808 379.655012 
L 171.637171 380.947832 
L 172.063061 381.523212 
L 172.382479 381.681918 
L 172.701897 381.603867 
L 173.021315 381.287064 
L 173.447206 380.490913 
L 173.979569 378.892978 
L 174.618405 376.09311 
L 175.363714 371.624022 
L 176.215495 364.972627 
L 177.173749 355.616439 
L 178.344948 341.711159 
L 179.729092 322.266813 
L 181.432654 294.968959 
L 187.501595 194.461283 
L 188.779267 178.276471 
L 189.843994 167.380528 
L 190.695775 160.606577 
L 191.441083 156.219289 
L 192.079919 153.664079 
L 192.612282 152.41327 
L 192.9317 152.053428 
L 193.251118 151.989668 
L 193.570536 152.223705 
L 193.889954 152.756541 
L 194.315845 153.932176 
L 194.848208 156.147079 
L 195.487044 159.887362 
L 196.232352 165.712175 
L 197.084134 174.223789 
L 198.042387 186.019732 
L 199.213587 203.314654 
L 200.597731 227.178403 
L 202.514239 264.538526 
L 207.41198 362.166783 
L 208.796125 384.754561 
L 209.967324 400.555893 
L 210.925578 410.814835 
L 211.777359 417.700615 
L 212.416195 421.398414 
L 212.948558 423.483417 
L 213.374449 424.485268 
L 213.693867 424.843401 
L 214.013285 424.86223 
L 214.332703 424.540615 
L 214.65212 423.878227 
L 215.078011 422.465903 
L 215.610374 419.855306 
L 216.24921 415.499953 
L 216.994519 408.775879 
L 217.8463 399.017296 
L 218.911026 383.927203 
L 220.082226 364.030022 
L 221.572843 334.633999 
L 223.595823 289.913384 
L 227.748256 197.264722 
L 229.238873 169.227828 
L 230.516545 149.276728 
L 231.581271 136.121511 
L 232.433053 128.129748 
L 233.178361 123.105459 
L 233.817197 120.31682 
L 234.243088 119.252033 
L 234.562506 118.874477 
L 234.775451 118.824001 
L 234.988396 118.934693 
L 235.307814 119.40281 
L 235.733705 120.589348 
L 236.266068 122.969812 
L 236.904904 127.122622 
L 237.650212 133.706589 
L 238.501994 143.422678 
L 239.460247 156.955289 
L 240.631447 176.834043 
L 242.015591 204.250411 
L 243.932099 247.061932 
L 248.616895 353.97042 
L 250.107512 382.162182 
L 251.278711 400.565786 
L 252.343438 413.897979 
L 253.195219 421.991364 
L 253.940527 427.082094 
L 254.579363 429.915685 
L 255.005254 431.006368 
L 255.324672 431.402072 
L 255.64409 431.434983 
L 255.963508 431.105299 
L 256.282926 430.414075 
L 256.708816 428.933467 
L 257.24118 426.194485 
L 257.880015 421.631202 
L 258.625324 414.605843 
L 259.477105 404.44955 
L 260.541832 388.824179 
L 261.819503 366.336633 
L 263.416593 333.751542 
L 265.865464 278.354113 
L 268.846698 211.855033 
L 270.443788 180.977445 
L 271.72146 160.249804 
L 272.786186 146.262639 
L 273.74444 136.528954 
L 274.489748 130.951963 
L 275.128584 127.611315 
L 275.660948 125.861137 
L 276.086838 125.142778 
L 276.406256 125.002238 
L 276.725674 125.202282 
L 277.045092 125.741355 
L 277.470983 126.983314 
L 278.003346 129.365243 
L 278.642182 133.41218 
L 279.38749 139.712269 
L 280.239271 148.877297 
L 281.303998 163.024352 
L 282.58167 183.405558 
L 284.178759 212.90809 
L 286.734103 265.090688 
L 289.502392 320.447423 
L 291.099481 348.167664 
L 292.377153 366.765848 
L 293.44188 379.322074 
L 294.400134 388.078202 
L 295.145442 393.118618 
L 295.784278 396.165344 
L 296.316641 397.792455 
L 296.742532 398.494249 
L 297.06195 398.670919 
L 297.381368 398.549054 
L 297.700786 398.130499 
L 298.126676 397.115408 
L 298.659039 395.123624 
L 299.297875 391.700598 
L 300.043184 386.340332 
L 300.894965 378.521058 
L 301.959692 366.44237 
L 303.237363 349.05679 
L 304.834453 323.95354 
L 307.602742 276.044885 
L 310.158085 233.250152 
L 311.755175 210.09712 
L 313.032847 194.617033 
L 314.097573 184.18409 
L 315.055827 176.905579 
L 315.801136 172.700381 
L 316.439972 170.135916 
L 316.972335 168.738869 
L 317.398225 168.105539 
L 317.717643 167.911628 
L 318.037061 167.956807 
L 318.356479 168.238794 
L 318.78237 168.978127 
L 319.314733 170.474269 
L 319.953569 173.081654 
L 320.698878 177.189272 
L 321.550659 183.190011 
L 322.615385 192.443138 
L 323.893057 205.697556 
L 325.596619 226.008824 
L 331.346142 297.070682 
L 332.730287 310.484541 
L 333.901486 319.758535 
L 334.85974 325.757667 
L 335.711521 329.815866 
L 336.456829 332.355429 
L 337.095665 333.775055 
L 337.628029 334.426865 
L 338.053919 334.604866 
L 338.373337 334.541043 
L 338.799228 334.197634 
L 339.225118 333.565606 
L 339.757481 332.382579 
L 340.396317 330.412004 
L 341.141626 327.40196 
L 342.09988 322.514565 
L 343.271079 315.21587 
L 344.761696 304.328015 
L 347.210567 284.434743 
L 349.872383 263.379486 
L 351.363 253.220939 
L 352.640672 245.95156 
L 353.705398 241.083031 
L 354.663652 237.700874 
L 355.515433 235.515209 
L 356.260742 234.238351 
L 356.899578 233.608556 
L 357.431941 233.402411 
L 357.964304 233.47574 
L 358.496667 233.816521 
L 359.135503 234.5584 
L 359.880812 235.846896 
L 360.732593 237.814157 
L 361.79732 240.889295 
L 363.181464 245.626103 
L 368.079206 263.088306 
L 369.250405 266.14004 
L 370.208659 268.044104 
L 371.06044 269.236231 
L 371.699276 269.804178 
L 372.338112 270.086138 
L 372.870475 270.102051 
L 373.402838 269.921013 
L 374.041674 269.45019 
L 374.786983 268.566724 
L 375.638764 267.149356 
L 376.597018 265.097456 
L 377.874689 261.763031 
L 379.791197 256.015943 
L 382.133595 249.101266 
L 383.411267 246.013731 
L 384.369521 244.242988 
L 385.114829 243.265795 
L 385.753665 242.743229 
L 386.286028 242.547752 
L 386.818392 242.582465 
L 387.350755 242.856395 
L 387.883118 243.37632 
L 388.521954 244.331006 
L 389.267263 245.904161 
L 390.119044 248.301918 
L 391.077298 251.73708 
L 392.142024 256.402892 
L 393.419696 263.022998 
L 395.123258 273.135401 
L 399.914527 302.402575 
L 401.085726 307.980553 
L 402.04398 311.626084 
L 402.895762 314.042977 
L 403.534597 315.289127 
L 404.066961 315.929618 
L 404.492851 316.169577 
L 404.918742 316.159561 
L 405.344632 315.893579 
L 405.770523 315.366834 
L 406.302886 314.336408 
L 406.941722 312.549266 
L 407.687031 309.704462 
L 408.538812 305.464765 
L 409.497066 299.478788 
L 410.561792 291.417113 
L 411.839464 280.010343 
L 413.436554 263.645099 
L 416.09837 233.606639 
L 418.653713 205.664831 
L 420.14433 191.712935 
L 421.31553 182.70598 
L 422.273783 176.913809 
L 423.125565 173.115419 
L 423.7644 171.167862 
L 424.296764 170.164782 
L 424.722654 169.780424 
L 425.042072 169.740657 
L 425.36149 169.916466 
L 425.787381 170.489153 
L 426.213271 171.450763 
L 426.745635 173.200912 
L 427.38447 176.101694 
L 428.129779 180.573877 
L 428.98156 187.076144 
L 430.046287 197.173425 
L 431.217486 210.56685 
L 432.60163 228.987901 
L 434.518138 257.764916 
L 439.202934 329.610054 
L 440.587079 347.060539 
L 441.758278 359.211179 
L 442.716532 367.019106 
L 443.568313 372.159286 
L 444.207149 374.824858 
L 444.739512 376.233996 
L 445.165403 376.816432 
L 445.484821 376.930714 
L 445.804238 376.766084 
L 446.123656 376.321063 
L 446.549547 375.290248 
L 447.08191 373.299033 
L 447.720746 369.885906 
L 448.466055 364.516746 
L 449.317836 356.611621 
L 450.27609 345.588656 
L 451.447289 329.335483 
L 452.831433 306.782179 
L 454.641468 273.309337 
L 460.071573 169.989993 
L 461.455718 149.011296 
L 462.626917 134.578549 
L 463.585171 125.414959 
L 464.330479 120.091915 
L 464.969315 116.856582 
L 465.501678 115.127515 
L 465.927569 114.38972 
L 466.246987 114.216951 
L 466.566405 114.372219 
L 466.885823 114.856326 
L 467.311713 116.01325 
L 467.844077 118.277936 
L 468.482912 122.182567 
L 469.228221 128.337775 
L 470.080002 137.399418 
L 471.038256 150.016077 
L 472.209455 168.569753 
L 473.5936 194.218562 
L 475.510107 234.420888 
L 480.407849 339.680788 
L 481.898466 365.85725 
L 483.069665 382.738825 
L 484.027919 393.699737 
L 484.8797 401.068267 
L 485.625009 405.569538 
L 486.157372 407.632705 
L 486.583263 408.578603 
L 486.90268 408.873154 
L 487.115626 408.871138 
L 487.435044 408.570062 
L 487.754462 407.911443 
L 488.180352 406.478802 
L 488.712715 403.803667 
L 489.351551 399.316647 
L 490.09686 392.369989 
L 490.948641 382.275743 
L 492.013368 366.662669 
L 493.184567 346.086383 
L 494.675184 315.722256 
L 496.804637 267.104026 
L 500.637652 178.884168 
L 502.234742 147.585603 
L 503.512414 126.788728 
L 504.57714 112.958293 
L 505.428921 104.447992 
L 506.17423 98.986322 
L 506.813066 95.834911 
L 507.345429 94.310154 
L 507.664847 93.880488 
L 507.984265 93.815916 
L 508.303683 94.116415 
L 508.623101 94.781101 
L 509.048991 96.230716 
L 509.581354 98.938527 
L 510.22019 103.476349 
L 510.965499 110.489678 
L 511.81728 120.65698 
L 512.882007 136.33487 
L 514.159678 158.94285 
L 515.756768 191.761898 
L 518.205639 247.661233 
L 521.186873 314.864355 
L 522.783963 346.074284 
L 524.061635 367.003243 
L 525.126361 381.094681 
L 526.084615 390.860604 
L 526.829923 396.416084 
L 527.468759 399.702529 
L 528.001122 401.380615 
L 528.427013 402.022857 
L 528.746431 402.095213 
L 529.065849 401.817262 
L 529.385267 401.190392 
L 529.811157 399.81574 
L 530.343521 397.242451 
L 530.982357 392.928039 
L 531.727665 386.263448 
L 532.579446 376.613191 
L 533.644173 361.759519 
L 534.921845 340.392987 
L 536.518934 309.475531 
L 539.074278 254.731941 
L 541.949039 194.397733 
L 543.546129 165.415107 
L 544.823801 146.004917 
L 545.888527 132.92887 
L 546.846781 123.838707 
L 547.59209 118.631176 
L 548.230926 115.507923 
L 548.763289 113.864899 
L 549.189179 113.181951 
L 549.508597 113.037873 
L 549.828015 113.208128 
L 550.147433 113.690819 
L 550.573324 114.815751 
L 551.105687 116.983479 
L 551.744523 120.673147 
L 552.489831 126.418456 
L 553.341613 134.770175 
L 554.406339 147.641428 
L 555.684011 166.139153 
L 557.281101 192.821955 
L 560.049389 243.706959 
L 562.604733 289.114873 
L 564.201823 313.634641 
L 565.479494 329.978968 
L 566.544221 340.941498 
L 567.502475 348.529269 
L 568.247783 352.856779 
L 568.886619 355.439765 
L 569.418982 356.78965 
L 569.844873 357.343597 
L 570.164291 357.453461 
L 570.483709 357.303136 
L 570.803127 356.894876 
L 571.229017 355.954348 
L 571.761381 354.154214 
L 572.400217 351.105953 
L 573.145525 346.381462 
L 573.997306 339.545772 
L 575.062033 329.06663 
L 576.339704 314.102253 
L 578.043267 291.183288 
L 584.112208 206.56343 
L 585.496352 191.690738 
L 586.667551 181.481224 
L 587.625805 174.935228 
L 588.477586 170.56218 
L 589.222895 167.881415 
L 589.755258 166.626007 
L 590.287621 165.917877 
L 590.713512 165.741343 
L 591.03293 165.83331 
L 591.45882 166.250068 
L 591.884711 166.995992 
L 592.417074 168.377525 
L 593.05591 170.66671 
L 593.801219 174.155293 
L 594.759473 179.817294 
L 595.930672 188.283851 
L 597.421289 200.955813 
L 599.657214 222.207076 
L 602.638448 250.243935 
L 604.235538 263.18278 
L 605.51321 271.817243 
L 606.577936 277.628935 
L 607.53619 281.688786 
L 608.387971 284.329324 
L 609.026807 285.705041 
L 609.665643 286.565788 
L 610.198006 286.896364 
L 610.623897 286.913656 
L 611.049788 286.71723 
L 611.582151 286.181351 
L 612.220987 285.132679 
L 612.966295 283.388697 
L 613.818076 280.777285 
L 614.882803 276.722598 
L 616.266947 270.450032 
L 618.502873 259.055229 
L 621.058216 246.354359 
L 622.442361 240.502596 
L 623.61356 236.430335 
L 624.571814 233.800996 
L 625.423595 232.037215 
L 626.168904 230.950962 
L 626.807739 230.360932 
L 627.446575 230.081175 
L 627.978939 230.07852 
L 628.511302 230.277199 
L 629.150138 230.767302 
L 629.895446 231.659344 
L 630.747227 233.052111 
L 631.811954 235.250924 
L 633.302571 238.905549 
L 636.603223 247.193562 
L 637.774422 249.458116 
L 638.626203 250.685776 
L 639.371512 251.412403 
L 640.010348 251.748148 
L 640.542711 251.811319 
L 641.075074 251.668624 
L 641.607437 251.313966 
L 642.246273 250.603343 
L 642.991582 249.378999 
L 643.843363 247.465333 
L 644.801617 244.683974 
L 645.866343 240.87846 
L 647.144015 235.469436 
L 648.95405 226.709588 
L 652.680593 208.325753 
L 653.958265 203.191503 
L 655.022991 199.806473 
L 655.874772 197.81725 
L 656.513608 196.799571 
L 657.045971 196.28662 
L 657.471862 196.10652 
L 657.897753 196.138257 
L 658.323643 196.387348 
L 658.856006 197.011024 
L 659.38837 197.987375 
L 660.027206 199.629074 
L 660.772514 202.192223 
L 661.624295 205.962289 
L 662.582549 211.233677 
L 663.753748 219.04435 
L 665.137893 229.944916 
L 666.947928 246.198858 
L 671.845669 291.453974 
L 673.123341 300.903646 
L 674.188068 307.291728 
L 675.039849 311.244807 
L 675.785157 313.762871 
L 676.423993 315.171119 
L 676.849884 315.707542 
L 677.275774 315.912426 
L 677.595192 315.844473 
L 678.021083 315.454103 
L 678.446974 314.717563 
L 678.979337 313.306516 
L 679.618173 310.892884 
L 680.363481 307.091316 
L 681.215262 301.475998 
L 682.173516 293.610328 
L 683.344715 281.946427 
L 684.72886 265.652459 
L 686.432422 242.785052 
L 692.39489 160.127655 
L 693.672562 146.602963 
L 694.737289 137.559887 
L 695.58907 132.003951 
L 696.334378 128.477799 
L 696.973214 126.503393 
L 697.399105 125.742983 
L 697.718523 125.470255 
L 698.037941 125.455492 
L 698.357359 125.700633 
L 698.783249 126.433955 
L 699.20914 127.632928 
L 699.741503 129.785229 
L 700.380339 133.318218 
L 701.125648 138.724352 
L 701.977429 146.53497 
L 703.042155 158.591826 
L 704.213354 174.493442 
L 705.703971 198.026107 
L 707.726952 233.927049 
L 711.879385 308.478946 
L 713.370002 330.927881 
L 714.541201 345.561041 
L 715.499455 355.157424 
L 716.031818 359.465453 
L 716.031818 359.465453 
" style="fill:none;stroke:#ff0000;stroke-linecap:square;stroke-width:1.5;"/>
   </g>
   <g id="patch_3">
    <path d="M 103.5 472.5 
L 103.5 64.8 
" style="fill:none;stroke:#000000;stroke-linecap:square;stroke-linejoin:miter;stroke-width:0.8;"/>
   </g>
   <g id="patch_4">
    <path d="M 745.2 472.5 
L 745.2 64.8 
" style="fill:none;stroke:#000000;stroke-linecap:square;stroke-linejoin:miter;stroke-width:0.8;"/>
   </g>
   <g id="patch_5">
    <path d="M 103.5 472.5 
L 745.2 472.5 
" style="fill:none;stroke:#000000;stroke-linecap:square;stroke-linejoin:miter;stroke-width:0.8;"/>
   </g>
   <g id="patch_6">
    <path d="M 103.5 64.8 
L 745.2 64.8 
" style="fill:none;stroke:#000000;stroke-linecap:square;stroke-linejoin:miter;stroke-width:0.8;"/>
   </g>
   <g id="legend_1">
    <g id="patch_7">
     <path d="M 658.6 103.178125 
L 738.2 103.178125 
Q 740.2 103.178125 740.2 101.178125 
L 740.2 71.8 
Q 740.2 69.8 738.2 69.8 
L 658.6 69.8 
Q 656.6 69.8 656.6 71.8 
L 656.6 101.178125 
Q 656.6 103.178125 658.6 103.178125 
z
" style="fill:#ffffff;opacity:0.8;stroke:#cccccc;stroke-linejoin:miter;"/>
    </g>
    <g id="line2d_27">
     <path d="M 660.6 77.898438 
L 680.6 77.898438 
" style="fill:none;stroke:#000000;stroke-linecap:square;stroke-width:1.5;"/>
    </g>
    <g id="line2d_28"/>
    <g id="text_15">
     <!-- $x(t)$ -->
     <defs>
      <path d="M 31 75.875 
Q 24.46875 64.65625 21.28125 53.65625 
Q 18.109375 42.671875 18.109375 31.390625 
Q 18.109375 20.125 21.3125 9.0625 
Q 24.515625 -2 31 -13.1875 
L 23.1875 -13.1875 
Q 15.875 -1.703125 12.234375 9.375 
Q 8.59375 20.453125 8.59375 31.390625 
Q 8.59375 42.28125 12.203125 53.3125 
Q 15.828125 64.359375 23.1875 75.875 
z
" id="DejaVuSans-40"/>
      <path d="M 8.015625 75.875 
L 15.828125 75.875 
Q 23.140625 64.359375 26.78125 53.3125 
Q 30.421875 42.28125 30.421875 31.390625 
Q 30.421875 20.453125 26.78125 9.375 
Q 23.140625 -1.703125 15.828125 -13.1875 
L 8.015625 -13.1875 
Q 14.5 -2 17.703125 9.0625 
Q 20.90625 20.125 20.90625 31.390625 
Q 20.90625 42.671875 17.703125 53.65625 
Q 14.5 64.65625 8.015625 75.875 
z
" id="DejaVuSans-41"/>
     </defs>
     <g transform="translate(688.6 81.398438)scale(0.1 -0.1)">
      <use transform="translate(0 0.125)" xlink:href="#DejaVuSans-Oblique-120"/>
      <use transform="translate(59.179688 0.125)" xlink:href="#DejaVuSans-40"/>
      <use transform="translate(98.193359 0.125)" xlink:href="#DejaVuSans-Oblique-116"/>
      <use transform="translate(137.402344 0.125)" xlink:href="#DejaVuSans-41"/>
     </g>
    </g>
    <g id="line2d_29">
     <path d="M 660.6 92.578125 
L 680.6 92.578125 
" style="fill:none;stroke:#ff0000;stroke-linecap:square;stroke-width:1.5;"/>
    </g>
    <g id="line2d_30"/>
    <g id="text_16">
     <!-- $x(t)_{прогноз}$ -->
     <defs>
      <path d="M 61.625 54.6875 
L 50.984375 0 
L 41.9375 0 
L 51.171875 47.515625 
L 22.015625 47.515625 
L 12.796875 0 
L 3.765625 0 
L 14.40625 54.6875 
z
" id="DejaVuSans-Oblique-1087"/>
      <path d="M 49.609375 33.6875 
Q 49.609375 40.875 46.484375 44.671875 
Q 43.359375 48.484375 37.5 48.484375 
Q 33.5 48.484375 29.859375 46.4375 
Q 26.21875 44.390625 23.390625 40.484375 
Q 20.609375 36.625 18.9375 31.15625 
Q 17.28125 25.6875 17.28125 20.3125 
Q 17.28125 13.484375 20.40625 9.796875 
Q 23.53125 6.109375 29.296875 6.109375 
Q 33.546875 6.109375 37.1875 8.109375 
Q 40.828125 10.109375 43.40625 13.921875 
Q 46.1875 17.921875 47.890625 23.34375 
Q 49.609375 28.765625 49.609375 33.6875 
z
M 21.78125 46.390625 
Q 25.390625 51.125 30.296875 53.5625 
Q 35.203125 56 41.21875 56 
Q 49.609375 56 54.25 50.5 
Q 58.890625 45.015625 58.890625 35.109375 
Q 58.890625 27 56 19.65625 
Q 53.125 12.3125 47.703125 6.5 
Q 44.09375 2.640625 39.546875 0.609375 
Q 35.015625 -1.421875 29.984375 -1.421875 
Q 24.171875 -1.421875 20.21875 1 
Q 16.265625 3.421875 14.3125 8.203125 
L 8.6875 -20.796875 
L -0.296875 -20.796875 
L 14.40625 54.6875 
L 23.390625 54.6875 
z
" id="DejaVuSans-Oblique-1088"/>
      <path d="M 25.390625 -1.421875 
Q 15.765625 -1.421875 10.171875 4.515625 
Q 4.59375 10.453125 4.59375 20.703125 
Q 4.59375 26.65625 6.515625 32.828125 
Q 8.453125 39.015625 11.53125 43.21875 
Q 16.359375 49.75 22.3125 52.875 
Q 28.265625 56 35.796875 56 
Q 45.125 56 50.859375 50.1875 
Q 56.59375 44.390625 56.59375 35.015625 
Q 56.59375 28.515625 54.6875 22.0625 
Q 52.78125 15.625 49.703125 11.375 
Q 44.921875 4.828125 38.96875 1.703125 
Q 33.015625 -1.421875 25.390625 -1.421875 
z
M 13.921875 21 
Q 13.921875 13.578125 17.015625 9.890625 
Q 20.125 6.203125 26.421875 6.203125 
Q 35.453125 6.203125 41.375 14.078125 
Q 47.3125 21.96875 47.3125 34.078125 
Q 47.3125 41.15625 44.140625 44.765625 
Q 40.96875 48.390625 34.8125 48.390625 
Q 29.734375 48.390625 25.78125 46.015625 
Q 21.828125 43.65625 18.703125 38.8125 
Q 16.40625 35.203125 15.15625 30.5625 
Q 13.921875 25.921875 13.921875 21 
z
" id="DejaVuSans-Oblique-1086"/>
      <path d="M 3.765625 0 
L 14.40625 54.6875 
L 52.984375 54.6875 
L 51.5625 47.515625 
L 22.015625 47.515625 
L 12.796875 0 
z
" id="DejaVuSans-Oblique-1075"/>
      <path d="M 14.40625 54.6875 
L 23.4375 54.6875 
L 19.09375 32.375 
L 48.25 32.375 
L 52.59375 54.6875 
L 61.625 54.6875 
L 50.984375 0 
L 41.9375 0 
L 46.828125 25.203125 
L 17.671875 25.203125 
L 12.796875 0 
L 3.765625 0 
z
" id="DejaVuSans-Oblique-1085"/>
      <path d="M 18.265625 32.859375 
L 25.828125 32.859375 
Q 31.5 32.859375 35.59375 35.25 
Q 39.703125 37.640625 39.703125 41.65625 
Q 39.703125 44.140625 36.984375 46.1875 
Q 34.28125 48.25 29.640625 48.25 
Q 21.34375 48.25 11.921875 45.5625 
L 13.484375 53.71875 
Q 23.53125 56.0625 31.9375 56.0625 
Q 40.28125 56.0625 44.546875 52.640625 
Q 48.828125 49.21875 48.828125 44.390625 
Q 48.828125 37.984375 44.140625 33.84375 
Q 40.578125 30.671875 34.90625 29.5 
Q 40.71875 28.328125 43.40625 24.75 
Q 45.359375 22.171875 45.359375 18.703125 
Q 45.359375 17.390625 45.0625 15.921875 
Q 43.40625 7.46875 36.25 3.015625 
Q 29.109375 -1.421875 17.484375 -1.421875 
Q 9.71875 -1.421875 1.421875 1.3125 
L 3.078125 9.671875 
Q 9.328125 6.0625 17.671875 6.0625 
Q 26.03125 6.0625 31.203125 9.109375 
Q 36.375 12.15625 36.375 17.578125 
Q 36.375 20.75 33.5625 23.09375 
Q 30.765625 25.4375 24.078125 25.4375 
L 16.84375 25.4375 
z
" id="DejaVuSans-Oblique-1079"/>
     </defs>
     <g transform="translate(688.6 96.078125)scale(0.1 -0.1)">
      <use transform="translate(0 0.125)" xlink:href="#DejaVuSans-Oblique-120"/>
      <use transform="translate(59.179688 0.125)" xlink:href="#DejaVuSans-40"/>
      <use transform="translate(98.193359 0.125)" xlink:href="#DejaVuSans-Oblique-116"/>
      <use transform="translate(137.402344 0.125)" xlink:href="#DejaVuSans-41"/>
      <use transform="translate(177.373047 -16.28125)scale(0.7)" xlink:href="#DejaVuSans-Oblique-1087"/>
      <use transform="translate(223.139648 -16.28125)scale(0.7)" xlink:href="#DejaVuSans-Oblique-1088"/>
      <use transform="translate(267.573242 -16.28125)scale(0.7)" xlink:href="#DejaVuSans-Oblique-1086"/>
      <use transform="translate(310.400391 -16.28125)scale(0.7)" xlink:href="#DejaVuSans-Oblique-1075"/>
      <use transform="translate(347.177734 -16.28125)scale(0.7)" xlink:href="#DejaVuSans-Oblique-1085"/>
      <use transform="translate(392.944336 -16.28125)scale(0.7)" xlink:href="#DejaVuSans-Oblique-1086"/>
      <use transform="translate(435.771484 -16.28125)scale(0.7)" xlink:href="#DejaVuSans-Oblique-1079"/>
     </g>
    </g>
   </g>
  </g>
 </g>
 <defs>
  <clipPath id="p8dc179bd6d">
   <rect height="407.7" width="641.7" x="103.5" y="64.8"/>
  </clipPath>
 </defs>
</svg>
