<?xml version="1.0" encoding="utf-8" standalone="no"?>
<!DOCTYPE svg PUBLIC "-//W3C//DTD SVG 1.1//EN"
  "http://www.w3.org/Graphics/SVG/1.1/DTD/svg11.dtd">
<!-- Created with matplotlib (https://matplotlib.org/) -->
<svg height="540pt" version="1.1" viewBox="0 0 828 540" width="828pt" xmlns="http://www.w3.org/2000/svg" xmlns:xlink="http://www.w3.org/1999/xlink">
 <defs>
  <style type="text/css">
*{stroke-linecap:butt;stroke-linejoin:round;}
  </style>
 </defs>
 <g id="figure_1">
  <g id="patch_1">
   <path d="M 0 540 
L 828 540 
L 828 0 
L 0 0 
z
" style="fill:#ffffff;"/>
  </g>
  <g id="axes_1">
   <g id="patch_2">
    <path d="M 103.5 472.5 
L 745.2 472.5 
L 745.2 64.8 
L 103.5 64.8 
z
" style="fill:#ffffff;"/>
   </g>
   <g id="matplotlib.axis_1">
    <g id="xtick_1">
     <g id="line2d_1">
      <path clip-path="url(#p4fbd4cd526)" d="M 108.094256 472.5 
L 108.094256 64.8 
" style="fill:none;stroke:#b0b0b0;stroke-linecap:square;stroke-width:0.8;"/>
     </g>
     <g id="line2d_2">
      <defs>
       <path d="M 0 0 
L 0 3.5 
" id="m5f3ce06795" style="stroke:#000000;stroke-width:0.8;"/>
      </defs>
      <g>
       <use style="stroke:#000000;stroke-width:0.8;" x="108.094256" xlink:href="#m5f3ce06795" y="472.5"/>
      </g>
     </g>
     <g id="text_1">
      <!-- 57000 -->
      <defs>
       <path d="M 10.796875 72.90625 
L 49.515625 72.90625 
L 49.515625 64.59375 
L 19.828125 64.59375 
L 19.828125 46.734375 
Q 21.96875 47.46875 24.109375 47.828125 
Q 26.265625 48.1875 28.421875 48.1875 
Q 40.625 48.1875 47.75 41.5 
Q 54.890625 34.8125 54.890625 23.390625 
Q 54.890625 11.625 47.5625 5.09375 
Q 40.234375 -1.421875 26.90625 -1.421875 
Q 22.3125 -1.421875 17.546875 -0.640625 
Q 12.796875 0.140625 7.71875 1.703125 
L 7.71875 11.625 
Q 12.109375 9.234375 16.796875 8.0625 
Q 21.484375 6.890625 26.703125 6.890625 
Q 35.15625 6.890625 40.078125 11.328125 
Q 45.015625 15.765625 45.015625 23.390625 
Q 45.015625 31 40.078125 35.4375 
Q 35.15625 39.890625 26.703125 39.890625 
Q 22.75 39.890625 18.8125 39.015625 
Q 14.890625 38.140625 10.796875 36.28125 
z
" id="DejaVuSans-53"/>
       <path d="M 8.203125 72.90625 
L 55.078125 72.90625 
L 55.078125 68.703125 
L 28.609375 0 
L 18.3125 0 
L 43.21875 64.59375 
L 8.203125 64.59375 
z
" id="DejaVuSans-55"/>
       <path d="M 31.78125 66.40625 
Q 24.171875 66.40625 20.328125 58.90625 
Q 16.5 51.421875 16.5 36.375 
Q 16.5 21.390625 20.328125 13.890625 
Q 24.171875 6.390625 31.78125 6.390625 
Q 39.453125 6.390625 43.28125 13.890625 
Q 47.125 21.390625 47.125 36.375 
Q 47.125 51.421875 43.28125 58.90625 
Q 39.453125 66.40625 31.78125 66.40625 
z
M 31.78125 74.21875 
Q 44.046875 74.21875 50.515625 64.515625 
Q 56.984375 54.828125 56.984375 36.375 
Q 56.984375 17.96875 50.515625 8.265625 
Q 44.046875 -1.421875 31.78125 -1.421875 
Q 19.53125 -1.421875 13.0625 8.265625 
Q 6.59375 17.96875 6.59375 36.375 
Q 6.59375 54.828125 13.0625 64.515625 
Q 19.53125 74.21875 31.78125 74.21875 
z
" id="DejaVuSans-48"/>
      </defs>
      <g transform="translate(92.188006 487.098437)scale(0.1 -0.1)">
       <use xlink:href="#DejaVuSans-53"/>
       <use x="63.623047" xlink:href="#DejaVuSans-55"/>
       <use x="127.246094" xlink:href="#DejaVuSans-48"/>
       <use x="190.869141" xlink:href="#DejaVuSans-48"/>
       <use x="254.492188" xlink:href="#DejaVuSans-48"/>
      </g>
     </g>
    </g>
    <g id="xtick_2">
     <g id="line2d_3">
      <path clip-path="url(#p4fbd4cd526)" d="M 214.937413 472.5 
L 214.937413 64.8 
" style="fill:none;stroke:#b0b0b0;stroke-linecap:square;stroke-width:0.8;"/>
     </g>
     <g id="line2d_4">
      <g>
       <use style="stroke:#000000;stroke-width:0.8;" x="214.937413" xlink:href="#m5f3ce06795" y="472.5"/>
      </g>
     </g>
     <g id="text_2">
      <!-- 57100 -->
      <defs>
       <path d="M 12.40625 8.296875 
L 28.515625 8.296875 
L 28.515625 63.921875 
L 10.984375 60.40625 
L 10.984375 69.390625 
L 28.421875 72.90625 
L 38.28125 72.90625 
L 38.28125 8.296875 
L 54.390625 8.296875 
L 54.390625 0 
L 12.40625 0 
z
" id="DejaVuSans-49"/>
      </defs>
      <g transform="translate(199.031163 487.098437)scale(0.1 -0.1)">
       <use xlink:href="#DejaVuSans-53"/>
       <use x="63.623047" xlink:href="#DejaVuSans-55"/>
       <use x="127.246094" xlink:href="#DejaVuSans-49"/>
       <use x="190.869141" xlink:href="#DejaVuSans-48"/>
       <use x="254.492188" xlink:href="#DejaVuSans-48"/>
      </g>
     </g>
    </g>
    <g id="xtick_3">
     <g id="line2d_5">
      <path clip-path="url(#p4fbd4cd526)" d="M 321.780569 472.5 
L 321.780569 64.8 
" style="fill:none;stroke:#b0b0b0;stroke-linecap:square;stroke-width:0.8;"/>
     </g>
     <g id="line2d_6">
      <g>
       <use style="stroke:#000000;stroke-width:0.8;" x="321.780569" xlink:href="#m5f3ce06795" y="472.5"/>
      </g>
     </g>
     <g id="text_3">
      <!-- 57200 -->
      <defs>
       <path d="M 19.1875 8.296875 
L 53.609375 8.296875 
L 53.609375 0 
L 7.328125 0 
L 7.328125 8.296875 
Q 12.9375 14.109375 22.625 23.890625 
Q 32.328125 33.6875 34.8125 36.53125 
Q 39.546875 41.84375 41.421875 45.53125 
Q 43.3125 49.21875 43.3125 52.78125 
Q 43.3125 58.59375 39.234375 62.25 
Q 35.15625 65.921875 28.609375 65.921875 
Q 23.96875 65.921875 18.8125 64.3125 
Q 13.671875 62.703125 7.8125 59.421875 
L 7.8125 69.390625 
Q 13.765625 71.78125 18.9375 73 
Q 24.125 74.21875 28.421875 74.21875 
Q 39.75 74.21875 46.484375 68.546875 
Q 53.21875 62.890625 53.21875 53.421875 
Q 53.21875 48.921875 51.53125 44.890625 
Q 49.859375 40.875 45.40625 35.40625 
Q 44.1875 33.984375 37.640625 27.21875 
Q 31.109375 20.453125 19.1875 8.296875 
z
" id="DejaVuSans-50"/>
      </defs>
      <g transform="translate(305.874319 487.098437)scale(0.1 -0.1)">
       <use xlink:href="#DejaVuSans-53"/>
       <use x="63.623047" xlink:href="#DejaVuSans-55"/>
       <use x="127.246094" xlink:href="#DejaVuSans-50"/>
       <use x="190.869141" xlink:href="#DejaVuSans-48"/>
       <use x="254.492188" xlink:href="#DejaVuSans-48"/>
      </g>
     </g>
    </g>
    <g id="xtick_4">
     <g id="line2d_7">
      <path clip-path="url(#p4fbd4cd526)" d="M 428.623726 472.5 
L 428.623726 64.8 
" style="fill:none;stroke:#b0b0b0;stroke-linecap:square;stroke-width:0.8;"/>
     </g>
     <g id="line2d_8">
      <g>
       <use style="stroke:#000000;stroke-width:0.8;" x="428.623726" xlink:href="#m5f3ce06795" y="472.5"/>
      </g>
     </g>
     <g id="text_4">
      <!-- 57300 -->
      <defs>
       <path d="M 40.578125 39.3125 
Q 47.65625 37.796875 51.625 33 
Q 55.609375 28.21875 55.609375 21.1875 
Q 55.609375 10.40625 48.1875 4.484375 
Q 40.765625 -1.421875 27.09375 -1.421875 
Q 22.515625 -1.421875 17.65625 -0.515625 
Q 12.796875 0.390625 7.625 2.203125 
L 7.625 11.71875 
Q 11.71875 9.328125 16.59375 8.109375 
Q 21.484375 6.890625 26.8125 6.890625 
Q 36.078125 6.890625 40.9375 10.546875 
Q 45.796875 14.203125 45.796875 21.1875 
Q 45.796875 27.640625 41.28125 31.265625 
Q 36.765625 34.90625 28.71875 34.90625 
L 20.21875 34.90625 
L 20.21875 43.015625 
L 29.109375 43.015625 
Q 36.375 43.015625 40.234375 45.921875 
Q 44.09375 48.828125 44.09375 54.296875 
Q 44.09375 59.90625 40.109375 62.90625 
Q 36.140625 65.921875 28.71875 65.921875 
Q 24.65625 65.921875 20.015625 65.03125 
Q 15.375 64.15625 9.8125 62.3125 
L 9.8125 71.09375 
Q 15.4375 72.65625 20.34375 73.4375 
Q 25.25 74.21875 29.59375 74.21875 
Q 40.828125 74.21875 47.359375 69.109375 
Q 53.90625 64.015625 53.90625 55.328125 
Q 53.90625 49.265625 50.4375 45.09375 
Q 46.96875 40.921875 40.578125 39.3125 
z
" id="DejaVuSans-51"/>
      </defs>
      <g transform="translate(412.717476 487.098437)scale(0.1 -0.1)">
       <use xlink:href="#DejaVuSans-53"/>
       <use x="63.623047" xlink:href="#DejaVuSans-55"/>
       <use x="127.246094" xlink:href="#DejaVuSans-51"/>
       <use x="190.869141" xlink:href="#DejaVuSans-48"/>
       <use x="254.492188" xlink:href="#DejaVuSans-48"/>
      </g>
     </g>
    </g>
    <g id="xtick_5">
     <g id="line2d_9">
      <path clip-path="url(#p4fbd4cd526)" d="M 535.466883 472.5 
L 535.466883 64.8 
" style="fill:none;stroke:#b0b0b0;stroke-linecap:square;stroke-width:0.8;"/>
     </g>
     <g id="line2d_10">
      <g>
       <use style="stroke:#000000;stroke-width:0.8;" x="535.466883" xlink:href="#m5f3ce06795" y="472.5"/>
      </g>
     </g>
     <g id="text_5">
      <!-- 57400 -->
      <defs>
       <path d="M 37.796875 64.3125 
L 12.890625 25.390625 
L 37.796875 25.390625 
z
M 35.203125 72.90625 
L 47.609375 72.90625 
L 47.609375 25.390625 
L 58.015625 25.390625 
L 58.015625 17.1875 
L 47.609375 17.1875 
L 47.609375 0 
L 37.796875 0 
L 37.796875 17.1875 
L 4.890625 17.1875 
L 4.890625 26.703125 
z
" id="DejaVuSans-52"/>
      </defs>
      <g transform="translate(519.560633 487.098437)scale(0.1 -0.1)">
       <use xlink:href="#DejaVuSans-53"/>
       <use x="63.623047" xlink:href="#DejaVuSans-55"/>
       <use x="127.246094" xlink:href="#DejaVuSans-52"/>
       <use x="190.869141" xlink:href="#DejaVuSans-48"/>
       <use x="254.492188" xlink:href="#DejaVuSans-48"/>
      </g>
     </g>
    </g>
    <g id="xtick_6">
     <g id="line2d_11">
      <path clip-path="url(#p4fbd4cd526)" d="M 642.31004 472.5 
L 642.31004 64.8 
" style="fill:none;stroke:#b0b0b0;stroke-linecap:square;stroke-width:0.8;"/>
     </g>
     <g id="line2d_12">
      <g>
       <use style="stroke:#000000;stroke-width:0.8;" x="642.31004" xlink:href="#m5f3ce06795" y="472.5"/>
      </g>
     </g>
     <g id="text_6">
      <!-- 57500 -->
      <g transform="translate(626.40379 487.098437)scale(0.1 -0.1)">
       <use xlink:href="#DejaVuSans-53"/>
       <use x="63.623047" xlink:href="#DejaVuSans-55"/>
       <use x="127.246094" xlink:href="#DejaVuSans-53"/>
       <use x="190.869141" xlink:href="#DejaVuSans-48"/>
       <use x="254.492188" xlink:href="#DejaVuSans-48"/>
      </g>
     </g>
    </g>
    <g id="text_7">
     <!-- $t$ -->
     <defs>
      <path d="M 42.28125 54.6875 
L 40.921875 47.703125 
L 23 47.703125 
L 17.1875 18.015625 
Q 16.890625 16.359375 16.75 15.234375 
Q 16.609375 14.109375 16.609375 13.484375 
Q 16.609375 10.359375 18.484375 8.9375 
Q 20.359375 7.515625 24.515625 7.515625 
L 33.59375 7.515625 
L 32.078125 0 
L 23.484375 0 
Q 15.484375 0 11.546875 3.125 
Q 7.625 6.25 7.625 12.59375 
Q 7.625 13.71875 7.765625 15.0625 
Q 7.90625 16.40625 8.203125 18.015625 
L 14.015625 47.703125 
L 6.390625 47.703125 
L 7.8125 54.6875 
L 15.28125 54.6875 
L 18.3125 70.21875 
L 27.296875 70.21875 
L 24.3125 54.6875 
z
" id="DejaVuSans-Oblique-116"/>
     </defs>
     <g transform="translate(422.35 500.776563)scale(0.1 -0.1)">
      <use transform="translate(0 0.78125)" xlink:href="#DejaVuSans-Oblique-116"/>
     </g>
    </g>
   </g>
   <g id="matplotlib.axis_2">
    <g id="ytick_1">
     <g id="line2d_13">
      <path clip-path="url(#p4fbd4cd526)" d="M 103.5 455.897454 
L 745.2 455.897454 
" style="fill:none;stroke:#b0b0b0;stroke-linecap:square;stroke-width:0.8;"/>
     </g>
     <g id="line2d_14">
      <defs>
       <path d="M 0 0 
L -3.5 0 
" id="mf24c94fd98" style="stroke:#000000;stroke-width:0.8;"/>
      </defs>
      <g>
       <use style="stroke:#000000;stroke-width:0.8;" x="103.5" xlink:href="#mf24c94fd98" y="455.897454"/>
      </g>
     </g>
     <g id="text_8">
      <!-- −100 -->
      <defs>
       <path d="M 10.59375 35.5 
L 73.1875 35.5 
L 73.1875 27.203125 
L 10.59375 27.203125 
z
" id="DejaVuSans-8722"/>
      </defs>
      <g transform="translate(69.032813 459.696673)scale(0.1 -0.1)">
       <use xlink:href="#DejaVuSans-8722"/>
       <use x="83.789062" xlink:href="#DejaVuSans-49"/>
       <use x="147.412109" xlink:href="#DejaVuSans-48"/>
       <use x="211.035156" xlink:href="#DejaVuSans-48"/>
      </g>
     </g>
    </g>
    <g id="ytick_2">
     <g id="line2d_15">
      <path clip-path="url(#p4fbd4cd526)" d="M 103.5 409.675925 
L 745.2 409.675925 
" style="fill:none;stroke:#b0b0b0;stroke-linecap:square;stroke-width:0.8;"/>
     </g>
     <g id="line2d_16">
      <g>
       <use style="stroke:#000000;stroke-width:0.8;" x="103.5" xlink:href="#mf24c94fd98" y="409.675925"/>
      </g>
     </g>
     <g id="text_9">
      <!-- −50 -->
      <g transform="translate(75.395313 413.475143)scale(0.1 -0.1)">
       <use xlink:href="#DejaVuSans-8722"/>
       <use x="83.789062" xlink:href="#DejaVuSans-53"/>
       <use x="147.412109" xlink:href="#DejaVuSans-48"/>
      </g>
     </g>
    </g>
    <g id="ytick_3">
     <g id="line2d_17">
      <path clip-path="url(#p4fbd4cd526)" d="M 103.5 363.454396 
L 745.2 363.454396 
" style="fill:none;stroke:#b0b0b0;stroke-linecap:square;stroke-width:0.8;"/>
     </g>
     <g id="line2d_18">
      <g>
       <use style="stroke:#000000;stroke-width:0.8;" x="103.5" xlink:href="#mf24c94fd98" y="363.454396"/>
      </g>
     </g>
     <g id="text_10">
      <!-- 0 -->
      <g transform="translate(90.1375 367.253614)scale(0.1 -0.1)">
       <use xlink:href="#DejaVuSans-48"/>
      </g>
     </g>
    </g>
    <g id="ytick_4">
     <g id="line2d_19">
      <path clip-path="url(#p4fbd4cd526)" d="M 103.5 317.232866 
L 745.2 317.232866 
" style="fill:none;stroke:#b0b0b0;stroke-linecap:square;stroke-width:0.8;"/>
     </g>
     <g id="line2d_20">
      <g>
       <use style="stroke:#000000;stroke-width:0.8;" x="103.5" xlink:href="#mf24c94fd98" y="317.232866"/>
      </g>
     </g>
     <g id="text_11">
      <!-- 50 -->
      <g transform="translate(83.775 321.032085)scale(0.1 -0.1)">
       <use xlink:href="#DejaVuSans-53"/>
       <use x="63.623047" xlink:href="#DejaVuSans-48"/>
      </g>
     </g>
    </g>
    <g id="ytick_5">
     <g id="line2d_21">
      <path clip-path="url(#p4fbd4cd526)" d="M 103.5 271.011337 
L 745.2 271.011337 
" style="fill:none;stroke:#b0b0b0;stroke-linecap:square;stroke-width:0.8;"/>
     </g>
     <g id="line2d_22">
      <g>
       <use style="stroke:#000000;stroke-width:0.8;" x="103.5" xlink:href="#mf24c94fd98" y="271.011337"/>
      </g>
     </g>
     <g id="text_12">
      <!-- 100 -->
      <g transform="translate(77.4125 274.810556)scale(0.1 -0.1)">
       <use xlink:href="#DejaVuSans-49"/>
       <use x="63.623047" xlink:href="#DejaVuSans-48"/>
       <use x="127.246094" xlink:href="#DejaVuSans-48"/>
      </g>
     </g>
    </g>
    <g id="ytick_6">
     <g id="line2d_23">
      <path clip-path="url(#p4fbd4cd526)" d="M 103.5 224.789808 
L 745.2 224.789808 
" style="fill:none;stroke:#b0b0b0;stroke-linecap:square;stroke-width:0.8;"/>
     </g>
     <g id="line2d_24">
      <g>
       <use style="stroke:#000000;stroke-width:0.8;" x="103.5" xlink:href="#mf24c94fd98" y="224.789808"/>
      </g>
     </g>
     <g id="text_13">
      <!-- 150 -->
      <g transform="translate(77.4125 228.589027)scale(0.1 -0.1)">
       <use xlink:href="#DejaVuSans-49"/>
       <use x="63.623047" xlink:href="#DejaVuSans-53"/>
       <use x="127.246094" xlink:href="#DejaVuSans-48"/>
      </g>
     </g>
    </g>
    <g id="ytick_7">
     <g id="line2d_25">
      <path clip-path="url(#p4fbd4cd526)" d="M 103.5 178.568279 
L 745.2 178.568279 
" style="fill:none;stroke:#b0b0b0;stroke-linecap:square;stroke-width:0.8;"/>
     </g>
     <g id="line2d_26">
      <g>
       <use style="stroke:#000000;stroke-width:0.8;" x="103.5" xlink:href="#mf24c94fd98" y="178.568279"/>
      </g>
     </g>
     <g id="text_14">
      <!-- 200 -->
      <g transform="translate(77.4125 182.367498)scale(0.1 -0.1)">
       <use xlink:href="#DejaVuSans-50"/>
       <use x="63.623047" xlink:href="#DejaVuSans-48"/>
       <use x="127.246094" xlink:href="#DejaVuSans-48"/>
      </g>
     </g>
    </g>
    <g id="ytick_8">
     <g id="line2d_27">
      <path clip-path="url(#p4fbd4cd526)" d="M 103.5 132.34675 
L 745.2 132.34675 
" style="fill:none;stroke:#b0b0b0;stroke-linecap:square;stroke-width:0.8;"/>
     </g>
     <g id="line2d_28">
      <g>
       <use style="stroke:#000000;stroke-width:0.8;" x="103.5" xlink:href="#mf24c94fd98" y="132.34675"/>
      </g>
     </g>
     <g id="text_15">
      <!-- 250 -->
      <g transform="translate(77.4125 136.145968)scale(0.1 -0.1)">
       <use xlink:href="#DejaVuSans-50"/>
       <use x="63.623047" xlink:href="#DejaVuSans-53"/>
       <use x="127.246094" xlink:href="#DejaVuSans-48"/>
      </g>
     </g>
    </g>
    <g id="ytick_9">
     <g id="line2d_29">
      <path clip-path="url(#p4fbd4cd526)" d="M 103.5 86.12522 
L 745.2 86.12522 
" style="fill:none;stroke:#b0b0b0;stroke-linecap:square;stroke-width:0.8;"/>
     </g>
     <g id="line2d_30">
      <g>
       <use style="stroke:#000000;stroke-width:0.8;" x="103.5" xlink:href="#mf24c94fd98" y="86.12522"/>
      </g>
     </g>
     <g id="text_16">
      <!-- 300 -->
      <g transform="translate(77.4125 89.924439)scale(0.1 -0.1)">
       <use xlink:href="#DejaVuSans-51"/>
       <use x="63.623047" xlink:href="#DejaVuSans-48"/>
       <use x="127.246094" xlink:href="#DejaVuSans-48"/>
      </g>
     </g>
    </g>
    <g id="text_17">
     <!-- $x$ -->
     <defs>
      <path d="M 60.015625 54.6875 
L 34.90625 27.875 
L 50.296875 0 
L 39.984375 0 
L 28.421875 21.6875 
L 8.296875 0 
L -2.59375 0 
L 24.3125 28.8125 
L 10.015625 54.6875 
L 20.3125 54.6875 
L 30.8125 34.90625 
L 49.125 54.6875 
z
" id="DejaVuSans-Oblique-120"/>
     </defs>
     <g transform="translate(62.953125 271.65)rotate(-90)scale(0.1 -0.1)">
      <use transform="translate(0 0.3125)" xlink:href="#DejaVuSans-Oblique-120"/>
     </g>
    </g>
   </g>
   <g id="line2d_31">
    <path clip-path="url(#p4fbd4cd526)" d="M 132.668182 335.078999 
L 133.736613 336.151338 
L 134.805045 336.782724 
L 136.941908 337.167287 
L 138.01034 337.624881 
L 139.078771 338.39678 
L 141.215634 340.748532 
L 145.489361 344.587692 
L 146.557792 345.968791 
L 147.626224 347.601335 
L 150.831518 353.530633 
L 151.89995 354.949634 
L 152.968382 355.993316 
L 154.036813 356.672773 
L 155.105245 357.090615 
L 156.173676 357.734019 
L 159.378971 360.883554 
L 160.447403 361.310641 
L 162.584266 361.464096 
L 163.652697 360.838257 
L 165.78956 359.181677 
L 166.857992 359.145625 
L 168.994855 359.875925 
L 170.063287 360.546137 
L 172.20015 361.559313 
L 173.268581 361.749746 
L 176.473876 361.427119 
L 177.542308 361.404008 
L 180.747602 360.917758 
L 182.884466 360.824391 
L 183.952897 360.965828 
L 185.021329 360.899269 
L 187.158192 361.355938 
L 188.226623 361.266268 
L 189.295055 360.664464 
L 190.363487 360.362175 
L 191.431918 360.577568 
L 192.50035 360.587736 
L 193.568781 360.417641 
L 195.705644 360.608074 
L 197.842507 359.899035 
L 198.910939 359.884245 
L 199.979371 359.592125 
L 201.047802 359.014355 
L 202.116234 358.814678 
L 203.184665 359.165038 
L 204.253097 359.79365 
L 205.321528 360.169894 
L 209.595255 361.009277 
L 210.663686 360.887252 
L 213.868981 360.966753 
L 214.937413 360.385286 
L 216.005844 359.265801 
L 217.074276 357.70074 
L 218.142707 356.43427 
L 220.27957 354.847022 
L 221.348002 354.147228 
L 222.416434 353.645263 
L 225.621728 352.881683 
L 227.758591 351.885147 
L 228.827023 350.774906 
L 230.963886 347.309215 
L 232.032318 346.333941 
L 237.374476 343.668808 
L 238.442907 343.59208 
L 239.511339 343.888822 
L 240.57977 344.034882 
L 242.716633 343.666034 
L 243.785065 343.232477 
L 244.853497 342.013153 
L 248.058791 339.258349 
L 251.264086 336.779951 
L 252.332517 335.637355 
L 253.400949 334.662081 
L 254.469381 333.837488 
L 255.537812 332.485971 
L 257.674675 329.368791 
L 258.743107 328.211404 
L 260.87997 326.672227 
L 263.016833 326.292286 
L 264.085265 325.814355 
L 265.153696 325.049851 
L 266.222128 324.447123 
L 267.290559 323.323015 
L 268.358991 321.823589 
L 270.495854 318.160995 
L 274.76958 312.221528 
L 276.906444 308.911142 
L 279.043307 304.505306 
L 281.18017 300.715141 
L 282.248601 298.757197 
L 283.317033 297.138519 
L 284.385465 295.122336 
L 288.659191 288.647624 
L 291.864486 282.837578 
L 294.001349 279.312724 
L 295.06978 278.056423 
L 296.138212 277.289145 
L 297.206643 276.775162 
L 298.275075 275.811905 
L 299.343506 274.668385 
L 300.411938 274.125744 
L 301.48037 273.716221 
L 303.617233 271.916355 
L 304.685664 270.637867 
L 305.754096 268.9212 
L 307.890959 264.361908 
L 310.027822 259.419902 
L 311.096254 257.152274 
L 318.575275 244.099314 
L 319.643706 241.976821 
L 320.712138 239.584395 
L 321.780569 237.618131 
L 323.917433 234.577679 
L 327.122727 230.741292 
L 329.25959 228.022542 
L 330.328022 226.140401 
L 331.396454 224.006815 
L 336.738611 215.09438 
L 337.807043 212.851711 
L 339.943906 207.972567 
L 341.012338 205.950837 
L 345.286064 199.489992 
L 346.354496 198.12923 
L 347.422927 196.978314 
L 350.628222 194.316878 
L 353.833516 190.364013 
L 357.038811 185.130812 
L 360.244106 180.349657 
L 362.380969 176.583526 
L 364.517832 172.206348 
L 365.586264 170.520186 
L 366.654695 169.332293 
L 368.791558 168.15919 
L 371.996853 165.93501 
L 375.202148 161.523628 
L 376.270579 160.590877 
L 377.339011 160.166564 
L 378.407443 160.631552 
L 379.475874 160.62693 
L 380.544306 160.100005 
L 381.612737 158.961106 
L 382.681169 158.039449 
L 383.7496 157.264776 
L 384.818032 156.350514 
L 385.886464 155.150603 
L 386.954895 154.525688 
L 389.091758 154.441565 
L 390.16019 154.587625 
L 393.365485 154.339878 
L 394.433916 153.98767 
L 395.502348 153.248125 
L 396.570779 152.780363 
L 397.639211 152.758177 
L 398.707642 152.615815 
L 399.776074 152.808096 
L 400.844505 153.198206 
L 401.912937 153.956239 
L 402.981369 154.874199 
L 404.0498 155.606348 
L 407.255095 155.81342 
L 408.323526 156.152686 
L 409.391958 156.826596 
L 411.528821 158.810424 
L 412.597253 159.628545 
L 413.665684 160.617686 
L 414.734116 161.231508 
L 415.802547 161.675234 
L 416.870979 161.831463 
L 417.939411 161.854574 
L 419.007842 161.750113 
L 420.076274 162.248381 
L 421.144705 163.46863 
L 424.35 169.217663 
L 425.418432 169.949812 
L 426.486863 170.003429 
L 427.555295 170.243781 
L 429.692158 171.035094 
L 432.897453 173.223221 
L 433.965884 174.615414 
L 436.102747 178.626518 
L 441.444905 187.783927 
L 442.513337 189.375797 
L 443.581768 190.74303 
L 445.718631 192.623321 
L 446.787063 193.590276 
L 447.855495 194.785565 
L 449.992358 197.900896 
L 451.060789 198.875245 
L 452.129221 199.448392 
L 453.197652 200.374672 
L 454.266084 202.075624 
L 455.334515 204.532761 
L 456.402947 207.441019 
L 457.471379 209.904627 
L 459.608242 213.349055 
L 460.676673 214.63124 
L 461.745105 215.679545 
L 462.813536 217.352764 
L 463.881968 219.260789 
L 464.9504 220.721389 
L 466.018831 221.895416 
L 472.429421 231.567733 
L 474.566284 235.075023 
L 475.634715 236.895226 
L 478.84001 243.34313 
L 479.908442 245.218799 
L 483.113736 251.883944 
L 484.182168 253.057046 
L 485.250599 253.948197 
L 486.319031 254.60177 
L 487.387463 255.824792 
L 489.524326 259.304348 
L 491.661189 262.956773 
L 492.72962 264.397036 
L 493.798052 265.535935 
L 494.866484 266.430784 
L 497.003347 268.818588 
L 498.071778 269.962108 
L 499.14021 271.736091 
L 501.277073 276.703981 
L 503.413936 280.830639 
L 505.550799 284.869476 
L 507.687662 287.605791 
L 509.824525 291.329397 
L 515.166683 302.042623 
L 516.235115 304.358322 
L 518.371978 308.310262 
L 524.782567 319.975652 
L 526.919431 322.638012 
L 527.987862 324.382412 
L 529.056294 325.902176 
L 530.124725 326.887619 
L 531.193157 328.372255 
L 532.261588 330.305239 
L 535.466883 334.699982 
L 536.535315 336.195711 
L 537.603746 337.366964 
L 539.740609 340.347329 
L 541.877473 343.766797 
L 544.014336 348.283565 
L 545.082767 350.639939 
L 546.151199 353.286584 
L 547.21963 355.598584 
L 548.288062 357.235751 
L 552.561788 361.332827 
L 553.63022 362.663083 
L 555.767083 366.5309 
L 556.835514 367.888889 
L 557.903946 368.732894 
L 558.972378 369.416048 
L 562.177672 372.315987 
L 564.314535 372.415826 
L 565.382967 372.576677 
L 571.793556 376.340033 
L 572.861988 377.080502 
L 574.998851 379.51083 
L 576.067283 380.705195 
L 577.135714 381.358767 
L 578.204146 381.852413 
L 579.272577 382.802728 
L 580.341009 383.4563 
L 581.409441 383.736403 
L 582.477872 383.833468 
L 583.546304 384.059029 
L 585.683167 385.898646 
L 586.751598 386.5402 
L 587.82003 386.293378 
L 588.888462 385.681404 
L 589.956893 385.334743 
L 591.025325 385.465088 
L 592.093756 385.336592 
L 596.367483 386.677941 
L 597.435914 386.649283 
L 599.572777 386.848036 
L 600.641209 386.400611 
L 601.70964 385.661067 
L 602.778072 384.532337 
L 603.846503 382.76575 
L 604.914935 380.383493 
L 605.983367 378.348821 
L 607.051798 376.861412 
L 608.12023 376.128339 
L 609.188661 375.949924 
L 610.257093 376.102455 
L 611.325524 376.124641 
L 612.393956 375.752096 
L 614.530819 374.440329 
L 616.667682 372.990821 
L 617.736114 372.11631 
L 618.804545 371.528372 
L 620.941409 370.975563 
L 622.00984 370.53276 
L 623.078272 369.471514 
L 624.146703 367.924942 
L 625.215135 365.820013 
L 626.283566 364.151416 
L 629.488861 360.401001 
L 630.557293 359.229748 
L 636.967882 350.870122 
L 638.036314 349.156228 
L 641.241608 344.698623 
L 642.31004 343.107678 
L 643.378472 341.215369 
L 644.446903 339.631819 
L 645.515335 338.446699 
L 646.583766 337.540757 
L 649.789061 335.266658 
L 650.857493 333.798662 
L 651.925924 331.53011 
L 654.062787 327.816672 
L 655.131219 325.891083 
L 656.19965 324.347284 
L 657.268082 323.335033 
L 658.336513 321.982591 
L 661.541808 317.108068 
L 669.020829 303.786099 
L 671.157692 300.557063 
L 672.226124 299.285971 
L 673.294555 298.329185 
L 674.362987 297.717212 
L 675.431419 296.6005 
L 677.568282 292.89908 
L 679.705145 288.704939 
L 680.773576 287.047434 
L 681.842008 284.972088 
L 683.978871 279.888644 
L 686.115734 275.527181 
L 688.252597 272.106787 
L 689.321029 270.958645 
L 690.389461 269.633011 
L 691.457892 268.538485 
L 692.526324 267.682463 
L 694.663187 265.440718 
L 695.731618 263.998607 
L 696.80005 262.28009 
L 697.868482 259.783203 
L 700.005345 254.413186 
L 703.210639 246.723772 
L 707.484366 239.47901 
L 709.621229 235.265455 
L 714.963387 226.082162 
L 716.031818 224.58366 
L 716.031818 224.58366 
" style="fill:none;stroke:#000000;stroke-linecap:square;stroke-width:1.5;"/>
   </g>
   <g id="line2d_32">
    <path clip-path="url(#p4fbd4cd526)" d="M 132.668182 405.115446 
L 135.873477 409.069127 
L 139.078771 412.715108 
L 142.284066 416.043115 
L 145.489361 419.043588 
L 148.694655 421.707714 
L 151.89995 424.02745 
L 155.105245 425.995543 
L 158.310539 427.605556 
L 160.447403 428.477163 
L 162.584266 429.185662 
L 164.721129 429.729774 
L 166.857992 430.108388 
L 168.994855 430.320569 
L 171.131718 430.365556 
L 173.268581 430.242765 
L 175.405445 429.951788 
L 177.542308 429.492398 
L 179.679171 428.864546 
L 181.816034 428.068361 
L 183.952897 427.104155 
L 186.08976 425.97242 
L 189.295055 423.962214 
L 192.50035 421.579643 
L 195.705644 418.828636 
L 198.910939 415.714025 
L 202.116234 412.241537 
L 205.321528 408.417778 
L 208.526823 404.250224 
L 211.732118 399.747209 
L 214.937413 394.917902 
L 219.211139 387.988638 
L 223.484865 380.523018 
L 227.758591 372.549331 
L 232.032318 364.098175 
L 236.306044 355.202339 
L 241.648202 343.510478 
L 246.99036 331.250609 
L 253.400949 315.896892 
L 259.811538 299.974579 
L 268.358991 278.11256 
L 298.275075 200.91987 
L 304.685664 185.271816 
L 310.027822 172.725514 
L 315.36998 160.717736 
L 320.712138 149.329248 
L 324.985864 140.716264 
L 329.25959 132.586535 
L 333.533317 124.975669 
L 337.807043 117.917206 
L 341.012338 113.0048 
L 344.217632 108.433134 
L 347.422927 104.213778 
L 350.628222 100.357491 
L 353.833516 96.874197 
L 357.038811 93.772959 
L 360.244106 91.06195 
L 363.449401 88.748438 
L 365.586264 87.430098 
L 367.723127 86.292905 
L 369.85999 85.338316 
L 371.996853 84.567598 
L 374.133716 83.981825 
L 376.270579 83.581876 
L 378.407443 83.368436 
L 380.544306 83.341996 
L 382.681169 83.502847 
L 384.818032 83.851085 
L 386.954895 84.386608 
L 389.091758 85.109114 
L 391.228621 86.018107 
L 393.365485 87.112889 
L 395.502348 88.392569 
L 397.639211 89.856057 
L 400.844505 92.393065 
L 404.0498 95.335551 
L 407.255095 98.677386 
L 410.46039 102.411481 
L 413.665684 106.529803 
L 416.870979 111.023391 
L 420.076274 115.882375 
L 423.281568 121.095999 
L 426.486863 126.652647 
L 430.760589 134.573465 
L 435.034316 143.05014 
L 439.308042 152.04852 
L 443.581768 161.532177 
L 448.923926 174.010236 
L 454.266084 187.106561 
L 460.676673 203.519908 
L 467.087263 220.550674 
L 475.634715 243.944606 
L 505.550799 326.592368 
L 511.961389 343.356138 
L 517.303546 356.802118 
L 522.645704 369.677317 
L 527.987862 381.89684 
L 532.261588 391.145977 
L 536.535315 399.884561 
L 540.809041 408.075528 
L 545.082767 415.684074 
L 548.288062 420.988694 
L 551.493357 425.934709 
L 554.698651 430.510233 
L 557.903946 434.704249 
L 561.109241 438.506637 
L 564.314535 441.908198 
L 567.51983 444.900674 
L 570.725125 447.476772 
L 572.861988 448.959692 
L 574.998851 450.253105 
L 577.135714 451.355585 
L 579.272577 452.265907 
L 581.409441 452.983046 
L 583.546304 453.506182 
L 585.683167 453.834699 
L 587.82003 453.968182 
L 589.956893 453.906424 
L 592.093756 453.649424 
L 594.230619 453.197383 
L 596.367483 452.55071 
L 598.504346 451.710017 
L 600.641209 450.67612 
L 602.778072 449.450041 
L 604.914935 448.033 
L 607.051798 446.426422 
L 610.257093 443.664773 
L 613.462388 440.486669 
L 616.667682 436.899402 
L 619.872977 432.911236 
L 623.078272 428.53138 
L 626.283566 423.769973 
L 629.488861 418.638056 
L 632.694156 413.147544 
L 636.967882 405.291227 
L 641.241608 396.852694 
L 645.515335 387.866888 
L 649.789061 378.371045 
L 654.062787 368.404537 
L 659.404945 355.347677 
L 664.747103 341.704747 
L 671.157692 324.684357 
L 678.636713 304.133896 
L 688.252597 277.017368 
L 707.484366 222.5924 
L 714.963387 202.132226 
L 716.031818 199.26809 
L 716.031818 199.26809 
" style="fill:none;stroke:#ff0000;stroke-linecap:square;stroke-width:1.5;"/>
   </g>
   <g id="patch_3">
    <path d="M 103.5 472.5 
L 103.5 64.8 
" style="fill:none;stroke:#000000;stroke-linecap:square;stroke-linejoin:miter;stroke-width:0.8;"/>
   </g>
   <g id="patch_4">
    <path d="M 745.2 472.5 
L 745.2 64.8 
" style="fill:none;stroke:#000000;stroke-linecap:square;stroke-linejoin:miter;stroke-width:0.8;"/>
   </g>
   <g id="patch_5">
    <path d="M 103.5 472.5 
L 745.2 472.5 
" style="fill:none;stroke:#000000;stroke-linecap:square;stroke-linejoin:miter;stroke-width:0.8;"/>
   </g>
   <g id="patch_6">
    <path d="M 103.5 64.8 
L 745.2 64.8 
" style="fill:none;stroke:#000000;stroke-linecap:square;stroke-linejoin:miter;stroke-width:0.8;"/>
   </g>
   <g id="legend_1">
    <g id="patch_7">
     <path d="M 658.6 103.178125 
L 738.2 103.178125 
Q 740.2 103.178125 740.2 101.178125 
L 740.2 71.8 
Q 740.2 69.8 738.2 69.8 
L 658.6 69.8 
Q 656.6 69.8 656.6 71.8 
L 656.6 101.178125 
Q 656.6 103.178125 658.6 103.178125 
z
" style="fill:#ffffff;opacity:0.8;stroke:#cccccc;stroke-linejoin:miter;"/>
    </g>
    <g id="line2d_33">
     <path d="M 660.6 77.898438 
L 680.6 77.898438 
" style="fill:none;stroke:#000000;stroke-linecap:square;stroke-width:1.5;"/>
    </g>
    <g id="line2d_34"/>
    <g id="text_18">
     <!-- $x(t)$ -->
     <defs>
      <path d="M 31 75.875 
Q 24.46875 64.65625 21.28125 53.65625 
Q 18.109375 42.671875 18.109375 31.390625 
Q 18.109375 20.125 21.3125 9.0625 
Q 24.515625 -2 31 -13.1875 
L 23.1875 -13.1875 
Q 15.875 -1.703125 12.234375 9.375 
Q 8.59375 20.453125 8.59375 31.390625 
Q 8.59375 42.28125 12.203125 53.3125 
Q 15.828125 64.359375 23.1875 75.875 
z
" id="DejaVuSans-40"/>
      <path d="M 8.015625 75.875 
L 15.828125 75.875 
Q 23.140625 64.359375 26.78125 53.3125 
Q 30.421875 42.28125 30.421875 31.390625 
Q 30.421875 20.453125 26.78125 9.375 
Q 23.140625 -1.703125 15.828125 -13.1875 
L 8.015625 -13.1875 
Q 14.5 -2 17.703125 9.0625 
Q 20.90625 20.125 20.90625 31.390625 
Q 20.90625 42.671875 17.703125 53.65625 
Q 14.5 64.65625 8.015625 75.875 
z
" id="DejaVuSans-41"/>
     </defs>
     <g transform="translate(688.6 81.398438)scale(0.1 -0.1)">
      <use transform="translate(0 0.125)" xlink:href="#DejaVuSans-Oblique-120"/>
      <use transform="translate(59.179688 0.125)" xlink:href="#DejaVuSans-40"/>
      <use transform="translate(98.193359 0.125)" xlink:href="#DejaVuSans-Oblique-116"/>
      <use transform="translate(137.402344 0.125)" xlink:href="#DejaVuSans-41"/>
     </g>
    </g>
    <g id="line2d_35">
     <path d="M 660.6 92.578125 
L 680.6 92.578125 
" style="fill:none;stroke:#ff0000;stroke-linecap:square;stroke-width:1.5;"/>
    </g>
    <g id="line2d_36"/>
    <g id="text_19">
     <!-- $x(t)_{прогноз}$ -->
     <defs>
      <path d="M 61.625 54.6875 
L 50.984375 0 
L 41.9375 0 
L 51.171875 47.515625 
L 22.015625 47.515625 
L 12.796875 0 
L 3.765625 0 
L 14.40625 54.6875 
z
" id="DejaVuSans-Oblique-1087"/>
      <path d="M 49.609375 33.6875 
Q 49.609375 40.875 46.484375 44.671875 
Q 43.359375 48.484375 37.5 48.484375 
Q 33.5 48.484375 29.859375 46.4375 
Q 26.21875 44.390625 23.390625 40.484375 
Q 20.609375 36.625 18.9375 31.15625 
Q 17.28125 25.6875 17.28125 20.3125 
Q 17.28125 13.484375 20.40625 9.796875 
Q 23.53125 6.109375 29.296875 6.109375 
Q 33.546875 6.109375 37.1875 8.109375 
Q 40.828125 10.109375 43.40625 13.921875 
Q 46.1875 17.921875 47.890625 23.34375 
Q 49.609375 28.765625 49.609375 33.6875 
z
M 21.78125 46.390625 
Q 25.390625 51.125 30.296875 53.5625 
Q 35.203125 56 41.21875 56 
Q 49.609375 56 54.25 50.5 
Q 58.890625 45.015625 58.890625 35.109375 
Q 58.890625 27 56 19.65625 
Q 53.125 12.3125 47.703125 6.5 
Q 44.09375 2.640625 39.546875 0.609375 
Q 35.015625 -1.421875 29.984375 -1.421875 
Q 24.171875 -1.421875 20.21875 1 
Q 16.265625 3.421875 14.3125 8.203125 
L 8.6875 -20.796875 
L -0.296875 -20.796875 
L 14.40625 54.6875 
L 23.390625 54.6875 
z
" id="DejaVuSans-Oblique-1088"/>
      <path d="M 25.390625 -1.421875 
Q 15.765625 -1.421875 10.171875 4.515625 
Q 4.59375 10.453125 4.59375 20.703125 
Q 4.59375 26.65625 6.515625 32.828125 
Q 8.453125 39.015625 11.53125 43.21875 
Q 16.359375 49.75 22.3125 52.875 
Q 28.265625 56 35.796875 56 
Q 45.125 56 50.859375 50.1875 
Q 56.59375 44.390625 56.59375 35.015625 
Q 56.59375 28.515625 54.6875 22.0625 
Q 52.78125 15.625 49.703125 11.375 
Q 44.921875 4.828125 38.96875 1.703125 
Q 33.015625 -1.421875 25.390625 -1.421875 
z
M 13.921875 21 
Q 13.921875 13.578125 17.015625 9.890625 
Q 20.125 6.203125 26.421875 6.203125 
Q 35.453125 6.203125 41.375 14.078125 
Q 47.3125 21.96875 47.3125 34.078125 
Q 47.3125 41.15625 44.140625 44.765625 
Q 40.96875 48.390625 34.8125 48.390625 
Q 29.734375 48.390625 25.78125 46.015625 
Q 21.828125 43.65625 18.703125 38.8125 
Q 16.40625 35.203125 15.15625 30.5625 
Q 13.921875 25.921875 13.921875 21 
z
" id="DejaVuSans-Oblique-1086"/>
      <path d="M 3.765625 0 
L 14.40625 54.6875 
L 52.984375 54.6875 
L 51.5625 47.515625 
L 22.015625 47.515625 
L 12.796875 0 
z
" id="DejaVuSans-Oblique-1075"/>
      <path d="M 14.40625 54.6875 
L 23.4375 54.6875 
L 19.09375 32.375 
L 48.25 32.375 
L 52.59375 54.6875 
L 61.625 54.6875 
L 50.984375 0 
L 41.9375 0 
L 46.828125 25.203125 
L 17.671875 25.203125 
L 12.796875 0 
L 3.765625 0 
z
" id="DejaVuSans-Oblique-1085"/>
      <path d="M 18.265625 32.859375 
L 25.828125 32.859375 
Q 31.5 32.859375 35.59375 35.25 
Q 39.703125 37.640625 39.703125 41.65625 
Q 39.703125 44.140625 36.984375 46.1875 
Q 34.28125 48.25 29.640625 48.25 
Q 21.34375 48.25 11.921875 45.5625 
L 13.484375 53.71875 
Q 23.53125 56.0625 31.9375 56.0625 
Q 40.28125 56.0625 44.546875 52.640625 
Q 48.828125 49.21875 48.828125 44.390625 
Q 48.828125 37.984375 44.140625 33.84375 
Q 40.578125 30.671875 34.90625 29.5 
Q 40.71875 28.328125 43.40625 24.75 
Q 45.359375 22.171875 45.359375 18.703125 
Q 45.359375 17.390625 45.0625 15.921875 
Q 43.40625 7.46875 36.25 3.015625 
Q 29.109375 -1.421875 17.484375 -1.421875 
Q 9.71875 -1.421875 1.421875 1.3125 
L 3.078125 9.671875 
Q 9.328125 6.0625 17.671875 6.0625 
Q 26.03125 6.0625 31.203125 9.109375 
Q 36.375 12.15625 36.375 17.578125 
Q 36.375 20.75 33.5625 23.09375 
Q 30.765625 25.4375 24.078125 25.4375 
L 16.84375 25.4375 
z
" id="DejaVuSans-Oblique-1079"/>
     </defs>
     <g transform="translate(688.6 96.078125)scale(0.1 -0.1)">
      <use transform="translate(0 0.125)" xlink:href="#DejaVuSans-Oblique-120"/>
      <use transform="translate(59.179688 0.125)" xlink:href="#DejaVuSans-40"/>
      <use transform="translate(98.193359 0.125)" xlink:href="#DejaVuSans-Oblique-116"/>
      <use transform="translate(137.402344 0.125)" xlink:href="#DejaVuSans-41"/>
      <use transform="translate(177.373047 -16.28125)scale(0.7)" xlink:href="#DejaVuSans-Oblique-1087"/>
      <use transform="translate(223.139648 -16.28125)scale(0.7)" xlink:href="#DejaVuSans-Oblique-1088"/>
      <use transform="translate(267.573242 -16.28125)scale(0.7)" xlink:href="#DejaVuSans-Oblique-1086"/>
      <use transform="translate(310.400391 -16.28125)scale(0.7)" xlink:href="#DejaVuSans-Oblique-1075"/>
      <use transform="translate(347.177734 -16.28125)scale(0.7)" xlink:href="#DejaVuSans-Oblique-1085"/>
      <use transform="translate(392.944336 -16.28125)scale(0.7)" xlink:href="#DejaVuSans-Oblique-1086"/>
      <use transform="translate(435.771484 -16.28125)scale(0.7)" xlink:href="#DejaVuSans-Oblique-1079"/>
     </g>
    </g>
   </g>
  </g>
 </g>
 <defs>
  <clipPath id="p4fbd4cd526">
   <rect height="407.7" width="641.7" x="103.5" y="64.8"/>
  </clipPath>
 </defs>
</svg>
