<?xml version="1.0" encoding="utf-8" standalone="no"?>
<!DOCTYPE svg PUBLIC "-//W3C//DTD SVG 1.1//EN"
  "http://www.w3.org/Graphics/SVG/1.1/DTD/svg11.dtd">
<!-- Created with matplotlib (https://matplotlib.org/) -->
<svg height="540pt" version="1.1" viewBox="0 0 828 540" width="828pt" xmlns="http://www.w3.org/2000/svg" xmlns:xlink="http://www.w3.org/1999/xlink">
 <defs>
  <style type="text/css">
*{stroke-linecap:butt;stroke-linejoin:round;}
  </style>
 </defs>
 <g id="figure_1">
  <g id="patch_1">
   <path d="M 0 540 
L 828 540 
L 828 0 
L 0 0 
z
" style="fill:#ffffff;"/>
  </g>
  <g id="axes_1">
   <g id="patch_2">
    <path d="M 103.5 472.5 
L 745.2 472.5 
L 745.2 64.8 
L 103.5 64.8 
z
" style="fill:#ffffff;"/>
   </g>
   <g id="matplotlib.axis_1">
    <g id="xtick_1">
     <g id="line2d_1">
      <path clip-path="url(#pcb387e6fbb)" d="M 108.094256 472.5 
L 108.094256 64.8 
" style="fill:none;stroke:#b0b0b0;stroke-linecap:square;stroke-width:0.8;"/>
     </g>
     <g id="line2d_2">
      <defs>
       <path d="M 0 0 
L 0 3.5 
" id="mbccd54d91b" style="stroke:#000000;stroke-width:0.8;"/>
      </defs>
      <g>
       <use style="stroke:#000000;stroke-width:0.8;" x="108.094256" xlink:href="#mbccd54d91b" y="472.5"/>
      </g>
     </g>
     <g id="text_1">
      <!-- 57000 -->
      <defs>
       <path d="M 10.796875 72.90625 
L 49.515625 72.90625 
L 49.515625 64.59375 
L 19.828125 64.59375 
L 19.828125 46.734375 
Q 21.96875 47.46875 24.109375 47.828125 
Q 26.265625 48.1875 28.421875 48.1875 
Q 40.625 48.1875 47.75 41.5 
Q 54.890625 34.8125 54.890625 23.390625 
Q 54.890625 11.625 47.5625 5.09375 
Q 40.234375 -1.421875 26.90625 -1.421875 
Q 22.3125 -1.421875 17.546875 -0.640625 
Q 12.796875 0.140625 7.71875 1.703125 
L 7.71875 11.625 
Q 12.109375 9.234375 16.796875 8.0625 
Q 21.484375 6.890625 26.703125 6.890625 
Q 35.15625 6.890625 40.078125 11.328125 
Q 45.015625 15.765625 45.015625 23.390625 
Q 45.015625 31 40.078125 35.4375 
Q 35.15625 39.890625 26.703125 39.890625 
Q 22.75 39.890625 18.8125 39.015625 
Q 14.890625 38.140625 10.796875 36.28125 
z
" id="DejaVuSans-53"/>
       <path d="M 8.203125 72.90625 
L 55.078125 72.90625 
L 55.078125 68.703125 
L 28.609375 0 
L 18.3125 0 
L 43.21875 64.59375 
L 8.203125 64.59375 
z
" id="DejaVuSans-55"/>
       <path d="M 31.78125 66.40625 
Q 24.171875 66.40625 20.328125 58.90625 
Q 16.5 51.421875 16.5 36.375 
Q 16.5 21.390625 20.328125 13.890625 
Q 24.171875 6.390625 31.78125 6.390625 
Q 39.453125 6.390625 43.28125 13.890625 
Q 47.125 21.390625 47.125 36.375 
Q 47.125 51.421875 43.28125 58.90625 
Q 39.453125 66.40625 31.78125 66.40625 
z
M 31.78125 74.21875 
Q 44.046875 74.21875 50.515625 64.515625 
Q 56.984375 54.828125 56.984375 36.375 
Q 56.984375 17.96875 50.515625 8.265625 
Q 44.046875 -1.421875 31.78125 -1.421875 
Q 19.53125 -1.421875 13.0625 8.265625 
Q 6.59375 17.96875 6.59375 36.375 
Q 6.59375 54.828125 13.0625 64.515625 
Q 19.53125 74.21875 31.78125 74.21875 
z
" id="DejaVuSans-48"/>
      </defs>
      <g transform="translate(92.188006 487.098437)scale(0.1 -0.1)">
       <use xlink:href="#DejaVuSans-53"/>
       <use x="63.623047" xlink:href="#DejaVuSans-55"/>
       <use x="127.246094" xlink:href="#DejaVuSans-48"/>
       <use x="190.869141" xlink:href="#DejaVuSans-48"/>
       <use x="254.492188" xlink:href="#DejaVuSans-48"/>
      </g>
     </g>
    </g>
    <g id="xtick_2">
     <g id="line2d_3">
      <path clip-path="url(#pcb387e6fbb)" d="M 214.937413 472.5 
L 214.937413 64.8 
" style="fill:none;stroke:#b0b0b0;stroke-linecap:square;stroke-width:0.8;"/>
     </g>
     <g id="line2d_4">
      <g>
       <use style="stroke:#000000;stroke-width:0.8;" x="214.937413" xlink:href="#mbccd54d91b" y="472.5"/>
      </g>
     </g>
     <g id="text_2">
      <!-- 57100 -->
      <defs>
       <path d="M 12.40625 8.296875 
L 28.515625 8.296875 
L 28.515625 63.921875 
L 10.984375 60.40625 
L 10.984375 69.390625 
L 28.421875 72.90625 
L 38.28125 72.90625 
L 38.28125 8.296875 
L 54.390625 8.296875 
L 54.390625 0 
L 12.40625 0 
z
" id="DejaVuSans-49"/>
      </defs>
      <g transform="translate(199.031163 487.098437)scale(0.1 -0.1)">
       <use xlink:href="#DejaVuSans-53"/>
       <use x="63.623047" xlink:href="#DejaVuSans-55"/>
       <use x="127.246094" xlink:href="#DejaVuSans-49"/>
       <use x="190.869141" xlink:href="#DejaVuSans-48"/>
       <use x="254.492188" xlink:href="#DejaVuSans-48"/>
      </g>
     </g>
    </g>
    <g id="xtick_3">
     <g id="line2d_5">
      <path clip-path="url(#pcb387e6fbb)" d="M 321.780569 472.5 
L 321.780569 64.8 
" style="fill:none;stroke:#b0b0b0;stroke-linecap:square;stroke-width:0.8;"/>
     </g>
     <g id="line2d_6">
      <g>
       <use style="stroke:#000000;stroke-width:0.8;" x="321.780569" xlink:href="#mbccd54d91b" y="472.5"/>
      </g>
     </g>
     <g id="text_3">
      <!-- 57200 -->
      <defs>
       <path d="M 19.1875 8.296875 
L 53.609375 8.296875 
L 53.609375 0 
L 7.328125 0 
L 7.328125 8.296875 
Q 12.9375 14.109375 22.625 23.890625 
Q 32.328125 33.6875 34.8125 36.53125 
Q 39.546875 41.84375 41.421875 45.53125 
Q 43.3125 49.21875 43.3125 52.78125 
Q 43.3125 58.59375 39.234375 62.25 
Q 35.15625 65.921875 28.609375 65.921875 
Q 23.96875 65.921875 18.8125 64.3125 
Q 13.671875 62.703125 7.8125 59.421875 
L 7.8125 69.390625 
Q 13.765625 71.78125 18.9375 73 
Q 24.125 74.21875 28.421875 74.21875 
Q 39.75 74.21875 46.484375 68.546875 
Q 53.21875 62.890625 53.21875 53.421875 
Q 53.21875 48.921875 51.53125 44.890625 
Q 49.859375 40.875 45.40625 35.40625 
Q 44.1875 33.984375 37.640625 27.21875 
Q 31.109375 20.453125 19.1875 8.296875 
z
" id="DejaVuSans-50"/>
      </defs>
      <g transform="translate(305.874319 487.098437)scale(0.1 -0.1)">
       <use xlink:href="#DejaVuSans-53"/>
       <use x="63.623047" xlink:href="#DejaVuSans-55"/>
       <use x="127.246094" xlink:href="#DejaVuSans-50"/>
       <use x="190.869141" xlink:href="#DejaVuSans-48"/>
       <use x="254.492188" xlink:href="#DejaVuSans-48"/>
      </g>
     </g>
    </g>
    <g id="xtick_4">
     <g id="line2d_7">
      <path clip-path="url(#pcb387e6fbb)" d="M 428.623726 472.5 
L 428.623726 64.8 
" style="fill:none;stroke:#b0b0b0;stroke-linecap:square;stroke-width:0.8;"/>
     </g>
     <g id="line2d_8">
      <g>
       <use style="stroke:#000000;stroke-width:0.8;" x="428.623726" xlink:href="#mbccd54d91b" y="472.5"/>
      </g>
     </g>
     <g id="text_4">
      <!-- 57300 -->
      <defs>
       <path d="M 40.578125 39.3125 
Q 47.65625 37.796875 51.625 33 
Q 55.609375 28.21875 55.609375 21.1875 
Q 55.609375 10.40625 48.1875 4.484375 
Q 40.765625 -1.421875 27.09375 -1.421875 
Q 22.515625 -1.421875 17.65625 -0.515625 
Q 12.796875 0.390625 7.625 2.203125 
L 7.625 11.71875 
Q 11.71875 9.328125 16.59375 8.109375 
Q 21.484375 6.890625 26.8125 6.890625 
Q 36.078125 6.890625 40.9375 10.546875 
Q 45.796875 14.203125 45.796875 21.1875 
Q 45.796875 27.640625 41.28125 31.265625 
Q 36.765625 34.90625 28.71875 34.90625 
L 20.21875 34.90625 
L 20.21875 43.015625 
L 29.109375 43.015625 
Q 36.375 43.015625 40.234375 45.921875 
Q 44.09375 48.828125 44.09375 54.296875 
Q 44.09375 59.90625 40.109375 62.90625 
Q 36.140625 65.921875 28.71875 65.921875 
Q 24.65625 65.921875 20.015625 65.03125 
Q 15.375 64.15625 9.8125 62.3125 
L 9.8125 71.09375 
Q 15.4375 72.65625 20.34375 73.4375 
Q 25.25 74.21875 29.59375 74.21875 
Q 40.828125 74.21875 47.359375 69.109375 
Q 53.90625 64.015625 53.90625 55.328125 
Q 53.90625 49.265625 50.4375 45.09375 
Q 46.96875 40.921875 40.578125 39.3125 
z
" id="DejaVuSans-51"/>
      </defs>
      <g transform="translate(412.717476 487.098437)scale(0.1 -0.1)">
       <use xlink:href="#DejaVuSans-53"/>
       <use x="63.623047" xlink:href="#DejaVuSans-55"/>
       <use x="127.246094" xlink:href="#DejaVuSans-51"/>
       <use x="190.869141" xlink:href="#DejaVuSans-48"/>
       <use x="254.492188" xlink:href="#DejaVuSans-48"/>
      </g>
     </g>
    </g>
    <g id="xtick_5">
     <g id="line2d_9">
      <path clip-path="url(#pcb387e6fbb)" d="M 535.466883 472.5 
L 535.466883 64.8 
" style="fill:none;stroke:#b0b0b0;stroke-linecap:square;stroke-width:0.8;"/>
     </g>
     <g id="line2d_10">
      <g>
       <use style="stroke:#000000;stroke-width:0.8;" x="535.466883" xlink:href="#mbccd54d91b" y="472.5"/>
      </g>
     </g>
     <g id="text_5">
      <!-- 57400 -->
      <defs>
       <path d="M 37.796875 64.3125 
L 12.890625 25.390625 
L 37.796875 25.390625 
z
M 35.203125 72.90625 
L 47.609375 72.90625 
L 47.609375 25.390625 
L 58.015625 25.390625 
L 58.015625 17.1875 
L 47.609375 17.1875 
L 47.609375 0 
L 37.796875 0 
L 37.796875 17.1875 
L 4.890625 17.1875 
L 4.890625 26.703125 
z
" id="DejaVuSans-52"/>
      </defs>
      <g transform="translate(519.560633 487.098437)scale(0.1 -0.1)">
       <use xlink:href="#DejaVuSans-53"/>
       <use x="63.623047" xlink:href="#DejaVuSans-55"/>
       <use x="127.246094" xlink:href="#DejaVuSans-52"/>
       <use x="190.869141" xlink:href="#DejaVuSans-48"/>
       <use x="254.492188" xlink:href="#DejaVuSans-48"/>
      </g>
     </g>
    </g>
    <g id="xtick_6">
     <g id="line2d_11">
      <path clip-path="url(#pcb387e6fbb)" d="M 642.31004 472.5 
L 642.31004 64.8 
" style="fill:none;stroke:#b0b0b0;stroke-linecap:square;stroke-width:0.8;"/>
     </g>
     <g id="line2d_12">
      <g>
       <use style="stroke:#000000;stroke-width:0.8;" x="642.31004" xlink:href="#mbccd54d91b" y="472.5"/>
      </g>
     </g>
     <g id="text_6">
      <!-- 57500 -->
      <g transform="translate(626.40379 487.098437)scale(0.1 -0.1)">
       <use xlink:href="#DejaVuSans-53"/>
       <use x="63.623047" xlink:href="#DejaVuSans-55"/>
       <use x="127.246094" xlink:href="#DejaVuSans-53"/>
       <use x="190.869141" xlink:href="#DejaVuSans-48"/>
       <use x="254.492188" xlink:href="#DejaVuSans-48"/>
      </g>
     </g>
    </g>
    <g id="text_7">
     <!-- $t$ -->
     <defs>
      <path d="M 42.28125 54.6875 
L 40.921875 47.703125 
L 23 47.703125 
L 17.1875 18.015625 
Q 16.890625 16.359375 16.75 15.234375 
Q 16.609375 14.109375 16.609375 13.484375 
Q 16.609375 10.359375 18.484375 8.9375 
Q 20.359375 7.515625 24.515625 7.515625 
L 33.59375 7.515625 
L 32.078125 0 
L 23.484375 0 
Q 15.484375 0 11.546875 3.125 
Q 7.625 6.25 7.625 12.59375 
Q 7.625 13.71875 7.765625 15.0625 
Q 7.90625 16.40625 8.203125 18.015625 
L 14.015625 47.703125 
L 6.390625 47.703125 
L 7.8125 54.6875 
L 15.28125 54.6875 
L 18.3125 70.21875 
L 27.296875 70.21875 
L 24.3125 54.6875 
z
" id="DejaVuSans-Oblique-116"/>
     </defs>
     <g transform="translate(422.35 500.776563)scale(0.1 -0.1)">
      <use transform="translate(0 0.78125)" xlink:href="#DejaVuSans-Oblique-116"/>
     </g>
    </g>
   </g>
   <g id="matplotlib.axis_2">
    <g id="ytick_1">
     <g id="line2d_13">
      <path clip-path="url(#pcb387e6fbb)" d="M 103.5 465.393669 
L 745.2 465.393669 
" style="fill:none;stroke:#b0b0b0;stroke-linecap:square;stroke-width:0.8;"/>
     </g>
     <g id="line2d_14">
      <defs>
       <path d="M 0 0 
L -3.5 0 
" id="ma66d95cc65" style="stroke:#000000;stroke-width:0.8;"/>
      </defs>
      <g>
       <use style="stroke:#000000;stroke-width:0.8;" x="103.5" xlink:href="#ma66d95cc65" y="465.393669"/>
      </g>
     </g>
     <g id="text_8">
      <!-- 150 -->
      <g transform="translate(77.4125 469.192888)scale(0.1 -0.1)">
       <use xlink:href="#DejaVuSans-49"/>
       <use x="63.623047" xlink:href="#DejaVuSans-53"/>
       <use x="127.246094" xlink:href="#DejaVuSans-48"/>
      </g>
     </g>
    </g>
    <g id="ytick_2">
     <g id="line2d_15">
      <path clip-path="url(#pcb387e6fbb)" d="M 103.5 417.665949 
L 745.2 417.665949 
" style="fill:none;stroke:#b0b0b0;stroke-linecap:square;stroke-width:0.8;"/>
     </g>
     <g id="line2d_16">
      <g>
       <use style="stroke:#000000;stroke-width:0.8;" x="103.5" xlink:href="#ma66d95cc65" y="417.665949"/>
      </g>
     </g>
     <g id="text_9">
      <!-- 200 -->
      <g transform="translate(77.4125 421.465168)scale(0.1 -0.1)">
       <use xlink:href="#DejaVuSans-50"/>
       <use x="63.623047" xlink:href="#DejaVuSans-48"/>
       <use x="127.246094" xlink:href="#DejaVuSans-48"/>
      </g>
     </g>
    </g>
    <g id="ytick_3">
     <g id="line2d_17">
      <path clip-path="url(#pcb387e6fbb)" d="M 103.5 369.938229 
L 745.2 369.938229 
" style="fill:none;stroke:#b0b0b0;stroke-linecap:square;stroke-width:0.8;"/>
     </g>
     <g id="line2d_18">
      <g>
       <use style="stroke:#000000;stroke-width:0.8;" x="103.5" xlink:href="#ma66d95cc65" y="369.938229"/>
      </g>
     </g>
     <g id="text_10">
      <!-- 250 -->
      <g transform="translate(77.4125 373.737448)scale(0.1 -0.1)">
       <use xlink:href="#DejaVuSans-50"/>
       <use x="63.623047" xlink:href="#DejaVuSans-53"/>
       <use x="127.246094" xlink:href="#DejaVuSans-48"/>
      </g>
     </g>
    </g>
    <g id="ytick_4">
     <g id="line2d_19">
      <path clip-path="url(#pcb387e6fbb)" d="M 103.5 322.210509 
L 745.2 322.210509 
" style="fill:none;stroke:#b0b0b0;stroke-linecap:square;stroke-width:0.8;"/>
     </g>
     <g id="line2d_20">
      <g>
       <use style="stroke:#000000;stroke-width:0.8;" x="103.5" xlink:href="#ma66d95cc65" y="322.210509"/>
      </g>
     </g>
     <g id="text_11">
      <!-- 300 -->
      <g transform="translate(77.4125 326.009728)scale(0.1 -0.1)">
       <use xlink:href="#DejaVuSans-51"/>
       <use x="63.623047" xlink:href="#DejaVuSans-48"/>
       <use x="127.246094" xlink:href="#DejaVuSans-48"/>
      </g>
     </g>
    </g>
    <g id="ytick_5">
     <g id="line2d_21">
      <path clip-path="url(#pcb387e6fbb)" d="M 103.5 274.482789 
L 745.2 274.482789 
" style="fill:none;stroke:#b0b0b0;stroke-linecap:square;stroke-width:0.8;"/>
     </g>
     <g id="line2d_22">
      <g>
       <use style="stroke:#000000;stroke-width:0.8;" x="103.5" xlink:href="#ma66d95cc65" y="274.482789"/>
      </g>
     </g>
     <g id="text_12">
      <!-- 350 -->
      <g transform="translate(77.4125 278.282008)scale(0.1 -0.1)">
       <use xlink:href="#DejaVuSans-51"/>
       <use x="63.623047" xlink:href="#DejaVuSans-53"/>
       <use x="127.246094" xlink:href="#DejaVuSans-48"/>
      </g>
     </g>
    </g>
    <g id="ytick_6">
     <g id="line2d_23">
      <path clip-path="url(#pcb387e6fbb)" d="M 103.5 226.755069 
L 745.2 226.755069 
" style="fill:none;stroke:#b0b0b0;stroke-linecap:square;stroke-width:0.8;"/>
     </g>
     <g id="line2d_24">
      <g>
       <use style="stroke:#000000;stroke-width:0.8;" x="103.5" xlink:href="#ma66d95cc65" y="226.755069"/>
      </g>
     </g>
     <g id="text_13">
      <!-- 400 -->
      <g transform="translate(77.4125 230.554288)scale(0.1 -0.1)">
       <use xlink:href="#DejaVuSans-52"/>
       <use x="63.623047" xlink:href="#DejaVuSans-48"/>
       <use x="127.246094" xlink:href="#DejaVuSans-48"/>
      </g>
     </g>
    </g>
    <g id="ytick_7">
     <g id="line2d_25">
      <path clip-path="url(#pcb387e6fbb)" d="M 103.5 179.027349 
L 745.2 179.027349 
" style="fill:none;stroke:#b0b0b0;stroke-linecap:square;stroke-width:0.8;"/>
     </g>
     <g id="line2d_26">
      <g>
       <use style="stroke:#000000;stroke-width:0.8;" x="103.5" xlink:href="#ma66d95cc65" y="179.027349"/>
      </g>
     </g>
     <g id="text_14">
      <!-- 450 -->
      <g transform="translate(77.4125 182.826568)scale(0.1 -0.1)">
       <use xlink:href="#DejaVuSans-52"/>
       <use x="63.623047" xlink:href="#DejaVuSans-53"/>
       <use x="127.246094" xlink:href="#DejaVuSans-48"/>
      </g>
     </g>
    </g>
    <g id="ytick_8">
     <g id="line2d_27">
      <path clip-path="url(#pcb387e6fbb)" d="M 103.5 131.299629 
L 745.2 131.299629 
" style="fill:none;stroke:#b0b0b0;stroke-linecap:square;stroke-width:0.8;"/>
     </g>
     <g id="line2d_28">
      <g>
       <use style="stroke:#000000;stroke-width:0.8;" x="103.5" xlink:href="#ma66d95cc65" y="131.299629"/>
      </g>
     </g>
     <g id="text_15">
      <!-- 500 -->
      <g transform="translate(77.4125 135.098847)scale(0.1 -0.1)">
       <use xlink:href="#DejaVuSans-53"/>
       <use x="63.623047" xlink:href="#DejaVuSans-48"/>
       <use x="127.246094" xlink:href="#DejaVuSans-48"/>
      </g>
     </g>
    </g>
    <g id="ytick_9">
     <g id="line2d_29">
      <path clip-path="url(#pcb387e6fbb)" d="M 103.5 83.571909 
L 745.2 83.571909 
" style="fill:none;stroke:#b0b0b0;stroke-linecap:square;stroke-width:0.8;"/>
     </g>
     <g id="line2d_30">
      <g>
       <use style="stroke:#000000;stroke-width:0.8;" x="103.5" xlink:href="#ma66d95cc65" y="83.571909"/>
      </g>
     </g>
     <g id="text_16">
      <!-- 550 -->
      <g transform="translate(77.4125 87.371127)scale(0.1 -0.1)">
       <use xlink:href="#DejaVuSans-53"/>
       <use x="63.623047" xlink:href="#DejaVuSans-53"/>
       <use x="127.246094" xlink:href="#DejaVuSans-48"/>
      </g>
     </g>
    </g>
    <g id="text_17">
     <!-- $y$ -->
     <defs>
      <path d="M 24.8125 -5.078125 
Q 18.5625 -15.578125 14.625 -18.1875 
Q 10.6875 -20.796875 4.59375 -20.796875 
L -2.484375 -20.796875 
L -0.984375 -13.28125 
L 4.203125 -13.28125 
Q 7.953125 -13.28125 10.59375 -11.234375 
Q 13.234375 -9.1875 16.5 -3.21875 
L 19.28125 2 
L 7.171875 54.6875 
L 16.703125 54.6875 
L 25.78125 12.796875 
L 50.875 54.6875 
L 60.296875 54.6875 
z
" id="DejaVuSans-Oblique-121"/>
     </defs>
     <g transform="translate(71.3125 271.65)rotate(-90)scale(0.1 -0.1)">
      <use transform="translate(0 0.3125)" xlink:href="#DejaVuSans-Oblique-121"/>
     </g>
    </g>
   </g>
   <g id="line2d_31">
    <path clip-path="url(#pcb387e6fbb)" d="M 132.668182 340.538908 
L 135.873477 339.324715 
L 138.01034 337.938702 
L 140.147203 336.030548 
L 142.284066 334.947128 
L 143.352498 333.825527 
L 146.557792 330.939909 
L 148.694655 328.244247 
L 150.831518 326.680687 
L 155.105245 323.575522 
L 156.173676 322.616195 
L 157.242108 322.043462 
L 159.378971 320.095216 
L 160.447403 319.301982 
L 161.515834 317.978969 
L 162.584266 316.375318 
L 167.926424 305.185077 
L 168.994855 303.286468 
L 174.337013 296.326812 
L 175.405445 295.174665 
L 178.610739 291.223764 
L 180.747602 289.173381 
L 181.816034 288.15869 
L 182.884466 286.619948 
L 185.021329 284.368154 
L 186.08976 283.037505 
L 188.226623 279.778657 
L 189.295055 277.950685 
L 190.363487 275.850665 
L 191.431918 274.111467 
L 193.568781 271.480715 
L 195.705644 268.194185 
L 197.842507 264.297693 
L 199.979371 261.341438 
L 203.184665 257.917452 
L 204.253097 257.108944 
L 205.321528 256.097117 
L 207.458392 253.831004 
L 209.595255 251.896123 
L 214.937413 247.397308 
L 216.005844 246.346343 
L 217.074276 244.644373 
L 219.211139 240.802291 
L 220.27957 238.98482 
L 221.348002 237.61408 
L 225.621728 233.216448 
L 226.69016 232.381212 
L 228.827023 230.161874 
L 229.895455 228.772042 
L 233.100749 223.447538 
L 234.169181 222.100662 
L 235.237612 220.954242 
L 237.374476 219.216953 
L 239.511339 216.561382 
L 240.57977 215.590601 
L 242.716633 214.174042 
L 244.853497 212.118886 
L 245.921928 210.556281 
L 246.99036 209.676181 
L 248.058791 208.649081 
L 249.127223 207.942711 
L 250.195654 206.786745 
L 252.332517 205.264231 
L 254.469381 202.806253 
L 255.537812 201.704698 
L 257.674675 198.745579 
L 258.743107 197.569568 
L 259.811538 196.613105 
L 261.948402 195.032362 
L 263.016833 194.157991 
L 267.290559 188.949942 
L 269.427423 186.458555 
L 270.495854 185.031496 
L 271.564286 184.150442 
L 274.76958 182.781611 
L 275.838012 182.025604 
L 277.974875 181.646646 
L 280.111738 180.011494 
L 281.18017 179.701264 
L 282.248601 179.529444 
L 283.317033 179.482671 
L 284.385465 179.215396 
L 285.453896 178.334342 
L 286.522328 177.837974 
L 287.590759 177.013239 
L 289.727622 175.918365 
L 291.864486 174.585807 
L 292.932917 173.813573 
L 295.06978 172.820836 
L 296.138212 172.434242 
L 297.206643 172.261467 
L 300.411938 172.615607 
L 302.548801 173.656071 
L 303.617233 173.913801 
L 306.822527 174.287986 
L 310.027822 175.120358 
L 311.096254 175.543225 
L 314.301548 176.135049 
L 316.438412 176.220004 
L 317.506843 176.756464 
L 322.849001 178.557708 
L 329.25959 183.193024 
L 330.328022 184.126578 
L 331.396454 184.70122 
L 332.464885 184.911222 
L 333.533317 184.930313 
L 334.601748 185.186134 
L 335.67018 185.835231 
L 336.738611 186.836558 
L 338.875475 189.086443 
L 341.012338 190.860005 
L 342.080769 192.024562 
L 343.149201 193.385756 
L 345.286064 195.340683 
L 351.696653 200.098183 
L 352.765085 201.127192 
L 354.901948 203.733126 
L 355.97038 204.778363 
L 362.380969 212.767029 
L 366.654695 217.08066 
L 367.723127 218.562128 
L 369.85999 222.021434 
L 370.928422 223.490493 
L 373.065285 227.125436 
L 374.133716 228.622177 
L 376.270579 231.038154 
L 377.339011 232.413667 
L 378.407443 234.009682 
L 383.7496 243.121859 
L 384.818032 244.753192 
L 386.954895 248.497909 
L 388.023327 250.665702 
L 389.091758 252.293217 
L 391.228621 254.763604 
L 393.365485 256.611621 
L 395.502348 259.514421 
L 396.570779 260.505249 
L 397.639211 261.727078 
L 399.776074 264.665197 
L 402.981369 270.08993 
L 404.0498 272.246268 
L 407.255095 277.749274 
L 410.46039 281.783221 
L 412.597253 285.455392 
L 415.802547 291.597949 
L 416.870979 293.588195 
L 417.939411 295.235756 
L 420.076274 298.17292 
L 421.144705 299.730753 
L 423.281568 304.276341 
L 424.35 306.973912 
L 425.418432 309.100659 
L 427.555295 312.560919 
L 428.623726 314.582665 
L 430.760589 317.756558 
L 432.897453 320.258445 
L 433.965884 321.503184 
L 436.102747 324.620759 
L 438.23961 327.886289 
L 439.308042 329.763898 
L 440.376474 331.389504 
L 441.444905 332.752608 
L 443.581768 335.897865 
L 444.6502 337.227559 
L 445.718631 338.191659 
L 447.855495 339.811538 
L 452.129221 344.503172 
L 453.197652 345.40809 
L 454.266084 346.039051 
L 455.334515 346.910559 
L 458.53981 351.480965 
L 459.608242 352.300927 
L 460.676673 352.885115 
L 461.745105 353.213481 
L 462.813536 353.668804 
L 463.881968 354.506903 
L 466.018831 356.459921 
L 468.155694 357.809661 
L 472.429421 361.100964 
L 474.566284 361.85029 
L 478.84001 364.605134 
L 480.976873 364.918227 
L 483.113736 366.021692 
L 484.182168 366.036965 
L 485.250599 365.814554 
L 487.387463 365.711462 
L 488.455894 366.063693 
L 491.661189 366.837836 
L 492.72962 366.794881 
L 495.934915 367.331341 
L 498.071778 368.401396 
L 499.14021 368.740263 
L 500.208641 369.205131 
L 501.277073 369.452361 
L 503.413936 369.370269 
L 504.482368 369.231859 
L 506.619231 370.05373 
L 507.687662 369.812228 
L 508.756094 369.194631 
L 509.824525 368.808037 
L 511.961389 368.442442 
L 513.02982 368.39376 
L 514.098252 367.91171 
L 515.166683 367.056429 
L 517.303546 366.302331 
L 523.714136 362.905072 
L 524.782567 362.622524 
L 525.850999 361.831199 
L 530.124725 355.578867 
L 531.193157 353.520848 
L 533.33002 350.214271 
L 535.466883 346.622283 
L 536.535315 345.430999 
L 537.603746 344.479309 
L 539.740609 341.752147 
L 542.945904 336.466779 
L 545.082767 333.855118 
L 546.151199 332.847109 
L 549.356494 331.228184 
L 552.561788 327.843335 
L 554.698651 324.533894 
L 556.835514 320.888451 
L 557.903946 319.648485 
L 562.177672 312.830103 
L 564.314535 309.6438 
L 565.382967 307.913193 
L 566.451399 305.849447 
L 568.588262 302.078002 
L 570.725125 297.965782 
L 571.793556 296.353539 
L 572.861988 295.023845 
L 576.067283 289.665931 
L 577.135714 288.344828 
L 580.341009 282.038087 
L 581.409441 279.791066 
L 583.546304 275.975712 
L 584.614735 273.674281 
L 585.683167 271.730809 
L 587.82003 268.829918 
L 588.888462 266.997173 
L 593.162188 257.690268 
L 596.367483 250.675248 
L 598.504346 246.831257 
L 601.70964 241.269069 
L 604.914935 234.381959 
L 610.257093 222.561711 
L 616.667682 211.11565 
L 619.872977 206.472697 
L 622.00984 203.710216 
L 623.078272 202.08461 
L 626.283566 195.983099 
L 628.42043 191.293373 
L 631.625724 185.968868 
L 634.831019 181.463372 
L 638.036314 175.080266 
L 639.104745 173.352523 
L 641.241608 171.722144 
L 642.31004 170.727498 
L 644.446903 167.667197 
L 645.515335 166.13991 
L 647.652198 162.756014 
L 649.789061 159.96967 
L 650.857493 159.097207 
L 651.925924 157.757013 
L 654.062787 154.606029 
L 656.19965 152.254007 
L 658.336513 150.15876 
L 661.541808 146.428361 
L 663.678671 144.289205 
L 665.815534 142.516597 
L 666.883966 141.93241 
L 667.952398 141.662271 
L 669.020829 141.18213 
L 671.157692 139.719753 
L 673.294555 137.846917 
L 674.362987 137.285639 
L 675.431419 137.177775 
L 676.49985 136.838908 
L 679.705145 134.94889 
L 680.773576 134.562296 
L 681.842008 134.413385 
L 682.91044 134.580432 
L 685.047303 134.505022 
L 687.184166 133.954245 
L 688.252597 133.74997 
L 690.389461 133.640196 
L 691.457892 133.268874 
L 692.526324 133.253602 
L 693.594755 133.428285 
L 694.663187 133.951381 
L 695.731618 134.747479 
L 696.80005 135.70967 
L 697.868482 136.82459 
L 698.936913 137.026001 
L 700.005345 136.518178 
L 701.073776 136.194584 
L 702.142208 136.445631 
L 703.210639 136.989727 
L 704.279071 137.740007 
L 705.347502 138.744198 
L 706.415934 139.395205 
L 707.484366 140.196076 
L 708.552797 140.599852 
L 710.68966 141.851273 
L 711.758092 142.035502 
L 712.826523 142.556689 
L 716.031818 145.207486 
L 716.031818 145.207486 
" style="fill:none;stroke:#000000;stroke-linecap:square;stroke-width:1.5;"/>
   </g>
   <g id="line2d_32">
    <path clip-path="url(#pcb387e6fbb)" d="M 132.668182 345.10144 
L 138.01034 334.415595 
L 143.352498 323.229969 
L 149.763087 309.24451 
L 157.242108 292.31119 
L 166.857992 269.886564 
L 189.295055 217.20115 
L 196.774076 200.319027 
L 203.184665 186.405947 
L 208.526823 175.308077 
L 213.868981 164.742067 
L 218.142707 156.721002 
L 222.416434 149.122274 
L 226.69016 141.979794 
L 230.963886 135.325726 
L 234.169181 130.673979 
L 237.374476 126.326057 
L 240.57977 122.293309 
L 243.785065 118.586379 
L 246.99036 115.215178 
L 250.195654 112.188859 
L 253.400949 109.515787 
L 256.606244 107.203521 
L 259.811538 105.258793 
L 263.016833 103.687485 
L 265.153696 102.849916 
L 267.290559 102.181831 
L 269.427423 101.684324 
L 271.564286 101.358313 
L 273.701149 101.204537 
L 275.838012 101.223555 
L 277.974875 101.415747 
L 280.111738 101.781309 
L 282.248601 102.320258 
L 284.385465 103.032425 
L 286.522328 103.917461 
L 288.659191 104.974833 
L 290.796054 106.203827 
L 294.001349 108.367097 
L 297.206643 110.91066 
L 300.411938 113.829811 
L 303.617233 117.118942 
L 306.822527 120.771548 
L 310.027822 124.780246 
L 313.233117 129.136788 
L 316.438412 133.832076 
L 319.643706 138.856185 
L 323.917433 146.047831 
L 328.191159 153.777279 
L 332.464885 162.014563 
L 336.738611 170.727469 
L 341.012338 179.881662 
L 346.354496 191.889461 
L 351.696653 204.454977 
L 358.107243 220.158423 
L 365.586264 239.159335 
L 375.202148 264.299423 
L 397.639211 323.266566 
L 405.118232 342.137541 
L 411.528821 357.684491 
L 416.870979 370.084422 
L 422.213137 381.891417 
L 426.486863 390.857305 
L 430.760589 399.355246 
L 435.034316 407.348869 
L 439.308042 414.803826 
L 442.513337 420.022102 
L 445.718631 424.906507 
L 448.923926 429.445079 
L 452.129221 433.626652 
L 455.334515 437.440878 
L 458.53981 440.878262 
L 461.745105 443.930178 
L 464.9504 446.588895 
L 468.155694 448.847594 
L 470.292557 450.128215 
L 472.429421 451.226905 
L 474.566284 452.142339 
L 476.703147 452.873387 
L 478.84001 453.419108 
L 480.976873 453.778756 
L 483.113736 453.951776 
L 485.250599 453.937811 
L 487.387463 453.736697 
L 489.524326 453.348465 
L 491.661189 452.773344 
L 493.798052 452.011757 
L 495.934915 451.064323 
L 498.071778 449.931855 
L 500.208641 448.615361 
L 502.345504 447.116041 
L 505.550799 444.527363 
L 508.756094 441.53601 
L 511.961389 438.148439 
L 515.166683 434.372047 
L 518.371978 430.215153 
L 521.577273 425.686978 
L 524.782567 420.797627 
L 527.987862 415.558065 
L 531.193157 409.98009 
L 535.466883 402.038268 
L 539.740609 393.549333 
L 544.014336 384.547624 
L 548.288062 375.069659 
L 553.63022 362.61137 
L 558.972378 349.548641 
L 565.382967 333.193159 
L 572.861988 313.364944 
L 581.409441 290.024947 
L 608.12023 216.566994 
L 614.530819 199.735105 
L 620.941409 183.5391 
L 626.283566 170.636717 
L 631.625724 158.363384 
L 635.899451 149.050845 
L 640.173177 140.229844 
L 644.446903 131.936649 
L 648.720629 124.205321 
L 651.925924 118.79472 
L 655.131219 113.730524 
L 658.336513 109.024383 
L 661.541808 104.687107 
L 664.747103 100.728632 
L 667.952398 97.158005 
L 671.157692 93.983359 
L 674.362987 91.211893 
L 677.568282 88.849858 
L 679.705145 87.50528 
L 681.842008 86.346367 
L 683.978871 85.37425 
L 686.115734 84.589866 
L 688.252597 83.993954 
L 690.389461 83.587058 
L 692.526324 83.369522 
L 694.663187 83.341495 
L 696.80005 83.502925 
L 698.936913 83.853566 
L 701.073776 84.392971 
L 703.210639 85.120498 
L 705.347502 86.035309 
L 707.484366 87.13637 
L 709.621229 88.422453 
L 711.758092 89.892138 
L 714.963387 92.437342 
L 716.031818 93.375679 
L 716.031818 93.375679 
" style="fill:none;stroke:#ff0000;stroke-linecap:square;stroke-width:1.5;"/>
   </g>
   <g id="patch_3">
    <path d="M 103.5 472.5 
L 103.5 64.8 
" style="fill:none;stroke:#000000;stroke-linecap:square;stroke-linejoin:miter;stroke-width:0.8;"/>
   </g>
   <g id="patch_4">
    <path d="M 745.2 472.5 
L 745.2 64.8 
" style="fill:none;stroke:#000000;stroke-linecap:square;stroke-linejoin:miter;stroke-width:0.8;"/>
   </g>
   <g id="patch_5">
    <path d="M 103.5 472.5 
L 745.2 472.5 
" style="fill:none;stroke:#000000;stroke-linecap:square;stroke-linejoin:miter;stroke-width:0.8;"/>
   </g>
   <g id="patch_6">
    <path d="M 103.5 64.8 
L 745.2 64.8 
" style="fill:none;stroke:#000000;stroke-linecap:square;stroke-linejoin:miter;stroke-width:0.8;"/>
   </g>
   <g id="legend_1">
    <g id="patch_7">
     <path d="M 110.5 103.2 
L 190.1 103.2 
Q 192.1 103.2 192.1 101.2 
L 192.1 71.8 
Q 192.1 69.8 190.1 69.8 
L 110.5 69.8 
Q 108.5 69.8 108.5 71.8 
L 108.5 101.2 
Q 108.5 103.2 110.5 103.2 
z
" style="fill:#ffffff;opacity:0.8;stroke:#cccccc;stroke-linejoin:miter;"/>
    </g>
    <g id="line2d_33">
     <path d="M 112.5 77.9 
L 132.5 77.9 
" style="fill:none;stroke:#000000;stroke-linecap:square;stroke-width:1.5;"/>
    </g>
    <g id="line2d_34"/>
    <g id="text_18">
     <!-- $y(t)$ -->
     <defs>
      <path d="M 31 75.875 
Q 24.46875 64.65625 21.28125 53.65625 
Q 18.109375 42.671875 18.109375 31.390625 
Q 18.109375 20.125 21.3125 9.0625 
Q 24.515625 -2 31 -13.1875 
L 23.1875 -13.1875 
Q 15.875 -1.703125 12.234375 9.375 
Q 8.59375 20.453125 8.59375 31.390625 
Q 8.59375 42.28125 12.203125 53.3125 
Q 15.828125 64.359375 23.1875 75.875 
z
" id="DejaVuSans-40"/>
      <path d="M 8.015625 75.875 
L 15.828125 75.875 
Q 23.140625 64.359375 26.78125 53.3125 
Q 30.421875 42.28125 30.421875 31.390625 
Q 30.421875 20.453125 26.78125 9.375 
Q 23.140625 -1.703125 15.828125 -13.1875 
L 8.015625 -13.1875 
Q 14.5 -2 17.703125 9.0625 
Q 20.90625 20.125 20.90625 31.390625 
Q 20.90625 42.671875 17.703125 53.65625 
Q 14.5 64.65625 8.015625 75.875 
z
" id="DejaVuSans-41"/>
     </defs>
     <g transform="translate(140.5 81.4)scale(0.1 -0.1)">
      <use transform="translate(0 0.125)" xlink:href="#DejaVuSans-Oblique-121"/>
      <use transform="translate(59.179688 0.125)" xlink:href="#DejaVuSans-40"/>
      <use transform="translate(98.193359 0.125)" xlink:href="#DejaVuSans-Oblique-116"/>
      <use transform="translate(137.402344 0.125)" xlink:href="#DejaVuSans-41"/>
     </g>
    </g>
    <g id="line2d_35">
     <path d="M 112.5 92.6 
L 132.5 92.6 
" style="fill:none;stroke:#ff0000;stroke-linecap:square;stroke-width:1.5;"/>
    </g>
    <g id="line2d_36"/>
    <g id="text_19">
     <!-- $y(t)_{прогноз}$ -->
     <defs>
      <path d="M 61.625 54.6875 
L 50.984375 0 
L 41.9375 0 
L 51.171875 47.515625 
L 22.015625 47.515625 
L 12.796875 0 
L 3.765625 0 
L 14.40625 54.6875 
z
" id="DejaVuSans-Oblique-1087"/>
      <path d="M 49.609375 33.6875 
Q 49.609375 40.875 46.484375 44.671875 
Q 43.359375 48.484375 37.5 48.484375 
Q 33.5 48.484375 29.859375 46.4375 
Q 26.21875 44.390625 23.390625 40.484375 
Q 20.609375 36.625 18.9375 31.15625 
Q 17.28125 25.6875 17.28125 20.3125 
Q 17.28125 13.484375 20.40625 9.796875 
Q 23.53125 6.109375 29.296875 6.109375 
Q 33.546875 6.109375 37.1875 8.109375 
Q 40.828125 10.109375 43.40625 13.921875 
Q 46.1875 17.921875 47.890625 23.34375 
Q 49.609375 28.765625 49.609375 33.6875 
z
M 21.78125 46.390625 
Q 25.390625 51.125 30.296875 53.5625 
Q 35.203125 56 41.21875 56 
Q 49.609375 56 54.25 50.5 
Q 58.890625 45.015625 58.890625 35.109375 
Q 58.890625 27 56 19.65625 
Q 53.125 12.3125 47.703125 6.5 
Q 44.09375 2.640625 39.546875 0.609375 
Q 35.015625 -1.421875 29.984375 -1.421875 
Q 24.171875 -1.421875 20.21875 1 
Q 16.265625 3.421875 14.3125 8.203125 
L 8.6875 -20.796875 
L -0.296875 -20.796875 
L 14.40625 54.6875 
L 23.390625 54.6875 
z
" id="DejaVuSans-Oblique-1088"/>
      <path d="M 25.390625 -1.421875 
Q 15.765625 -1.421875 10.171875 4.515625 
Q 4.59375 10.453125 4.59375 20.703125 
Q 4.59375 26.65625 6.515625 32.828125 
Q 8.453125 39.015625 11.53125 43.21875 
Q 16.359375 49.75 22.3125 52.875 
Q 28.265625 56 35.796875 56 
Q 45.125 56 50.859375 50.1875 
Q 56.59375 44.390625 56.59375 35.015625 
Q 56.59375 28.515625 54.6875 22.0625 
Q 52.78125 15.625 49.703125 11.375 
Q 44.921875 4.828125 38.96875 1.703125 
Q 33.015625 -1.421875 25.390625 -1.421875 
z
M 13.921875 21 
Q 13.921875 13.578125 17.015625 9.890625 
Q 20.125 6.203125 26.421875 6.203125 
Q 35.453125 6.203125 41.375 14.078125 
Q 47.3125 21.96875 47.3125 34.078125 
Q 47.3125 41.15625 44.140625 44.765625 
Q 40.96875 48.390625 34.8125 48.390625 
Q 29.734375 48.390625 25.78125 46.015625 
Q 21.828125 43.65625 18.703125 38.8125 
Q 16.40625 35.203125 15.15625 30.5625 
Q 13.921875 25.921875 13.921875 21 
z
" id="DejaVuSans-Oblique-1086"/>
      <path d="M 3.765625 0 
L 14.40625 54.6875 
L 52.984375 54.6875 
L 51.5625 47.515625 
L 22.015625 47.515625 
L 12.796875 0 
z
" id="DejaVuSans-Oblique-1075"/>
      <path d="M 14.40625 54.6875 
L 23.4375 54.6875 
L 19.09375 32.375 
L 48.25 32.375 
L 52.59375 54.6875 
L 61.625 54.6875 
L 50.984375 0 
L 41.9375 0 
L 46.828125 25.203125 
L 17.671875 25.203125 
L 12.796875 0 
L 3.765625 0 
z
" id="DejaVuSans-Oblique-1085"/>
      <path d="M 18.265625 32.859375 
L 25.828125 32.859375 
Q 31.5 32.859375 35.59375 35.25 
Q 39.703125 37.640625 39.703125 41.65625 
Q 39.703125 44.140625 36.984375 46.1875 
Q 34.28125 48.25 29.640625 48.25 
Q 21.34375 48.25 11.921875 45.5625 
L 13.484375 53.71875 
Q 23.53125 56.0625 31.9375 56.0625 
Q 40.28125 56.0625 44.546875 52.640625 
Q 48.828125 49.21875 48.828125 44.390625 
Q 48.828125 37.984375 44.140625 33.84375 
Q 40.578125 30.671875 34.90625 29.5 
Q 40.71875 28.328125 43.40625 24.75 
Q 45.359375 22.171875 45.359375 18.703125 
Q 45.359375 17.390625 45.0625 15.921875 
Q 43.40625 7.46875 36.25 3.015625 
Q 29.109375 -1.421875 17.484375 -1.421875 
Q 9.71875 -1.421875 1.421875 1.3125 
L 3.078125 9.671875 
Q 9.328125 6.0625 17.671875 6.0625 
Q 26.03125 6.0625 31.203125 9.109375 
Q 36.375 12.15625 36.375 17.578125 
Q 36.375 20.75 33.5625 23.09375 
Q 30.765625 25.4375 24.078125 25.4375 
L 16.84375 25.4375 
z
" id="DejaVuSans-Oblique-1079"/>
     </defs>
     <g transform="translate(140.5 96.1)scale(0.1 -0.1)">
      <use transform="translate(0 0.125)" xlink:href="#DejaVuSans-Oblique-121"/>
      <use transform="translate(59.179688 0.125)" xlink:href="#DejaVuSans-40"/>
      <use transform="translate(98.193359 0.125)" xlink:href="#DejaVuSans-Oblique-116"/>
      <use transform="translate(137.402344 0.125)" xlink:href="#DejaVuSans-41"/>
      <use transform="translate(177.373047 -16.28125)scale(0.7)" xlink:href="#DejaVuSans-Oblique-1087"/>
      <use transform="translate(223.139648 -16.28125)scale(0.7)" xlink:href="#DejaVuSans-Oblique-1088"/>
      <use transform="translate(267.573242 -16.28125)scale(0.7)" xlink:href="#DejaVuSans-Oblique-1086"/>
      <use transform="translate(310.400391 -16.28125)scale(0.7)" xlink:href="#DejaVuSans-Oblique-1075"/>
      <use transform="translate(347.177734 -16.28125)scale(0.7)" xlink:href="#DejaVuSans-Oblique-1085"/>
      <use transform="translate(392.944336 -16.28125)scale(0.7)" xlink:href="#DejaVuSans-Oblique-1086"/>
      <use transform="translate(435.771484 -16.28125)scale(0.7)" xlink:href="#DejaVuSans-Oblique-1079"/>
     </g>
    </g>
   </g>
  </g>
 </g>
 <defs>
  <clipPath id="pcb387e6fbb">
   <rect height="407.7" width="641.7" x="103.5" y="64.8"/>
  </clipPath>
 </defs>
</svg>
