<?xml version="1.0" encoding="utf-8" standalone="no"?>
<!DOCTYPE svg PUBLIC "-//W3C//DTD SVG 1.1//EN"
  "http://www.w3.org/Graphics/SVG/1.1/DTD/svg11.dtd">
<!-- Created with matplotlib (https://matplotlib.org/) -->
<svg height="7200pt" version="1.1" viewBox="0 0 7200 7200" width="7200pt" xmlns="http://www.w3.org/2000/svg" xmlns:xlink="http://www.w3.org/1999/xlink">
 <defs>
  <style type="text/css">
*{stroke-linecap:butt;stroke-linejoin:round;}
  </style>
 </defs>
 <g id="figure_1">
  <g id="patch_1">
   <path d="M 0 7200 
L 7200 7200 
L 7200 0 
L 0 0 
z
" style="fill:#ffffff;"/>
  </g>
  <g id="axes_1">
   <g id="patch_2">
    <path d="M 900 6300 
L 6480 6300 
L 6480 864 
L 900 864 
z
" style="fill:#ffffff;"/>
   </g>
   <g id="matplotlib.axis_1">
    <g id="xtick_1">
     <g id="line2d_1">
      <path clip-path="url(#p9169fe3fed)" d="M 1740.881711 6300 
L 1740.881711 864 
" style="fill:none;stroke:#b0b0b0;stroke-linecap:square;stroke-width:0.8;"/>
     </g>
     <g id="line2d_2">
      <defs>
       <path d="M 0 0 
L 0 3.5 
" id="mfc3b59f24e" style="stroke:#000000;stroke-width:0.8;"/>
      </defs>
      <g>
       <use style="stroke:#000000;stroke-width:0.8;" x="1740.881711" xlink:href="#mfc3b59f24e" y="6300"/>
      </g>
     </g>
     <g id="text_1">
      <!-- 1940 -->
      <defs>
       <path d="M 12.40625 8.296875 
L 28.515625 8.296875 
L 28.515625 63.921875 
L 10.984375 60.40625 
L 10.984375 69.390625 
L 28.421875 72.90625 
L 38.28125 72.90625 
L 38.28125 8.296875 
L 54.390625 8.296875 
L 54.390625 0 
L 12.40625 0 
z
" id="DejaVuSans-49"/>
       <path d="M 10.984375 1.515625 
L 10.984375 10.5 
Q 14.703125 8.734375 18.5 7.8125 
Q 22.3125 6.890625 25.984375 6.890625 
Q 35.75 6.890625 40.890625 13.453125 
Q 46.046875 20.015625 46.78125 33.40625 
Q 43.953125 29.203125 39.59375 26.953125 
Q 35.25 24.703125 29.984375 24.703125 
Q 19.046875 24.703125 12.671875 31.3125 
Q 6.296875 37.9375 6.296875 49.421875 
Q 6.296875 60.640625 12.9375 67.421875 
Q 19.578125 74.21875 30.609375 74.21875 
Q 43.265625 74.21875 49.921875 64.515625 
Q 56.59375 54.828125 56.59375 36.375 
Q 56.59375 19.140625 48.40625 8.859375 
Q 40.234375 -1.421875 26.421875 -1.421875 
Q 22.703125 -1.421875 18.890625 -0.6875 
Q 15.09375 0.046875 10.984375 1.515625 
z
M 30.609375 32.421875 
Q 37.25 32.421875 41.125 36.953125 
Q 45.015625 41.5 45.015625 49.421875 
Q 45.015625 57.28125 41.125 61.84375 
Q 37.25 66.40625 30.609375 66.40625 
Q 23.96875 66.40625 20.09375 61.84375 
Q 16.21875 57.28125 16.21875 49.421875 
Q 16.21875 41.5 20.09375 36.953125 
Q 23.96875 32.421875 30.609375 32.421875 
z
" id="DejaVuSans-57"/>
       <path d="M 37.796875 64.3125 
L 12.890625 25.390625 
L 37.796875 25.390625 
z
M 35.203125 72.90625 
L 47.609375 72.90625 
L 47.609375 25.390625 
L 58.015625 25.390625 
L 58.015625 17.1875 
L 47.609375 17.1875 
L 47.609375 0 
L 37.796875 0 
L 37.796875 17.1875 
L 4.890625 17.1875 
L 4.890625 26.703125 
z
" id="DejaVuSans-52"/>
       <path d="M 31.78125 66.40625 
Q 24.171875 66.40625 20.328125 58.90625 
Q 16.5 51.421875 16.5 36.375 
Q 16.5 21.390625 20.328125 13.890625 
Q 24.171875 6.390625 31.78125 6.390625 
Q 39.453125 6.390625 43.28125 13.890625 
Q 47.125 21.390625 47.125 36.375 
Q 47.125 51.421875 43.28125 58.90625 
Q 39.453125 66.40625 31.78125 66.40625 
z
M 31.78125 74.21875 
Q 44.046875 74.21875 50.515625 64.515625 
Q 56.984375 54.828125 56.984375 36.375 
Q 56.984375 17.96875 50.515625 8.265625 
Q 44.046875 -1.421875 31.78125 -1.421875 
Q 19.53125 -1.421875 13.0625 8.265625 
Q 6.59375 17.96875 6.59375 36.375 
Q 6.59375 54.828125 13.0625 64.515625 
Q 19.53125 74.21875 31.78125 74.21875 
z
" id="DejaVuSans-48"/>
      </defs>
      <g transform="translate(1728.156711 6314.598437)scale(0.1 -0.1)">
       <use xlink:href="#DejaVuSans-49"/>
       <use x="63.623047" xlink:href="#DejaVuSans-57"/>
       <use x="127.246094" xlink:href="#DejaVuSans-52"/>
       <use x="190.869141" xlink:href="#DejaVuSans-48"/>
      </g>
     </g>
    </g>
    <g id="xtick_2">
     <g id="line2d_3">
      <path clip-path="url(#p9169fe3fed)" d="M 2921.298095 6300 
L 2921.298095 864 
" style="fill:none;stroke:#b0b0b0;stroke-linecap:square;stroke-width:0.8;"/>
     </g>
     <g id="line2d_4">
      <g>
       <use style="stroke:#000000;stroke-width:0.8;" x="2921.298095" xlink:href="#mfc3b59f24e" y="6300"/>
      </g>
     </g>
     <g id="text_2">
      <!-- 1960 -->
      <defs>
       <path d="M 33.015625 40.375 
Q 26.375 40.375 22.484375 35.828125 
Q 18.609375 31.296875 18.609375 23.390625 
Q 18.609375 15.53125 22.484375 10.953125 
Q 26.375 6.390625 33.015625 6.390625 
Q 39.65625 6.390625 43.53125 10.953125 
Q 47.40625 15.53125 47.40625 23.390625 
Q 47.40625 31.296875 43.53125 35.828125 
Q 39.65625 40.375 33.015625 40.375 
z
M 52.59375 71.296875 
L 52.59375 62.3125 
Q 48.875 64.0625 45.09375 64.984375 
Q 41.3125 65.921875 37.59375 65.921875 
Q 27.828125 65.921875 22.671875 59.328125 
Q 17.53125 52.734375 16.796875 39.40625 
Q 19.671875 43.65625 24.015625 45.921875 
Q 28.375 48.1875 33.59375 48.1875 
Q 44.578125 48.1875 50.953125 41.515625 
Q 57.328125 34.859375 57.328125 23.390625 
Q 57.328125 12.15625 50.6875 5.359375 
Q 44.046875 -1.421875 33.015625 -1.421875 
Q 20.359375 -1.421875 13.671875 8.265625 
Q 6.984375 17.96875 6.984375 36.375 
Q 6.984375 53.65625 15.1875 63.9375 
Q 23.390625 74.21875 37.203125 74.21875 
Q 40.921875 74.21875 44.703125 73.484375 
Q 48.484375 72.75 52.59375 71.296875 
z
" id="DejaVuSans-54"/>
      </defs>
      <g transform="translate(2908.573095 6314.598437)scale(0.1 -0.1)">
       <use xlink:href="#DejaVuSans-49"/>
       <use x="63.623047" xlink:href="#DejaVuSans-57"/>
       <use x="127.246094" xlink:href="#DejaVuSans-54"/>
       <use x="190.869141" xlink:href="#DejaVuSans-48"/>
      </g>
     </g>
    </g>
    <g id="xtick_3">
     <g id="line2d_5">
      <path clip-path="url(#p9169fe3fed)" d="M 4101.71448 6300 
L 4101.71448 864 
" style="fill:none;stroke:#b0b0b0;stroke-linecap:square;stroke-width:0.8;"/>
     </g>
     <g id="line2d_6">
      <g>
       <use style="stroke:#000000;stroke-width:0.8;" x="4101.71448" xlink:href="#mfc3b59f24e" y="6300"/>
      </g>
     </g>
     <g id="text_3">
      <!-- 1980 -->
      <defs>
       <path d="M 31.78125 34.625 
Q 24.75 34.625 20.71875 30.859375 
Q 16.703125 27.09375 16.703125 20.515625 
Q 16.703125 13.921875 20.71875 10.15625 
Q 24.75 6.390625 31.78125 6.390625 
Q 38.8125 6.390625 42.859375 10.171875 
Q 46.921875 13.96875 46.921875 20.515625 
Q 46.921875 27.09375 42.890625 30.859375 
Q 38.875 34.625 31.78125 34.625 
z
M 21.921875 38.8125 
Q 15.578125 40.375 12.03125 44.71875 
Q 8.5 49.078125 8.5 55.328125 
Q 8.5 64.0625 14.71875 69.140625 
Q 20.953125 74.21875 31.78125 74.21875 
Q 42.671875 74.21875 48.875 69.140625 
Q 55.078125 64.0625 55.078125 55.328125 
Q 55.078125 49.078125 51.53125 44.71875 
Q 48 40.375 41.703125 38.8125 
Q 48.828125 37.15625 52.796875 32.3125 
Q 56.78125 27.484375 56.78125 20.515625 
Q 56.78125 9.90625 50.3125 4.234375 
Q 43.84375 -1.421875 31.78125 -1.421875 
Q 19.734375 -1.421875 13.25 4.234375 
Q 6.78125 9.90625 6.78125 20.515625 
Q 6.78125 27.484375 10.78125 32.3125 
Q 14.796875 37.15625 21.921875 38.8125 
z
M 18.3125 54.390625 
Q 18.3125 48.734375 21.84375 45.5625 
Q 25.390625 42.390625 31.78125 42.390625 
Q 38.140625 42.390625 41.71875 45.5625 
Q 45.3125 48.734375 45.3125 54.390625 
Q 45.3125 60.0625 41.71875 63.234375 
Q 38.140625 66.40625 31.78125 66.40625 
Q 25.390625 66.40625 21.84375 63.234375 
Q 18.3125 60.0625 18.3125 54.390625 
z
" id="DejaVuSans-56"/>
      </defs>
      <g transform="translate(4088.98948 6314.598437)scale(0.1 -0.1)">
       <use xlink:href="#DejaVuSans-49"/>
       <use x="63.623047" xlink:href="#DejaVuSans-57"/>
       <use x="127.246094" xlink:href="#DejaVuSans-56"/>
       <use x="190.869141" xlink:href="#DejaVuSans-48"/>
      </g>
     </g>
    </g>
    <g id="xtick_4">
     <g id="line2d_7">
      <path clip-path="url(#p9169fe3fed)" d="M 5282.130864 6300 
L 5282.130864 864 
" style="fill:none;stroke:#b0b0b0;stroke-linecap:square;stroke-width:0.8;"/>
     </g>
     <g id="line2d_8">
      <g>
       <use style="stroke:#000000;stroke-width:0.8;" x="5282.130864" xlink:href="#mfc3b59f24e" y="6300"/>
      </g>
     </g>
     <g id="text_4">
      <!-- 2000 -->
      <defs>
       <path d="M 19.1875 8.296875 
L 53.609375 8.296875 
L 53.609375 0 
L 7.328125 0 
L 7.328125 8.296875 
Q 12.9375 14.109375 22.625 23.890625 
Q 32.328125 33.6875 34.8125 36.53125 
Q 39.546875 41.84375 41.421875 45.53125 
Q 43.3125 49.21875 43.3125 52.78125 
Q 43.3125 58.59375 39.234375 62.25 
Q 35.15625 65.921875 28.609375 65.921875 
Q 23.96875 65.921875 18.8125 64.3125 
Q 13.671875 62.703125 7.8125 59.421875 
L 7.8125 69.390625 
Q 13.765625 71.78125 18.9375 73 
Q 24.125 74.21875 28.421875 74.21875 
Q 39.75 74.21875 46.484375 68.546875 
Q 53.21875 62.890625 53.21875 53.421875 
Q 53.21875 48.921875 51.53125 44.890625 
Q 49.859375 40.875 45.40625 35.40625 
Q 44.1875 33.984375 37.640625 27.21875 
Q 31.109375 20.453125 19.1875 8.296875 
z
" id="DejaVuSans-50"/>
      </defs>
      <g transform="translate(5269.405864 6314.598437)scale(0.1 -0.1)">
       <use xlink:href="#DejaVuSans-50"/>
       <use x="63.623047" xlink:href="#DejaVuSans-48"/>
       <use x="127.246094" xlink:href="#DejaVuSans-48"/>
       <use x="190.869141" xlink:href="#DejaVuSans-48"/>
      </g>
     </g>
    </g>
    <g id="xtick_5">
     <g id="line2d_9">
      <path clip-path="url(#p9169fe3fed)" d="M 6462.547249 6300 
L 6462.547249 864 
" style="fill:none;stroke:#b0b0b0;stroke-linecap:square;stroke-width:0.8;"/>
     </g>
     <g id="line2d_10">
      <g>
       <use style="stroke:#000000;stroke-width:0.8;" x="6462.547249" xlink:href="#mfc3b59f24e" y="6300"/>
      </g>
     </g>
     <g id="text_5">
      <!-- 2020 -->
      <g transform="translate(6449.822249 6314.598437)scale(0.1 -0.1)">
       <use xlink:href="#DejaVuSans-50"/>
       <use x="63.623047" xlink:href="#DejaVuSans-48"/>
       <use x="127.246094" xlink:href="#DejaVuSans-50"/>
       <use x="190.869141" xlink:href="#DejaVuSans-48"/>
      </g>
     </g>
    </g>
    <g id="text_6">
     <!-- $t$ -->
     <defs>
      <path d="M 42.28125 54.6875 
L 40.921875 47.703125 
L 23 47.703125 
L 17.1875 18.015625 
Q 16.890625 16.359375 16.75 15.234375 
Q 16.609375 14.109375 16.609375 13.484375 
Q 16.609375 10.359375 18.484375 8.9375 
Q 20.359375 7.515625 24.515625 7.515625 
L 33.59375 7.515625 
L 32.078125 0 
L 23.484375 0 
Q 15.484375 0 11.546875 3.125 
Q 7.625 6.25 7.625 12.59375 
Q 7.625 13.71875 7.765625 15.0625 
Q 7.90625 16.40625 8.203125 18.015625 
L 14.015625 47.703125 
L 6.390625 47.703125 
L 7.8125 54.6875 
L 15.28125 54.6875 
L 18.3125 70.21875 
L 27.296875 70.21875 
L 24.3125 54.6875 
z
" id="DejaVuSans-Oblique-116"/>
     </defs>
     <g transform="translate(3688 6328.276563)scale(0.1 -0.1)">
      <use transform="translate(0 0.78125)" xlink:href="#DejaVuSans-Oblique-116"/>
     </g>
    </g>
   </g>
   <g id="matplotlib.axis_2">
    <g id="ytick_1">
     <g id="line2d_11">
      <path clip-path="url(#p9169fe3fed)" d="M 900 5819.158269 
L 6480 5819.158269 
" style="fill:none;stroke:#b0b0b0;stroke-linecap:square;stroke-width:0.8;"/>
     </g>
     <g id="line2d_12">
      <defs>
       <path d="M 0 0 
L -3.5 0 
" id="m997a22cc75" style="stroke:#000000;stroke-width:0.8;"/>
      </defs>
      <g>
       <use style="stroke:#000000;stroke-width:0.8;" x="900" xlink:href="#m997a22cc75" y="5819.158269"/>
      </g>
     </g>
     <g id="text_7">
      <!-- −15 -->
      <defs>
       <path d="M 10.59375 35.5 
L 73.1875 35.5 
L 73.1875 27.203125 
L 10.59375 27.203125 
z
" id="DejaVuSans-8722"/>
       <path d="M 10.796875 72.90625 
L 49.515625 72.90625 
L 49.515625 64.59375 
L 19.828125 64.59375 
L 19.828125 46.734375 
Q 21.96875 47.46875 24.109375 47.828125 
Q 26.265625 48.1875 28.421875 48.1875 
Q 40.625 48.1875 47.75 41.5 
Q 54.890625 34.8125 54.890625 23.390625 
Q 54.890625 11.625 47.5625 5.09375 
Q 40.234375 -1.421875 26.90625 -1.421875 
Q 22.3125 -1.421875 17.546875 -0.640625 
Q 12.796875 0.140625 7.71875 1.703125 
L 7.71875 11.625 
Q 12.109375 9.234375 16.796875 8.0625 
Q 21.484375 6.890625 26.703125 6.890625 
Q 35.15625 6.890625 40.078125 11.328125 
Q 45.015625 15.765625 45.015625 23.390625 
Q 45.015625 31 40.078125 35.4375 
Q 35.15625 39.890625 26.703125 39.890625 
Q 22.75 39.890625 18.8125 39.015625 
Q 14.890625 38.140625 10.796875 36.28125 
z
" id="DejaVuSans-53"/>
      </defs>
      <g transform="translate(871.895313 5822.957487)scale(0.1 -0.1)">
       <use xlink:href="#DejaVuSans-8722"/>
       <use x="83.789062" xlink:href="#DejaVuSans-49"/>
       <use x="147.412109" xlink:href="#DejaVuSans-53"/>
      </g>
     </g>
    </g>
    <g id="ytick_2">
     <g id="line2d_13">
      <path clip-path="url(#p9169fe3fed)" d="M 900 4910.442272 
L 6480 4910.442272 
" style="fill:none;stroke:#b0b0b0;stroke-linecap:square;stroke-width:0.8;"/>
     </g>
     <g id="line2d_14">
      <g>
       <use style="stroke:#000000;stroke-width:0.8;" x="900" xlink:href="#m997a22cc75" y="4910.442272"/>
      </g>
     </g>
     <g id="text_8">
      <!-- −10 -->
      <g transform="translate(871.895313 4914.241491)scale(0.1 -0.1)">
       <use xlink:href="#DejaVuSans-8722"/>
       <use x="83.789062" xlink:href="#DejaVuSans-49"/>
       <use x="147.412109" xlink:href="#DejaVuSans-48"/>
      </g>
     </g>
    </g>
    <g id="ytick_3">
     <g id="line2d_15">
      <path clip-path="url(#p9169fe3fed)" d="M 900 4001.726276 
L 6480 4001.726276 
" style="fill:none;stroke:#b0b0b0;stroke-linecap:square;stroke-width:0.8;"/>
     </g>
     <g id="line2d_16">
      <g>
       <use style="stroke:#000000;stroke-width:0.8;" x="900" xlink:href="#m997a22cc75" y="4001.726276"/>
      </g>
     </g>
     <g id="text_9">
      <!-- −5 -->
      <g transform="translate(878.257812 4005.525495)scale(0.1 -0.1)">
       <use xlink:href="#DejaVuSans-8722"/>
       <use x="83.789062" xlink:href="#DejaVuSans-53"/>
      </g>
     </g>
    </g>
    <g id="ytick_4">
     <g id="line2d_17">
      <path clip-path="url(#p9169fe3fed)" d="M 900 3093.010279 
L 6480 3093.010279 
" style="fill:none;stroke:#b0b0b0;stroke-linecap:square;stroke-width:0.8;"/>
     </g>
     <g id="line2d_18">
      <g>
       <use style="stroke:#000000;stroke-width:0.8;" x="900" xlink:href="#m997a22cc75" y="3093.010279"/>
      </g>
     </g>
     <g id="text_10">
      <!-- 0 -->
      <g transform="translate(886.6375 3096.809498)scale(0.1 -0.1)">
       <use xlink:href="#DejaVuSans-48"/>
      </g>
     </g>
    </g>
    <g id="ytick_5">
     <g id="line2d_19">
      <path clip-path="url(#p9169fe3fed)" d="M 900 2184.294283 
L 6480 2184.294283 
" style="fill:none;stroke:#b0b0b0;stroke-linecap:square;stroke-width:0.8;"/>
     </g>
     <g id="line2d_20">
      <g>
       <use style="stroke:#000000;stroke-width:0.8;" x="900" xlink:href="#m997a22cc75" y="2184.294283"/>
      </g>
     </g>
     <g id="text_11">
      <!-- 5 -->
      <g transform="translate(886.6375 2188.093502)scale(0.1 -0.1)">
       <use xlink:href="#DejaVuSans-53"/>
      </g>
     </g>
    </g>
    <g id="ytick_6">
     <g id="line2d_21">
      <path clip-path="url(#p9169fe3fed)" d="M 900 1275.578287 
L 6480 1275.578287 
" style="fill:none;stroke:#b0b0b0;stroke-linecap:square;stroke-width:0.8;"/>
     </g>
     <g id="line2d_22">
      <g>
       <use style="stroke:#000000;stroke-width:0.8;" x="900" xlink:href="#m997a22cc75" y="1275.578287"/>
      </g>
     </g>
     <g id="text_12">
      <!-- 10 -->
      <g transform="translate(880.275 1279.377505)scale(0.1 -0.1)">
       <use xlink:href="#DejaVuSans-49"/>
       <use x="63.623047" xlink:href="#DejaVuSans-48"/>
      </g>
     </g>
    </g>
    <g id="text_13">
     <!-- $\phi(t)$ -->
     <defs>
      <path d="M 46.734375 75.984375 
L 42.78125 55.8125 
Q 52.546875 55.8125 57.5625 48.34375 
Q 62.75 40.71875 60.15625 27.296875 
Q 57.515625 13.875 49.359375 6.25 
Q 41.453125 -1.21875 31.6875 -1.21875 
L 27.875 -20.796875 
L 18.953125 -20.796875 
L 22.75 -1.21875 
Q 13.03125 -1.21875 7.953125 6.25 
Q 2.78125 13.875 5.421875 27.296875 
Q 8.015625 40.71875 16.15625 48.34375 
Q 24.125 55.8125 33.84375 55.8125 
L 37.796875 75.984375 
z
M 33.25 6.78125 
Q 38.765625 6.78125 43.5 11.8125 
Q 48.6875 17.4375 50.6875 27.296875 
Q 52.640625 37.0625 49.515625 42.78125 
Q 46.734375 47.796875 41.21875 47.796875 
z
M 24.3125 6.78125 
L 32.28125 47.796875 
Q 26.8125 47.796875 22.078125 42.78125 
Q 16.75 37.0625 14.890625 27.296875 
Q 13.03125 17.4375 16.0625 11.8125 
Q 18.796875 6.78125 24.3125 6.78125 
z
" id="DejaVuSans-Oblique-981"/>
      <path d="M 31 75.875 
Q 24.46875 64.65625 21.28125 53.65625 
Q 18.109375 42.671875 18.109375 31.390625 
Q 18.109375 20.125 21.3125 9.0625 
Q 24.515625 -2 31 -13.1875 
L 23.1875 -13.1875 
Q 15.875 -1.703125 12.234375 9.375 
Q 8.59375 20.453125 8.59375 31.390625 
Q 8.59375 42.28125 12.203125 53.3125 
Q 15.828125 64.359375 23.1875 75.875 
z
" id="DejaVuSans-40"/>
      <path d="M 8.015625 75.875 
L 15.828125 75.875 
Q 23.140625 64.359375 26.78125 53.3125 
Q 30.421875 42.28125 30.421875 31.390625 
Q 30.421875 20.453125 26.78125 9.375 
Q 23.140625 -1.703125 15.828125 -13.1875 
L 8.015625 -13.1875 
Q 14.5 -2 17.703125 9.0625 
Q 20.90625 20.125 20.90625 31.390625 
Q 20.90625 42.671875 17.703125 53.65625 
Q 14.5 64.65625 8.015625 75.875 
z
" id="DejaVuSans-41"/>
     </defs>
     <g transform="translate(865.795313 3591.2)rotate(-90)scale(0.1 -0.1)">
      <use transform="translate(0 0.015625)" xlink:href="#DejaVuSans-Oblique-981"/>
      <use transform="translate(65.966797 0.015625)" xlink:href="#DejaVuSans-40"/>
      <use transform="translate(104.980469 0.015625)" xlink:href="#DejaVuSans-Oblique-116"/>
      <use transform="translate(144.189453 0.015625)" xlink:href="#DejaVuSans-41"/>
     </g>
    </g>
   </g>
   <g id="line2d_23">
    <path clip-path="url(#p9169fe3fed)" d="M 1153.636364 4151.934222 
L 1156.587405 4142.457878 
L 1159.538446 4142.251821 
L 1162.489487 4148.114858 
L 1165.440527 4182.583204 
L 1168.391568 4162.174252 
L 1171.342609 4167.529105 
L 1174.29365 4241.861885 
L 1177.244691 4242.521251 
L 1180.195732 4294.343367 
L 1183.146773 4283.40944 
L 1186.097814 4299.168913 
L 1189.042953 4271.179222 
L 1191.993994 4301.907456 
L 1194.945035 4278.621603 
L 1197.896076 4292.521776 
L 1200.847117 4301.027276 
L 1203.798158 4305.365496 
L 1206.749199 4374.917518 
L 1209.70024 4414.48464 
L 1215.602322 4354.673858 
L 1218.553363 4372.556069 
L 1221.504404 4380.328483 
L 1227.406486 4349.104628 
L 1230.357527 4382.308823 
L 1233.308568 4400.214962 
L 1236.259608 4421.458589 
L 1242.16169 4458.931208 
L 1245.112731 4463.455051 
L 1248.063772 4446.402258 
L 1251.014813 4459.968483 
L 1253.965854 4462.497391 
L 1256.916895 4512.697207 
L 1259.867936 4569.695573 
L 1262.818977 4553.441809 
L 1265.770018 4508.712725 
L 1268.721059 4519.938701 
L 1271.6721 4543.755613 
L 1274.623141 4526.723595 
L 1277.574182 4555.183398 
L 1280.525223 4546.957474 
L 1283.476264 4546.274993 
L 1286.427305 4565.012196 
L 1289.378346 4544.591378 
L 1292.329387 4535.940223 
L 1295.280428 4572.371484 
L 1298.231469 4556.332281 
L 1301.18251 4573.172511 
L 1304.133551 4612.022515 
L 1307.084592 4601.780796 
L 1310.035632 4596.431831 
L 1312.986673 4622.733238 
L 1315.937714 4580.393174 
L 1318.888755 4582.944905 
L 1321.839796 4539.219611 
L 1324.790837 4612.422223 
L 1327.741878 4654.057557 
L 1330.692919 4686.343717 
L 1333.64396 4733.908619 
L 1336.595001 4748.287849 
L 1339.546042 4706.075691 
L 1342.497083 4566.729348 
L 1345.448124 4536.709413 
L 1348.399165 4515.500189 
L 1351.350206 4548.000665 
L 1354.301247 4552.894149 
L 1357.252288 4558.431316 
L 1360.203329 4558.963324 
L 1363.15437 4595.818311 
L 1366.105411 4684.074384 
L 1369.056452 4639.69352 
L 1372.007493 4544.322814 
L 1374.958534 4558.67867 
L 1377.909575 4549.580181 
L 1380.860616 4602.677345 
L 1383.811657 4566.389483 
L 1386.762697 4656.582749 
L 1389.713738 4272.475317 
L 1392.664779 4244.876399 
L 1395.61582 4274.934572 
L 1398.566861 4281.607331 
L 1401.517902 4244.463144 
L 1404.468943 4151.513859 
L 1407.419984 4119.996868 
L 1410.371025 4187.534579 
L 1413.322066 4156.950993 
L 1416.273107 4192.833828 
L 1419.224148 4221.393162 
L 1422.175189 4257.909799 
L 1425.12623 4351.212713 
L 1428.077271 4347.239753 
L 1431.028312 4294.073392 
L 1433.979353 4208.513157 
L 1436.930394 4293.235189 
L 1439.881435 4255.183714 
L 1442.832476 4745.224625 
L 1445.783517 4218.702335 
L 1448.734558 4615.503226 
L 1451.685599 4781.08805 
L 1454.63664 4592.991624 
L 1457.581778 4677.25597 
L 1460.532819 4674.590916 
L 1463.48386 4634.644398 
L 1466.434901 4825.016897 
L 1472.336983 5807.297912 
L 1475.288024 5545.120943 
L 1478.239065 5925.172429 
L 1481.190106 6052.909091 
L 1484.141147 5797.748669 
L 1487.092188 5947.796412 
L 1490.043229 5637.934072 
L 1492.99427 5612.300491 
L 1495.945311 5493.580874 
L 1498.896352 5467.450426 
L 1501.847393 5457.440258 
L 1504.798434 5488.528341 
L 1507.749475 5166.4842 
L 1510.700516 5141.595809 
L 1513.651557 5138.123923 
L 1516.602598 5078.977089 
L 1519.553639 4932.715585 
L 1522.50468 4891.984786 
L 1525.455721 4929.747402 
L 1528.406762 4915.739437 
L 1531.357803 4999.239938 
L 1534.308843 4994.474768 
L 1537.259884 4986.866321 
L 1540.210925 5081.925201 
L 1543.161966 5093.737223 
L 1549.064048 5131.111826 
L 1552.015089 5112.039377 
L 1554.96613 5086.964645 
L 1557.917171 5157.165361 
L 1560.868212 5200.191466 
L 1563.819253 5187.134641 
L 1566.770294 5035.984965 
L 1569.721335 4991.631424 
L 1572.672376 4914.465296 
L 1575.623417 4899.615825 
L 1578.574458 4947.896313 
L 1581.525499 4929.50399 
L 1584.47654 4977.881148 
L 1587.427581 4939.7965 
L 1590.378622 4968.980195 
L 1593.329663 4956.765968 
L 1596.280704 4981.563793 
L 1599.231745 5032.47597 
L 1602.182786 5047.166549 
L 1605.133827 5081.459201 
L 1608.084867 5113.913408 
L 1611.035908 5091.408768 
L 1613.986949 4982.052911 
L 1616.93799 4954.477204 
L 1619.889031 5048.124309 
L 1622.840072 5018.061542 
L 1625.791113 5016.312217 
L 1628.742154 5042.249616 
L 1631.693195 5025.539189 
L 1634.644236 5019.451633 
L 1637.595277 5065.43265 
L 1640.546318 5096.521992 
L 1643.497359 5059.875643 
L 1646.4484 5015.701126 
L 1649.399441 4957.588204 
L 1652.350482 5081.536825 
L 1655.301523 5086.202107 
L 1658.252564 5068.919045 
L 1661.203605 5141.674505 
L 1664.154646 5125.962901 
L 1667.105687 5011.585293 
L 1670.056728 5061.595144 
L 1673.007769 5063.664382 
L 1675.95881 5101.286675 
L 1678.909851 5111.551726 
L 1681.860892 5130.301775 
L 1684.811932 5098.955322 
L 1687.762973 5148.980865 
L 1690.714014 5142.724944 
L 1693.665055 5188.859572 
L 1696.616096 5166.060767 
L 1699.567137 5164.83236 
L 1702.518178 5196.806117 
L 1705.469219 5216.112091 
L 1708.42026 5218.839129 
L 1711.371301 5234.207372 
L 1714.322342 5203.523175 
L 1717.273383 5211.395504 
L 1720.224424 5209.170503 
L 1723.175465 5186.442638 
L 1726.120604 5098.605808 
L 1729.077547 5118.439506 
L 1732.022686 5120.061974 
L 1734.973727 5087.826874 
L 1737.924768 4978.896221 
L 1740.875809 5022.356443 
L 1743.82685 5146.71614 
L 1746.777891 5127.981307 
L 1749.728932 5140.22855 
L 1752.679973 5177.478198 
L 1755.631013 5174.584437 
L 1758.582054 5176.548081 
L 1761.533095 5019.212309 
L 1764.484136 5137.693645 
L 1767.435177 5154.504149 
L 1770.386218 5158.11963 
L 1773.337259 5131.853855 
L 1776.2883 5158.707486 
L 1779.239341 5144.233956 
L 1782.190382 5110.493189 
L 1785.141423 5135.832427 
L 1788.092464 5107.887789 
L 1791.043505 5131.029694 
L 1793.994546 5208.03079 
L 1796.945587 5188.448657 
L 1799.896628 5022.969429 
L 1802.847669 4915.078324 
L 1805.79871 4896.659358 
L 1808.749751 4662.350702 
L 1811.700792 4671.222857 
L 1814.651833 4804.337418 
L 1817.602874 4843.270526 
L 1820.553915 4922.33577 
L 1823.504956 4907.027049 
L 1826.455997 4806.366996 
L 1829.407038 4762.734583 
L 1832.358078 4585.174884 
L 1835.309119 4565.182249 
L 1838.26016 4566.04699 
L 1841.211201 4600.796157 
L 1844.162242 4563.114574 
L 1847.113283 4507.38576 
L 1850.064324 4515.223826 
L 1853.015365 4496.153684 
L 1855.966406 4522.810613 
L 1858.917447 4476.12838 
L 1861.868488 4445.49989 
L 1864.819529 4295.147857 
L 1867.77057 4131.082943 
L 1870.721611 3591.38674 
L 1873.672652 3631.071854 
L 1876.623693 3893.453916 
L 1879.574734 3843.968502 
L 1882.525775 4181.006901 
L 1885.476816 4033.321206 
L 1888.427857 4090.157967 
L 1891.378898 3948.732662 
L 1894.329939 3994.5839 
L 1897.28098 3993.177046 
L 1900.232021 3830.640964 
L 1903.183062 3930.180529 
L 1906.134102 3818.600684 
L 1909.085143 3769.495074 
L 1912.036184 3634.038833 
L 1914.987225 3616.486639 
L 1917.938266 3525.512338 
L 1920.889307 3506.865933 
L 1923.840348 3504.522344 
L 1926.791389 3497.159511 
L 1929.74243 3441.593991 
L 1932.693471 3320.932995 
L 1935.644512 3358.28818 
L 1938.595553 3378.317274 
L 1941.546594 3357.941247 
L 1944.497635 3216.942172 
L 1947.448676 3264.364446 
L 1950.399717 3345.278222 
L 1953.350758 3414.158467 
L 1956.301799 3338.031887 
L 1959.25284 3305.585035 
L 1962.203881 3200.012074 
L 1965.154922 2828.926936 
L 1968.105963 2856.666415 
L 1971.057004 2973.342238 
L 1974.008045 3042.941143 
L 1976.959086 2984.288675 
L 1979.910127 2901.832992 
L 1982.861167 2791.560021 
L 1985.812208 2776.006978 
L 1988.763249 2768.91744 
L 1991.71429 2743.873877 
L 1994.665331 2640.167724 
L 1997.616372 2952.124635 
L 2000.561511 2518.518787 
L 2003.512552 2444.525252 
L 2006.463593 2470.283199 
L 2009.414634 2469.908131 
L 2012.365675 2478.760095 
L 2015.316716 2456.219175 
L 2018.267757 2439.781555 
L 2021.218798 2476.50073 
L 2024.169839 2507.934952 
L 2027.12088 2505.335639 
L 2030.071921 2495.759771 
L 2033.022962 2494.343752 
L 2035.974003 2508.665838 
L 2038.925044 2521.596741 
L 2041.876085 2539.659162 
L 2044.827126 2504.131511 
L 2047.778167 2518.69976 
L 2050.729208 2518.327793 
L 2053.680248 2504.530929 
L 2056.631289 2501.286388 
L 2059.58233 2523.958741 
L 2062.533371 2520.402467 
L 2065.484412 2569.966061 
L 2068.435453 2573.801803 
L 2071.386494 2575.222376 
L 2074.337535 2570.589046 
L 2077.288576 2594.583742 
L 2080.239617 2578.176133 
L 2083.190658 2578.526726 
L 2086.141699 2598.774878 
L 2089.09274 2615.416114 
L 2092.043781 2613.914181 
L 2094.994822 2616.234664 
L 2097.945863 2667.538219 
L 2100.896904 2641.741266 
L 2103.847945 2640.06639 
L 2109.750027 2631.244259 
L 2112.701068 2634.583672 
L 2115.652109 2624.71773 
L 2118.60315 2684.751094 
L 2121.554191 2659.244172 
L 2124.505232 2641.185709 
L 2127.456273 2698.230396 
L 2130.407313 2679.990048 
L 2133.358354 2687.208211 
L 2136.309395 2721.359477 
L 2139.260436 2691.883294 
L 2142.211477 2671.812133 
L 2145.162518 2702.445418 
L 2148.113559 2683.213495 
L 2151.0646 2680.175099 
L 2154.015641 2662.023021 
L 2156.966682 2655.678283 
L 2159.917723 2725.521696 
L 2162.868764 2728.290089 
L 2165.819805 2726.071035 
L 2168.770846 2710.98389 
L 2171.721887 2794.671016 
L 2174.672928 2778.880669 
L 2177.623969 2770.489654 
L 2180.57501 2770.408065 
L 2183.526051 2803.298995 
L 2186.477092 2830.472123 
L 2189.428133 2879.042723 
L 2192.379174 2856.553626 
L 2195.330215 2843.341994 
L 2198.281256 2835.570687 
L 2201.232297 2815.205887 
L 2204.183337 2781.082958 
L 2207.134378 2764.440754 
L 2210.085419 2741.877145 
L 2213.03646 2701.448853 
L 2215.987501 2614.496989 
L 2218.938542 2611.724008 
L 2221.889583 2662.052598 
L 2224.840624 2633.037437 
L 2227.791665 2538.434806 
L 2230.742706 2546.328092 
L 2233.693747 2577.128683 
L 2236.644788 2578.10391 
L 2239.595829 2603.57837 
L 2242.54687 2577.930397 
L 2245.497911 2517.191043 
L 2248.448952 2594.500111 
L 2251.399993 2667.113578 
L 2254.351034 2652.728784 
L 2257.302075 2501.627559 
L 2260.253116 2546.528195 
L 2263.204157 2503.89746 
L 2266.155198 2510.128575 
L 2269.100337 2473.542053 
L 2272.051378 2455.636874 
L 2275.002418 2440.966399 
L 2277.953459 2398.690715 
L 2280.9045 2265.135263 
L 2283.855541 2282.771916 
L 2286.806582 2287.442957 
L 2289.757623 2288.456406 
L 2292.708664 2296.272568 
L 2295.659705 2276.632555 
L 2298.610746 2306.395417 
L 2301.561787 2285.784106 
L 2304.512828 2195.336186 
L 2307.463869 2190.202209 
L 2310.41491 2173.14896 
L 2313.365951 2217.505972 
L 2316.316992 2225.672793 
L 2319.268033 2241.711048 
L 2322.219074 2280.250685 
L 2325.170115 2308.737829 
L 2328.121156 2291.283877 
L 2331.072197 2305.972511 
L 2334.023238 2291.00156 
L 2336.974279 2310.282011 
L 2339.92532 2299.688169 
L 2342.876361 2299.080818 
L 2345.827402 2297.823851 
L 2348.778443 2299.677713 
L 2351.729483 2296.908651 
L 2357.631565 2320.937722 
L 2360.582606 2326.940756 
L 2363.533647 2304.600818 
L 2366.484688 2205.357462 
L 2369.435729 2227.213535 
L 2372.38677 2226.10208 
L 2375.337811 2254.709737 
L 2378.288852 2262.24649 
L 2381.239893 2258.152189 
L 2384.190934 2268.284241 
L 2387.141975 2260.962379 
L 2390.093016 2289.882413 
L 2393.044057 2294.703991 
L 2395.995098 2301.513 
L 2398.946139 2292.782443 
L 2401.89718 2322.905775 
L 2404.848221 2322.584282 
L 2407.799262 2326.525852 
L 2410.750303 2343.012976 
L 2413.701344 2365.262047 
L 2416.652385 2368.045112 
L 2419.603426 2369.794534 
L 2422.554467 2372.799541 
L 2425.505507 2386.129151 
L 2428.456548 2384.52996 
L 2431.407589 2386.358906 
L 2434.35863 2383.724622 
L 2437.309671 2388.911729 
L 2440.260712 2380.03094 
L 2443.211753 2391.88515 
L 2446.162794 2391.046049 
L 2449.113835 2397.602148 
L 2452.064876 2397.116525 
L 2455.015917 2421.833648 
L 2457.966958 2428.344237 
L 2460.917999 2429.436802 
L 2463.86904 2438.157116 
L 2466.820081 2466.935273 
L 2469.771122 2460.710268 
L 2472.722163 2444.18813 
L 2475.673204 2440.426479 
L 2478.624245 2469.011641 
L 2481.575286 2473.778112 
L 2484.526327 2491.698183 
L 2487.477368 2486.551941 
L 2490.428409 2475.273925 
L 2493.37945 2475.274809 
L 2496.330491 2472.199666 
L 2499.281532 2481.050223 
L 2502.232572 2484.221332 
L 2505.183613 2506.177491 
L 2508.134654 2511.255873 
L 2511.085695 2512.502165 
L 2514.036736 2502.80662 
L 2516.987777 2518.98808 
L 2519.938818 2518.971401 
L 2522.889859 2511.929697 
L 2528.791941 2551.643124 
L 2531.742982 2555.693423 
L 2534.694023 2595.818228 
L 2537.639162 2613.590333 
L 2540.590203 2619.950078 
L 2543.541244 2610.643987 
L 2546.492285 2587.871362 
L 2549.443326 2597.136354 
L 2552.394367 2602.243239 
L 2555.345408 2582.3376 
L 2558.296449 2596.366348 
L 2561.24749 2606.152977 
L 2564.198531 2595.171739 
L 2567.149572 2621.876429 
L 2570.100613 2654.826798 
L 2573.051653 2632.872685 
L 2576.002694 2654.38483 
L 2578.953735 2701.359988 
L 2581.904776 2664.202249 
L 2584.855817 2649.006119 
L 2587.806858 2652.412717 
L 2590.757899 2677.806897 
L 2593.70894 2687.979064 
L 2596.659981 2683.38576 
L 2599.611022 2664.332503 
L 2602.562063 2680.384569 
L 2605.513104 2722.762433 
L 2608.464145 2688.017036 
L 2611.415186 2678.789823 
L 2614.366227 2655.416162 
L 2617.317268 2658.231034 
L 2620.268309 2633.317664 
L 2623.21935 2632.048977 
L 2626.170391 2629.029635 
L 2629.121432 2635.991294 
L 2632.072473 2599.41628 
L 2635.023514 2588.19558 
L 2637.974555 2573.357571 
L 2640.925596 2556.870417 
L 2643.876637 2627.901137 
L 2646.827678 2585.736435 
L 2649.778718 2460.780993 
L 2652.729759 2467.548067 
L 2655.6808 2457.521099 
L 2658.631841 2462.135847 
L 2661.582882 2475.159982 
L 2664.533923 2465.657449 
L 2667.484964 2488.086848 
L 2670.436005 2493.128318 
L 2673.387046 2513.897677 
L 2676.338087 2509.216083 
L 2679.289128 2471.999419 
L 2682.240169 2532.875966 
L 2685.19121 2568.536671 
L 2688.142251 2601.557805 
L 2691.093292 2582.878899 
L 2694.044333 2525.735375 
L 2696.995374 2520.323717 
L 2699.946415 2493.094264 
L 2702.897456 2487.843132 
L 2705.848497 2496.824476 
L 2708.799538 2496.868909 
L 2711.750579 2477.589141 
L 2714.70162 2486.860861 
L 2717.652661 2484.510944 
L 2720.603702 2453.09386 
L 2723.554742 2451.465512 
L 2726.505783 2465.741445 
L 2729.456824 2514.604274 
L 2732.407865 2591.502454 
L 2735.358906 2602.359456 
L 2738.309947 2623.15371 
L 2741.260988 2626.676222 
L 2744.212029 2610.131601 
L 2747.16307 2577.591002 
L 2750.114111 2605.711283 
L 2753.065152 2599.623459 
L 2756.016193 2576.833505 
L 2758.967234 2562.075423 
L 2761.918275 2563.205838 
L 2764.869316 2560.588741 
L 2767.820357 2549.563012 
L 2770.771398 2556.419305 
L 2773.722439 2551.323763 
L 2776.67348 2543.655166 
L 2779.624521 2546.914241 
L 2782.575562 2565.75689 
L 2785.526603 2572.427603 
L 2788.477644 2570.540816 
L 2791.428685 2614.417569 
L 2794.379726 2611.078741 
L 2797.330767 2633.411465 
L 2800.281807 2670.139296 
L 2803.232848 2681.207736 
L 2806.177987 2704.595812 
L 2809.129028 2740.06648 
L 2812.080069 2711.451603 
L 2815.03111 2688.664497 
L 2817.982151 2683.837764 
L 2820.933192 2708.338741 
L 2823.884233 2702.951606 
L 2826.835274 2689.517753 
L 2829.786315 2689.130686 
L 2832.737356 2685.391776 
L 2835.688397 2694.796221 
L 2838.639438 2690.185993 
L 2841.590479 2702.048043 
L 2844.54152 2697.782123 
L 2847.492561 2690.536548 
L 2850.443602 2652.319681 
L 2853.394643 2688.72227 
L 2856.345684 2709.586245 
L 2859.296725 2717.768044 
L 2862.247766 2751.120322 
L 2865.198807 2786.391679 
L 2868.149848 2776.308268 
L 2871.100888 2765.203101 
L 2874.051929 2774.007842 
L 2877.00297 2765.512293 
L 2879.954011 2802.024257 
L 2882.905052 2798.669259 
L 2885.856093 2784.737051 
L 2888.807134 2798.777865 
L 2891.758175 2806.148891 
L 2894.709216 2813.03876 
L 2897.660257 2825.559818 
L 2900.611298 2820.121791 
L 2903.562339 2812.046907 
L 2906.51338 2812.748162 
L 2909.464421 2809.648332 
L 2912.415462 2801.201922 
L 2915.366503 2815.547026 
L 2918.317544 2814.539052 
L 2921.268585 2852.841349 
L 2924.219626 2841.39706 
L 2927.170667 2896.137243 
L 2930.121708 2867.619711 
L 2933.072749 2888.479011 
L 2936.02379 2865.04041 
L 2938.974831 2905.161415 
L 2941.925872 2917.457033 
L 2944.876913 2891.500049 
L 2947.827953 2892.026446 
L 2950.778994 2909.664602 
L 2953.730035 2910.253536 
L 2956.681076 2939.482566 
L 2959.632117 2933.035153 
L 2962.583158 2949.356953 
L 2965.534199 2935.877787 
L 2971.436281 2893.6811 
L 2974.387322 2793.407106 
L 2977.338363 2826.201885 
L 2980.289404 2833.62266 
L 2983.240445 2569.635788 
L 2986.191486 2528.566914 
L 2989.142527 2601.907941 
L 2992.093568 2608.784172 
L 2995.044609 2591.646698 
L 2997.99565 2493.399525 
L 3000.946691 2511.529243 
L 3003.897732 2480.484281 
L 3006.848773 2422.141897 
L 3009.799814 2366.762017 
L 3012.750855 2274.778106 
L 3015.701896 2155.453815 
L 3018.652937 2135.853037 
L 3021.603977 1978.147178 
L 3024.555018 1961.774415 
L 3027.506059 1959.119321 
L 3030.4571 2013.883631 
L 3033.408141 2050.707659 
L 3036.359182 2031.373954 
L 3039.310223 1824.22166 
L 3042.261264 1727.172828 
L 3045.212305 1709.778595 
L 3048.163346 1700.755605 
L 3051.114387 1780.138869 
L 3054.065428 2144.23514 
L 3057.016469 2176.725411 
L 3059.96751 2160.337547 
L 3062.918551 2156.874662 
L 3065.869592 2151.718781 
L 3068.820633 2126.982772 
L 3071.771674 2099.026721 
L 3074.716813 2079.099006 
L 3077.667854 2062.635542 
L 3080.618895 2048.597429 
L 3083.569936 2040.001805 
L 3086.520977 2036.811778 
L 3089.472018 2030.639703 
L 3092.423058 2027.292313 
L 3095.374099 2035.729004 
L 3098.32514 2037.18133 
L 3101.276181 2027.026501 
L 3104.227222 2013.605922 
L 3107.178263 2004.407754 
L 3110.129304 2007.599084 
L 3113.080345 2031.387998 
L 3116.031386 2086.047911 
L 3118.982427 2165.260251 
L 3121.933468 2202.805658 
L 3124.884509 2209.184225 
L 3127.83555 2205.245489 
L 3130.786591 2198.69514 
L 3133.737632 2200.241488 
L 3136.688673 2213.91233 
L 3139.639714 2225.197033 
L 3142.590755 2226.910407 
L 3145.541796 2229.095632 
L 3148.492837 2230.550233 
L 3151.443878 2221.551421 
L 3154.394919 2205.428401 
L 3157.34596 2196.762748 
L 3160.297001 2196.535123 
L 3163.248042 2194.079191 
L 3166.199083 2187.153175 
L 3169.150123 2182.600962 
L 3172.101164 2189.305193 
L 3175.052205 2205.489646 
L 3178.003246 2217.396291 
L 3180.954287 2221.809465 
L 3183.905328 2230.34061 
L 3186.856369 2246.532361 
L 3189.80741 2263.836851 
L 3192.758451 2279.500306 
L 3195.709492 2298.179489 
L 3198.660533 2319.490037 
L 3201.611574 2332.672384 
L 3204.562615 2335.371963 
L 3207.513656 2336.466675 
L 3210.464697 2337.789598 
L 3213.415738 2333.19264 
L 3216.366779 2327.755637 
L 3219.31782 2327.907204 
L 3222.268861 2327.521362 
L 3225.219902 2320.354068 
L 3228.170943 2314.027808 
L 3231.121984 2309.183783 
L 3234.073025 2305.896632 
L 3237.024066 2304.342049 
L 3239.975107 2301.278977 
L 3242.926148 2306.776258 
L 3248.828229 2356.571232 
L 3251.77927 2360.920555 
L 3254.730311 2368.639447 
L 3260.632393 2462.452735 
L 3263.583434 2472.844591 
L 3266.534475 2468.259223 
L 3269.485516 2469.805819 
L 3272.436557 2477.603 
L 3275.387598 2480.136599 
L 3278.338639 2471.789485 
L 3281.28968 2461.371985 
L 3284.240721 2452.85449 
L 3290.142803 2425.387948 
L 3293.093844 2414.924012 
L 3296.044885 2396.391778 
L 3298.995926 2373.550236 
L 3301.946967 2367.755544 
L 3304.898008 2381.070819 
L 3307.849049 2388.935978 
L 3310.80009 2394.586076 
L 3313.751131 2405.686848 
L 3316.702172 2424.717451 
L 3319.653212 2480.719098 
L 3322.604253 2559.728791 
L 3325.555294 2613.573791 
L 3328.506335 2633.766975 
L 3331.457376 2626.024109 
L 3334.408417 2621.133674 
L 3337.359458 2632.731958 
L 3340.310499 2633.541712 
L 3343.255638 2611.923129 
L 3349.15772 2550.836278 
L 3352.108761 2524.32005 
L 3355.059802 2489.791671 
L 3358.010843 2450.118823 
L 3360.961884 2401.744221 
L 3363.912925 2344.887153 
L 3366.863966 2316.79927 
L 3372.766048 2243.557733 
L 3375.717089 2215.065849 
L 3378.66813 2183.176975 
L 3387.521253 2079.76547 
L 3390.472293 2066.23285 
L 3393.423334 2050.034737 
L 3396.374375 2005.297707 
L 3399.325416 1941.564213 
L 3402.276457 1823.014202 
L 3405.227498 1657.518224 
L 3411.12958 1445.593019 
L 3414.080621 1390.166031 
L 3417.031662 1320.5834 
L 3419.982703 1294.064902 
L 3422.933744 1256.809967 
L 3425.884785 1224.624168 
L 3428.835826 1206.132623 
L 3431.786867 1196.035351 
L 3434.737908 1182.197037 
L 3437.688949 1160.224234 
L 3440.63999 1145.902953 
L 3443.591031 1149.39389 
L 3446.542072 1152.111697 
L 3449.493113 1140.367559 
L 3452.444154 1123.10498 
L 3455.395195 1111.090909 
L 3458.346236 1112.211942 
L 3461.297277 1118.525497 
L 3464.248318 1117.27288 
L 3467.199358 1125.679106 
L 3470.150399 1155.969879 
L 3473.10144 1198.117886 
L 3476.052481 1247.124145 
L 3479.003522 1282.530305 
L 3481.954563 1296.87132 
L 3484.905604 1305.467475 
L 3487.856645 1314.936656 
L 3490.807686 1319.009774 
L 3493.758727 1318.865635 
L 3496.709768 1321.405278 
L 3499.660809 1318.270855 
L 3502.61185 1306.53634 
L 3505.562891 1299.466709 
L 3508.513932 1299.26862 
L 3511.464973 1303.75137 
L 3514.416014 1305.854636 
L 3517.367055 1301.699947 
L 3520.318096 1302.324703 
L 3523.269137 1304.806339 
L 3526.220178 1300.101813 
L 3529.171219 1298.450625 
L 3532.12226 1309.712356 
L 3535.073301 1334.535913 
L 3538.024342 1367.175949 
L 3540.975383 1397.87994 
L 3543.926423 1423.922465 
L 3546.877464 1442.585246 
L 3549.828505 1452.372499 
L 3552.779546 1460.312425 
L 3555.730587 1466.455543 
L 3561.632669 1476.422338 
L 3564.58371 1477.018837 
L 3567.534751 1468.869953 
L 3570.485792 1459.71343 
L 3573.436833 1457.92554 
L 3576.387874 1461.363221 
L 3579.338915 1461.786541 
L 3582.289956 1459.463648 
L 3585.240997 1459.928418 
L 3588.192038 1456.863252 
L 3591.143079 1450.004289 
L 3594.09412 1454.498834 
L 3597.045161 1475.634352 
L 3599.996202 1503.801657 
L 3602.947243 1529.666143 
L 3605.898284 1551.986155 
L 3608.849325 1565.246922 
L 3611.794463 1576.152976 
L 3614.751407 1594.182992 
L 3617.696545 1610.741288 
L 3620.647586 1616.182373 
L 3623.598627 1614.247014 
L 3626.549668 1615.647618 
L 3629.500709 1619.183905 
L 3632.45175 1618.018859 
L 3635.402791 1607.767819 
L 3638.353832 1594.844082 
L 3641.304873 1592.370714 
L 3644.255914 1594.622719 
L 3647.206955 1594.901013 
L 3653.109037 1585.545784 
L 3656.060078 1595.856665 
L 3659.011119 1629.041436 
L 3661.96216 1669.052784 
L 3664.913201 1691.081458 
L 3667.864242 1692.476555 
L 3670.815283 1694.669187 
L 3673.766324 1714.265588 
L 3676.717365 1741.421855 
L 3679.668406 1754.982458 
L 3682.619447 1755.971166 
L 3685.570488 1756.09327 
L 3688.521528 1755.142327 
L 3691.472569 1750.391052 
L 3694.42361 1744.434577 
L 3697.374651 1736.14867 
L 3700.325692 1730.22999 
L 3703.276733 1726.384627 
L 3706.227774 1729.411543 
L 3709.178815 1728.974498 
L 3712.129856 1718.543301 
L 3715.080897 1704.335652 
L 3718.031938 1699.491713 
L 3720.982979 1712.489648 
L 3723.93402 1717.714556 
L 3726.885061 1723.933634 
L 3729.836102 1764.527249 
L 3732.787143 1814.631373 
L 3735.738184 1858.010738 
L 3738.689225 1890.003831 
L 3741.640266 1896.487675 
L 3744.591307 1894.603349 
L 3747.542348 1901.996141 
L 3750.493389 1911.519812 
L 3753.44443 1912.405456 
L 3756.395471 1897.268069 
L 3759.346512 1885.863195 
L 3762.297553 1870.210541 
L 3765.248593 1844.667976 
L 3768.199634 1826.921815 
L 3771.150675 1812.131601 
L 3774.101716 1777.211345 
L 3777.052757 1746.079986 
L 3780.003798 1697.070795 
L 3788.856921 1563.226489 
L 3791.807962 1550.495759 
L 3794.759003 1568.884295 
L 3797.710044 1570.163632 
L 3800.661085 1554.046263 
L 3803.612126 1532.18405 
L 3806.563167 1514.80662 
L 3809.514208 1504.322618 
L 3812.465249 1510.029581 
L 3815.41629 1542.556512 
L 3818.367331 1578.143388 
L 3821.318372 1618.817954 
L 3824.269413 1669.03419 
L 3827.220454 1716.541785 
L 3830.171495 1736.474009 
L 3833.122536 1729.088314 
L 3836.073577 1713.573465 
L 3839.024617 1706.421517 
L 3841.975658 1698.221683 
L 3844.926699 1683.79813 
L 3847.87774 1674.195381 
L 3850.828781 1671.733488 
L 3853.779822 1674.047195 
L 3856.730863 1680.366412 
L 3859.681904 1683.493792 
L 3862.632945 1687.521915 
L 3865.583986 1687.650408 
L 3868.535027 1688.281384 
L 3871.486068 1688.407525 
L 3874.437109 1685.433632 
L 3877.38815 1680.271662 
L 3880.339191 1680.089102 
L 3883.290232 1692.107106 
L 3886.235371 1702.466914 
L 3889.186412 1715.47004 
L 3892.137453 1744.024611 
L 3895.088494 1771.354757 
L 3898.039535 1783.539544 
L 3900.990576 1782.358205 
L 3903.941617 1781.44262 
L 3906.892658 1783.685665 
L 3909.843698 1782.901167 
L 3912.794739 1776.943124 
L 3915.74578 1774.771056 
L 3918.696821 1780.705079 
L 3921.647862 1795.325358 
L 3924.598903 1811.633071 
L 3927.549944 1823.861349 
L 3930.500985 1834.896149 
L 3933.452026 1843.34686 
L 3936.403067 1845.174925 
L 3939.354108 1844.129943 
L 3942.305149 1842.892571 
L 3945.25619 1842.342579 
L 3948.207231 1847.682037 
L 3951.158272 1868.079257 
L 3954.109313 1895.640618 
L 3957.060354 1915.855007 
L 3960.011395 1927.757747 
L 3962.962436 1934.791497 
L 3965.913477 1937.869463 
L 3968.864518 1944.7921 
L 3971.815559 1957.268411 
L 3974.7666 1966.372193 
L 3977.717641 1973.166205 
L 3980.668682 1982.943102 
L 3983.619723 1989.170579 
L 3986.570763 1993.826654 
L 3989.521804 1999.93438 
L 3992.472845 1998.289068 
L 3995.423886 1995.376535 
L 3998.374927 1997.1579 
L 4001.325968 2007.05825 
L 4004.277009 2011.745032 
L 4007.22805 2004.873264 
L 4010.179091 2007.261769 
L 4013.130132 2020.236607 
L 4016.081173 2035.944049 
L 4019.032214 2056.4632 
L 4021.983255 2069.297907 
L 4027.885337 2086.387475 
L 4030.836378 2102.152802 
L 4033.787419 2116.367088 
L 4036.73846 2120.704297 
L 4039.689501 2123.462322 
L 4042.640542 2120.3644 
L 4045.591583 2120.166728 
L 4048.542624 2122.447693 
L 4051.493665 2118.101778 
L 4054.444706 2120.067499 
L 4057.395747 2122.315656 
L 4060.346788 2124.849367 
L 4063.297828 2121.95578 
L 4066.248869 2114.689116 
L 4069.19991 2111.764901 
L 4072.150951 2112.818233 
L 4075.101992 2123.058298 
L 4078.053033 2144.508098 
L 4081.004074 2170.820087 
L 4083.955115 2186.309604 
L 4086.906156 2184.375169 
L 4089.857197 2173.7079 
L 4092.808238 2182.264908 
L 4095.759279 2191.215599 
L 4098.71032 2208.691109 
L 4101.661361 2212.299674 
L 4104.612402 2233.530083 
L 4107.563443 2258.364724 
L 4110.514484 2265.283497 
L 4113.465525 2260.063992 
L 4116.416566 2273.27766 
L 4119.367607 2293.837511 
L 4122.318648 2305.38483 
L 4125.269689 2299.194682 
L 4128.22073 2288.391816 
L 4131.171771 2286.126747 
L 4134.122812 2290.543316 
L 4137.073852 2277.768811 
L 4140.024893 2264.210065 
L 4142.975934 2235.522336 
L 4145.926975 2214.076902 
L 4148.878016 2203.002735 
L 4151.829057 2188.942583 
L 4154.774196 2190.931208 
L 4157.725237 2198.900572 
L 4160.676278 2209.963956 
L 4163.627319 2190.903457 
L 4166.57836 2195.936034 
L 4169.529401 2176.807299 
L 4172.480442 2170.961846 
L 4175.431483 2176.948477 
L 4178.382524 2187.238666 
L 4181.333565 2178.217902 
L 4184.284606 2172.267578 
L 4187.235647 2179.350274 
L 4190.186688 2174.715886 
L 4193.137729 2157.780085 
L 4196.08877 2162.262561 
L 4199.039811 2169.789731 
L 4201.990852 2172.801505 
L 4204.941893 2187.014013 
L 4207.892933 2193.318256 
L 4210.843974 2192.584743 
L 4213.795015 2189.483147 
L 4216.746056 2190.573686 
L 4219.697097 2195.471774 
L 4222.648138 2203.776588 
L 4225.599179 2203.044261 
L 4228.55022 2212.369978 
L 4231.501261 2223.211171 
L 4234.452302 2231.464474 
L 4237.403343 2230.616656 
L 4240.354384 2234.892933 
L 4243.305425 2244.886724 
L 4246.256466 2253.429783 
L 4249.207507 2255.249112 
L 4252.158548 2258.612006 
L 4255.109589 2258.057897 
L 4258.06063 2259.590352 
L 4261.011671 2266.115647 
L 4263.962712 2275.101318 
L 4266.913753 2283.25187 
L 4269.864794 2286.402456 
L 4272.815835 2292.429578 
L 4275.766876 2300.626862 
L 4278.717917 2306.139095 
L 4281.668958 2306.537027 
L 4284.619998 2312.878751 
L 4287.571039 2313.594787 
L 4290.52208 2312.84055 
L 4296.424162 2331.686051 
L 4299.375203 2333.915872 
L 4302.326244 2342.696126 
L 4305.277285 2348.973702 
L 4308.228326 2356.60206 
L 4311.179367 2365.369083 
L 4314.130408 2369.215131 
L 4317.081449 2375.051028 
L 4322.983531 2389.90188 
L 4325.934572 2395.192118 
L 4328.885613 2404.494715 
L 4331.836654 2412.583512 
L 4334.787695 2417.061697 
L 4337.738736 2415.959331 
L 4340.689777 2419.838289 
L 4343.640818 2422.149353 
L 4346.591859 2421.333388 
L 4349.5429 2425.389158 
L 4352.493941 2429.700688 
L 4358.396023 2443.613801 
L 4361.347063 2449.053123 
L 4364.298104 2456.062994 
L 4367.249145 2463.399228 
L 4370.200186 2476.62717 
L 4373.151227 2488.260822 
L 4376.102268 2493.065976 
L 4379.053309 2496.534414 
L 4382.00435 2498.403312 
L 4384.955391 2501.122517 
L 4387.906432 2502.135427 
L 4390.857473 2501.941942 
L 4393.808514 2513.151123 
L 4396.759555 2526.296995 
L 4399.710596 2527.336806 
L 4402.661637 2525.827924 
L 4405.612678 2528.615491 
L 4408.563719 2536.528812 
L 4411.51476 2543.695157 
L 4414.465801 2549.699781 
L 4417.416842 2557.032912 
L 4420.367883 2567.09886 
L 4423.318924 2572.053004 
L 4426.264063 2575.338761 
L 4429.215103 2586.426997 
L 4435.117185 2604.505463 
L 4438.068226 2608.530483 
L 4441.019267 2610.262775 
L 4443.970308 2616.89083 
L 4446.921349 2618.036358 
L 4449.87239 2617.670766 
L 4452.823431 2615.669962 
L 4455.774472 2614.49607 
L 4458.725513 2618.429659 
L 4461.676554 2624.088155 
L 4464.627595 2627.436594 
L 4467.578636 2638.224756 
L 4470.529677 2638.687492 
L 4473.480718 2641.337446 
L 4476.431759 2640.515769 
L 4479.3828 2641.963894 
L 4482.333841 2643.018728 
L 4485.284882 2658.409653 
L 4488.235923 2679.122853 
L 4491.186964 2692.659199 
L 4494.138005 2704.648198 
L 4497.089046 2713.875839 
L 4500.040087 2706.948298 
L 4502.991128 2704.333778 
L 4505.942168 2704.814334 
L 4508.893209 2701.611754 
L 4511.84425 2709.637204 
L 4514.795291 2702.051635 
L 4517.746332 2701.497374 
L 4520.697373 2700.829095 
L 4523.648414 2693.701702 
L 4526.599455 2697.711959 
L 4529.550496 2687.509765 
L 4532.501537 2684.549933 
L 4535.452578 2679.315096 
L 4538.403619 2676.070455 
L 4541.35466 2658.131226 
L 4544.305701 2655.823066 
L 4547.256742 2650.020914 
L 4550.207783 2632.993033 
L 4556.109865 2620.740489 
L 4559.060906 2625.806388 
L 4562.011947 2619.533024 
L 4564.962988 2612.93438 
L 4567.914029 2609.828398 
L 4570.86507 2594.905985 
L 4573.816111 2594.781002 
L 4576.767152 2592.795054 
L 4579.718193 2602.407874 
L 4582.669233 2588.236537 
L 4585.620274 2591.231982 
L 4588.571315 2591.265283 
L 4591.522356 2588.572358 
L 4597.424438 2582.976023 
L 4600.375479 2585.857753 
L 4603.32652 2589.945248 
L 4606.277561 2590.092728 
L 4609.228602 2594.874127 
L 4612.179643 2598.678821 
L 4615.130684 2604.525241 
L 4618.081725 2619.400087 
L 4621.032766 2635.07819 
L 4623.983807 2644.00022 
L 4626.934848 2651.363777 
L 4629.885889 2657.6806 
L 4632.83693 2658.720467 
L 4635.787971 2657.901792 
L 4638.739012 2657.252533 
L 4641.690053 2668.036636 
L 4644.641094 2679.754674 
L 4647.592135 2693.754442 
L 4650.543176 2703.38896 
L 4653.494217 2700.727619 
L 4656.445258 2703.853142 
L 4659.396298 2702.526231 
L 4662.347339 2710.799001 
L 4665.29838 2713.84695 
L 4668.249421 2716.416113 
L 4671.200462 2716.905501 
L 4674.151503 2720.454399 
L 4677.102544 2727.320547 
L 4680.053585 2739.334071 
L 4683.004626 2749.068705 
L 4685.955667 2760.646227 
L 4688.906708 2763.802458 
L 4691.857749 2768.506006 
L 4694.802888 2773.529196 
L 4697.753929 2781.528411 
L 4700.70497 2787.37652 
L 4703.656011 2791.210679 
L 4706.607052 2794.509909 
L 4709.558093 2799.789589 
L 4712.509134 2796.594617 
L 4715.460175 2803.516797 
L 4718.411216 2805.810186 
L 4721.362257 2811.98117 
L 4724.313298 2819.2499 
L 4727.264338 2824.776856 
L 4730.215379 2824.778604 
L 4733.16642 2827.703095 
L 4736.117461 2830.176144 
L 4739.068502 2837.642885 
L 4742.019543 2841.313599 
L 4744.970584 2847.475727 
L 4747.921625 2854.867833 
L 4750.872666 2863.186856 
L 4753.823707 2869.122142 
L 4756.774748 2876.000969 
L 4759.725789 2883.786534 
L 4762.67683 2888.715367 
L 4765.627871 2896.257169 
L 4768.578912 2902.094829 
L 4771.529953 2904.659388 
L 4774.480994 2911.46213 
L 4777.432035 2919.039305 
L 4780.383076 2919.863505 
L 4783.334117 2927.259842 
L 4786.285158 2931.264843 
L 4792.18724 2927.724819 
L 4795.138281 2928.386455 
L 4798.089322 2930.469384 
L 4801.040363 2930.656804 
L 4803.991403 2933.730248 
L 4806.942444 2942.307002 
L 4809.893485 2948.664024 
L 4812.844526 2958.829487 
L 4815.795567 2965.6719 
L 4818.746608 2974.413082 
L 4821.697649 2989.117411 
L 4824.64869 2999.915853 
L 4830.550772 3006.700309 
L 4833.501813 3003.65506 
L 4836.452854 2998.191539 
L 4839.403895 2995.868558 
L 4842.354936 2994.62946 
L 4845.305977 2999.128733 
L 4848.257018 3005.607437 
L 4851.208059 3004.681905 
L 4854.1591 2997.821902 
L 4857.110141 2996.660075 
L 4860.061182 2990.416322 
L 4863.012223 2987.212052 
L 4865.963264 2982.580127 
L 4868.914305 2990.70237 
L 4871.865346 2999.945122 
L 4874.816387 3005.89338 
L 4877.767428 3012.471224 
L 4880.718468 3014.993569 
L 4883.669509 3028.255801 
L 4886.62055 3043.831298 
L 4889.571591 3047.855454 
L 4892.522632 3043.254517 
L 4895.473673 3042.899212 
L 4898.424714 3039.21482 
L 4901.375755 3024.522109 
L 4904.326796 3027.124048 
L 4907.277837 3028.340208 
L 4910.228878 3026.287303 
L 4913.179919 3020.314626 
L 4916.13096 3016.714812 
L 4919.082001 3006.565584 
L 4922.033042 2993.24654 
L 4924.984083 2977.406656 
L 4927.935124 2968.101309 
L 4930.886165 2968.99099 
L 4933.837206 2974.480508 
L 4936.788247 2975.088169 
L 4939.739288 2968.453884 
L 4942.690329 2965.998382 
L 4945.64137 2962.507824 
L 4948.592411 2968.017509 
L 4951.543452 2972.62448 
L 4954.494493 2984.828126 
L 4957.445533 2998.896986 
L 4960.396574 3010.89422 
L 4963.341713 3013.297307 
L 4966.292754 3019.740305 
L 4969.243795 3032.11975 
L 4972.194836 3049.665654 
L 4975.145877 3059.712244 
L 4978.096918 3062.878762 
L 4981.047959 3063.492839 
L 4983.999 3059.143063 
L 4986.950041 3052.771582 
L 4989.901082 3048.660568 
L 4992.852123 3032.033306 
L 4995.803164 3021.844688 
L 4998.754205 3017.792758 
L 5001.705246 3015.217815 
L 5004.656287 3013.95948 
L 5007.607328 3022.27039 
L 5010.558369 3021.337997 
L 5016.460451 3036.570003 
L 5019.411492 3045.270039 
L 5022.362533 3055.419297 
L 5025.313573 3063.313962 
L 5028.264614 3070.541755 
L 5031.215655 3076.868957 
L 5034.166696 3088.063883 
L 5037.117737 3093.966419 
L 5040.068778 3104.298948 
L 5043.019819 3115.501452 
L 5045.97086 3118.276632 
L 5048.921901 3116.819897 
L 5051.872942 3117.326219 
L 5054.823983 3116.565419 
L 5057.775024 3120.24748 
L 5060.726065 3122.775035 
L 5063.677106 3121.091368 
L 5066.628147 3125.117826 
L 5069.579188 3128.458613 
L 5075.48127 3139.106926 
L 5078.432311 3145.799278 
L 5081.383352 3147.11799 
L 5084.334393 3154.869847 
L 5087.285434 3164.428987 
L 5090.236475 3174.815098 
L 5093.187516 3184.405424 
L 5099.089598 3208.777375 
L 5102.040638 3218.545756 
L 5104.991679 3222.216301 
L 5107.94272 3224.401332 
L 5110.893761 3227.14984 
L 5113.844802 3229.745125 
L 5116.795843 3232.989664 
L 5119.746884 3239.295445 
L 5122.697925 3244.766168 
L 5125.648966 3247.841627 
L 5128.600007 3253.307224 
L 5131.551048 3252.258087 
L 5134.502089 3265.013093 
L 5137.45313 3276.131992 
L 5143.355212 3282.117339 
L 5146.306253 3284.8564 
L 5149.257294 3285.288457 
L 5152.208335 3291.033029 
L 5158.110417 3310.958503 
L 5161.061458 3326.387297 
L 5164.012499 3344.861635 
L 5166.96354 3364.243695 
L 5169.914581 3386.216329 
L 5172.865622 3394.986829 
L 5175.816663 3398.985958 
L 5178.767703 3401.866761 
L 5181.718744 3407.701612 
L 5184.669785 3408.75866 
L 5187.620826 3405.652898 
L 5190.571867 3394.305351 
L 5193.522908 3392.877931 
L 5196.473949 3402.6833 
L 5199.42499 3403.605677 
L 5202.376031 3404.182841 
L 5205.327072 3406.551447 
L 5208.278113 3404.428372 
L 5211.229154 3402.708892 
L 5214.180195 3402.493202 
L 5217.131236 3404.331117 
L 5220.082277 3407.204505 
L 5223.033318 3414.525936 
L 5228.9354 3450.662429 
L 5231.880539 3464.215329 
L 5234.83158 3466.560614 
L 5237.782621 3489.885572 
L 5240.733662 3496.933724 
L 5243.684703 3499.57674 
L 5246.635743 3493.293281 
L 5249.586784 3485.204822 
L 5252.537825 3471.750689 
L 5255.488866 3467.808915 
L 5258.439907 3461.086967 
L 5261.390948 3460.640188 
L 5264.341989 3450.888227 
L 5267.29303 3430.435264 
L 5270.244071 3408.218393 
L 5273.195112 3378.724043 
L 5276.146153 3352.700607 
L 5279.097194 3322.388917 
L 5282.048235 3289.021724 
L 5284.999276 3275.027872 
L 5287.950317 3264.314257 
L 5290.901358 3249.250155 
L 5293.852399 3236.691022 
L 5296.80344 3231.218267 
L 5299.754481 3229.88934 
L 5302.705522 3242.174162 
L 5305.656563 3251.567985 
L 5308.607604 3259.088306 
L 5311.558645 3281.038119 
L 5314.509686 3291.059251 
L 5317.460727 3290.600287 
L 5320.411768 3300.541839 
L 5323.362808 3327.387451 
L 5326.313849 3344.05981 
L 5329.26489 3355.641608 
L 5332.215931 3370.18138 
L 5335.166972 3376.340159 
L 5338.118013 3374.018056 
L 5341.069054 3377.855272 
L 5344.020095 3371.345408 
L 5346.971136 3370.875581 
L 5349.922177 3375.065858 
L 5352.873218 3378.230922 
L 5355.824259 3384.429141 
L 5361.726341 3394.613883 
L 5364.677382 3406.56291 
L 5367.628423 3416.388947 
L 5370.579464 3422.48865 
L 5376.481546 3432.303311 
L 5379.432587 3441.393633 
L 5382.383628 3447.206645 
L 5385.334669 3457.206595 
L 5388.28571 3468.375763 
L 5391.236751 3477.841405 
L 5394.187792 3481.624141 
L 5397.138833 3492.403749 
L 5400.089873 3500.259432 
L 5403.040914 3499.890928 
L 5405.991955 3501.941646 
L 5408.942996 3505.163779 
L 5411.894037 3513.915947 
L 5414.845078 3521.090066 
L 5417.796119 3521.770297 
L 5420.74716 3527.14573 
L 5423.698201 3524.948719 
L 5426.649242 3527.874555 
L 5429.600283 3530.015901 
L 5432.551324 3532.5716 
L 5435.502365 3538.464984 
L 5438.453406 3541.405594 
L 5441.404447 3548.204244 
L 5444.355488 3556.537302 
L 5447.306529 3567.340143 
L 5450.25757 3590.493234 
L 5453.208611 3606.673429 
L 5456.159652 3620.182599 
L 5459.110693 3630.983002 
L 5462.061734 3636.161866 
L 5465.012775 3637.580031 
L 5467.963816 3638.769467 
L 5470.914857 3637.467177 
L 5473.865898 3643.020398 
L 5476.816938 3648.090785 
L 5479.767979 3653.895206 
L 5482.71902 3650.96491 
L 5485.670061 3657.1981 
L 5488.621102 3671.407911 
L 5491.572143 3677.71657 
L 5494.523184 3681.884833 
L 5497.474225 3683.593811 
L 5500.419364 3687.523614 
L 5503.376307 3691.168858 
L 5506.321446 3700.343855 
L 5509.272487 3707.29926 
L 5512.223528 3722.574974 
L 5515.174569 3740.640006 
L 5518.12561 3754.077831 
L 5521.076651 3757.972126 
L 5524.027692 3764.360424 
L 5526.978733 3775.213672 
L 5529.929774 3775.770307 
L 5535.831856 3785.614691 
L 5538.782897 3791.123499 
L 5541.733938 3784.427221 
L 5544.684978 3777.304255 
L 5547.636019 3788.033904 
L 5550.58706 3789.431933 
L 5553.538101 3791.425593 
L 5556.489142 3791.703911 
L 5559.440183 3797.749784 
L 5562.391224 3798.053416 
L 5565.342265 3797.763419 
L 5568.293306 3798.811126 
L 5571.244347 3805.239115 
L 5574.195388 3818.585294 
L 5577.146429 3827.164553 
L 5580.09747 3831.465312 
L 5583.048511 3851.628305 
L 5585.999552 3873.753237 
L 5588.950593 3883.616477 
L 5591.901634 3886.996242 
L 5594.852675 3899.613098 
L 5597.803716 3911.300761 
L 5600.754757 3909.633844 
L 5603.705798 3915.650124 
L 5606.656839 3916.852147 
L 5609.60788 3913.605169 
L 5612.558921 3914.57415 
L 5615.509962 3918.210764 
L 5618.461003 3895.405459 
L 5621.412043 3869.233093 
L 5624.363084 3849.615043 
L 5630.265166 3780.893233 
L 5633.216207 3729.02814 
L 5636.167248 3645.799909 
L 5639.118289 3584.014955 
L 5642.06933 3529.76954 
L 5645.020371 3546.523305 
L 5647.971412 3557.299467 
L 5650.922453 3570.783719 
L 5653.873494 3549.833036 
L 5656.824535 3544.478354 
L 5659.775576 3549.154659 
L 5662.726617 3565.876008 
L 5665.677658 3568.203532 
L 5668.628699 3570.386884 
L 5671.57974 3565.605539 
L 5674.530781 3567.013932 
L 5677.481822 3569.967324 
L 5680.432863 3600.055448 
L 5683.383904 3615.396968 
L 5686.334945 3614.366384 
L 5689.285986 3622.393758 
L 5692.237027 3627.928349 
L 5695.188068 3622.106773 
L 5698.139108 3621.141192 
L 5701.090149 3627.652576 
L 5704.04119 3633.027589 
L 5706.992231 3624.402016 
L 5712.894313 3618.73593 
L 5715.845354 3615.103777 
L 5718.796395 3622.264584 
L 5721.747436 3635.383861 
L 5724.698477 3643.102909 
L 5730.600559 3657.370569 
L 5733.5516 3665.746187 
L 5736.502641 3672.813302 
L 5739.453682 3695.969524 
L 5742.404723 3720.322926 
L 5745.355764 3732.691064 
L 5748.306805 3748.894646 
L 5751.257846 3753.084649 
L 5754.208887 3753.666841 
L 5757.159928 3760.836134 
L 5760.110969 3764.31779 
L 5763.06201 3764.120769 
L 5766.013051 3771.037141 
L 5768.964092 3784.062399 
L 5771.915133 3790.4435 
L 5774.860271 3797.31517 
L 5777.811312 3806.457107 
L 5780.762353 3816.405244 
L 5783.713394 3821.806366 
L 5789.615476 3831.767124 
L 5792.566517 3831.560143 
L 5795.517558 3834.71125 
L 5798.468599 3839.744666 
L 5801.41964 3845.65137 
L 5804.370681 3850.707479 
L 5807.321722 3855.015915 
L 5810.272763 3861.673304 
L 5813.223804 3871.727263 
L 5816.174845 3886.163727 
L 5819.125886 3893.707463 
L 5822.076927 3904.450332 
L 5830.93005 3945.31273 
L 5833.881091 3955.691467 
L 5836.832132 3970.703398 
L 5839.783173 3984.225509 
L 5842.734213 3990.952715 
L 5845.685254 3996.810873 
L 5848.636295 4000.166201 
L 5854.538377 3995.700531 
L 5857.489418 3995.744887 
L 5860.440459 3994.53463 
L 5863.3915 3993.727768 
L 5866.342541 3999.12077 
L 5869.293582 4006.740731 
L 5872.244623 4003.669082 
L 5875.195664 4024.379297 
L 5878.146705 4042.255831 
L 5881.097746 4053.369082 
L 5884.048787 4065.332123 
L 5886.999828 4079.570266 
L 5889.950869 4094.950727 
L 5892.90191 4105.533637 
L 5895.852951 4120.862552 
L 5898.803992 4139.194944 
L 5901.755033 4171.175258 
L 5904.706074 4187.998736 
L 5907.657115 4199.12089 
L 5910.608156 4211.486278 
L 5913.559197 4210.60021 
L 5919.461278 4204.435262 
L 5925.36336 4204.944156 
L 5928.314401 4200.611278 
L 5931.265442 4208.787817 
L 5934.216483 4230.462573 
L 5937.167524 4235.330565 
L 5940.118565 4233.195094 
L 5943.069606 4239.090388 
L 5946.020647 4249.971985 
L 5948.971688 4265.691858 
L 5951.922729 4288.22253 
L 5954.87377 4314.801757 
L 5957.824811 4349.877418 
L 5960.775852 4378.248608 
L 5963.726893 4399.827062 
L 5966.677934 4418.055644 
L 5969.628975 4425.381559 
L 5972.580016 4428.928332 
L 5975.531057 4426.046098 
L 5978.482098 4424.749442 
L 5981.433139 4424.434525 
L 5984.38418 4424.733108 
L 5987.335221 4417.689915 
L 5990.286262 4428.077832 
L 5993.237303 4447.420422 
L 5996.188343 4479.851567 
L 5999.139384 4490.250833 
L 6002.090425 4499.719921 
L 6005.041466 4523.217503 
L 6007.992507 4564.357903 
L 6010.943548 4612.892886 
L 6013.894589 4654.171669 
L 6016.84563 4697.585601 
L 6019.796671 4736.778945 
L 6022.747712 4758.310615 
L 6025.698753 4757.071141 
L 6028.649794 4751.57553 
L 6031.600835 4745.22195 
L 6034.551876 4737.173434 
L 6037.502917 4734.401149 
L 6040.453958 4714.481131 
L 6043.399097 4703.126774 
L 6046.350138 4705.897355 
L 6049.301179 4744.194919 
L 6052.25222 4778.281765 
L 6055.203261 4818.193739 
L 6058.154302 4862.588194 
L 6061.105343 4935.312642 
L 6064.056383 5035.25263 
L 6067.007424 5049.504536 
L 6069.958465 5080.031531 
L 6072.909506 5089.225115 
L 6075.860547 5094.25001 
L 6078.811588 5095.606676 
L 6081.762629 5094.462967 
L 6084.71367 5084.717307 
L 6087.664711 5077.237639 
L 6090.615752 5075.866165 
L 6093.566793 5084.170106 
L 6096.517834 5105.211404 
L 6099.468875 5116.178377 
L 6102.419916 5132.093353 
L 6105.370957 5116.803665 
L 6108.321998 5154.92489 
L 6111.273039 5204.023421 
L 6114.22408 5239.876275 
L 6117.175121 5281.796908 
L 6120.126162 5283.884123 
L 6123.077203 5309.495132 
L 6126.028244 5312.16879 
L 6128.979285 5319.815103 
L 6131.930326 5321.770901 
L 6134.881367 5331.241095 
L 6137.832408 5328.613577 
L 6140.783448 5320.113167 
L 6143.734489 5308.905698 
L 6146.68553 5297.255775 
L 6149.636571 5293.553698 
L 6152.587612 5290.487655 
L 6155.538653 5299.099675 
L 6158.489694 5308.063133 
L 6161.440735 5314.464664 
L 6164.391776 5334.449688 
L 6167.342817 5351.459985 
L 6170.293858 5364.838457 
L 6173.244899 5384.514779 
L 6176.19594 5410.365552 
L 6179.146981 5434.02277 
L 6182.098022 5459.455807 
L 6185.049063 5469.737742 
L 6188.000104 5479.23777 
L 6190.951145 5499.151976 
L 6193.902186 5498.760255 
L 6196.853227 5509.360094 
L 6199.804268 5512.998301 
L 6202.755309 5511.071067 
L 6205.70635 5506.02949 
L 6208.657391 5494.600551 
L 6211.608432 5493.444872 
L 6214.559473 5496.345137 
L 6217.510513 5499.4526 
L 6220.461554 5507.602321 
L 6223.412595 5514.431507 
L 6226.363636 5539.917481 
L 6226.363636 5539.917481 
" style="fill:none;stroke:#000000;stroke-linecap:square;stroke-width:1.5;"/>
   </g>
   <g id="patch_3">
    <path d="M 900 6300 
L 900 864 
" style="fill:none;stroke:#000000;stroke-linecap:square;stroke-linejoin:miter;stroke-width:0.8;"/>
   </g>
   <g id="patch_4">
    <path d="M 6480 6300 
L 6480 864 
" style="fill:none;stroke:#000000;stroke-linecap:square;stroke-linejoin:miter;stroke-width:0.8;"/>
   </g>
   <g id="patch_5">
    <path d="M 900 6300 
L 6480 6300 
" style="fill:none;stroke:#000000;stroke-linecap:square;stroke-linejoin:miter;stroke-width:0.8;"/>
   </g>
   <g id="patch_6">
    <path d="M 900 864 
L 6480 864 
" style="fill:none;stroke:#000000;stroke-linecap:square;stroke-linejoin:miter;stroke-width:0.8;"/>
   </g>
  </g>
 </g>
 <defs>
  <clipPath id="p9169fe3fed">
   <rect height="5436" width="5580" x="900" y="864"/>
  </clipPath>
 </defs>
</svg>
